<?xml version="1.0" encoding="UTF-8"?>
<svg width="439px" height="139px" viewBox="0 0 439 139" version="1.1" xmlns="http://www.w3.org/2000/svg" xmlns:xlink="http://www.w3.org/1999/xlink">
    <!-- Generator: Sketch 63.1 (92452) - https://sketch.com -->
    <title>5c76044519ef87172682d6fc_Dimensions-Guide-Transport-Buses-Coach-Bus-Elevation Copy</title>
    <desc>Created with Sketch.</desc>
    <g id="WebApp" stroke="none" stroke-width="1" fill="none" fill-rule="evenodd" stroke-linecap="round" stroke-linejoin="round">
        <g id="Artboard-Copy-40" transform="translate(-1067.000000, -397.000000)" stroke="#7269F0" stroke-width="1.575">
            <g id="Group-2" transform="translate(322.000000, 357.000000)">
                <g id="5c76044519ef87172682d6fc_Dimensions-Guide-Transport-Buses-Coach-Bus-Elevation-Copy" transform="translate(746.000000, 41.000000)">
                    <line x1="384.7347" y1="123.8174" x2="384.7347" y2="15.0388" id="Path"></line>
                    <line x1="150.2704" y1="15.0388" x2="150.2704" y2="56.8561" id="Path"></line>
                    <line x1="384.7347" y1="8.3839" x2="26.6567" y2="8.3839" id="Path"></line>
                    <line x1="13.9279" y1="83.3231" x2="13.9279" y2="117.8716" id="Path"></line>
                    <line x1="6.5324" y1="104.2461" x2="6.5324" y2="87.4272" id="Path"></line>
                    <path d="M6.6171,87.4272 C6.6171,86.5004 6.7963,85.5316 7.3703,84.7798 C7.9205,84.0581 8.757,83.6591 9.6285,83.4736 C10.262,83.3392 10.9074,83.3231 11.5521,83.3231 C12.1163,83.3231 12.6805,83.3231 13.2447,83.3231 C14.2653,83.3231 15.2866,83.3231 16.3072,83.3231 C17.759,83.3231 19.2101,83.3231 20.6619,83.3231 C22.5183,83.3231 24.3747,83.3231 26.2311,83.3231 C28.4781,83.3231 30.7251,83.3231 32.9728,83.3231 C35.5628,83.3231 38.1535,83.3231 40.7435,83.3231 C43.6611,83.3231 46.5787,83.3231 49.4963,83.3231 C52.7149,83.3231 55.9342,83.3231 59.1528,83.3231 C62.6472,83.3231 66.1416,83.3231 69.636,83.3231 C73.3985,83.3231 77.1617,83.3231 80.9242,83.3231 C84.8932,83.3231 88.8622,83.3231 92.8312,83.3231 C96.9983,83.3231 101.1654,83.3231 105.3318,83.3231 C109.6711,83.3231 114.0097,83.3231 118.349,83.3231 C122.8339,83.3231 127.3195,83.3231 131.8044,83.3231 C136.4321,83.3231 141.0605,83.3231 145.6882,83.3231 C150.3887,83.3231 155.0892,83.3231 159.7897,83.3231 C164.5588,83.3231 169.3279,83.3231 174.0963,83.3231 C178.9081,83.3231 183.7199,83.3231 188.531,83.3231 C193.3596,83.3231 198.1882,83.3231 203.0168,83.3231 C207.8594,83.3231 212.702,83.3231 217.5453,83.3231 C222.3298,83.3231 227.1143,83.3231 231.8988,83.3231 C236.6224,83.3231 241.346,83.3231 246.0696,83.3231 C250.7064,83.3231 255.3439,83.3231 259.9807,83.3231 C264.5055,83.3231 269.0296,83.3231 273.5544,83.3231 C277.9616,83.3231 282.3681,83.3231 286.7753,83.3231 C290.9963,83.3231 295.2173,83.3231 299.439,83.3231 C303.4703,83.3231 307.5009,83.3231 311.5322,83.3231 C315.3472,83.3231 319.1622,83.3231 322.9772,83.3231 C326.5507,83.3231 330.1235,83.3231 333.697,83.3231 C337.0178,83.3231 340.3386,83.3231 343.6594,83.3231 C346.6701,83.3231 349.6808,83.3231 352.6908,83.3231 C355.3816,83.3231 358.0731,83.3231 360.7639,83.3231 C363.1096,83.3231 365.4553,83.3231 367.801,83.3231 C369.7757,83.3231 371.7504,83.3231 373.7244,83.3231 C375.3085,83.3231 376.8926,83.3231 378.4767,83.3231 C379.6289,83.3231 380.7818,83.3231 381.9347,83.3231 C382.6382,83.3231 383.3424,83.3231 384.0459,83.3231 C384.2755,83.3231 384.5044,83.3231 384.734,83.3231" id="Path"></path>
                    <path d="M5.6532,94.1878 C4.8664,94.1878 4.0796,94.1878 3.2928,94.1878 C2.9813,94.1878 2.3268,94.0576 2.0419,94.1878 C1.8193,94.2893 1.9397,94.1269 1.8879,94.4419 C1.7416,95.326 1.8879,96.3592 1.8879,97.2538 C1.8879,97.9545 1.8879,98.6552 1.8879,99.3566 C2.8833,99.3566 3.8787,99.3566 4.8748,99.3566 C5.2976,99.3566 5.7358,99.3902 6.1537,99.3076 C6.776,99.1851 7.3409,98.8295 7.7217,98.322 C8.4721,97.3203 8.3839,95.8825 7.5166,94.9802 C7.0322,94.4776 6.3511,94.1878 5.6532,94.1878 Z" id="Path"></path>
                    <path d="M18.7607,83.3231 C18.7607,77.8722 18.9931,72.3653 18.6452,66.9214 C18.4835,64.3867 18.095,61.8849 17.3614,59.4496 C16.5844,56.8708 15.5414,54.3795 14.6713,51.8322 C13.034,47.0407 11.935,42.056 11.9532,36.9726 C11.9707,31.9417 13.0375,26.8779 15.1137,22.2915 C17.1661,17.7597 20.2762,13.6724 24.4223,10.8696 C24.8983,10.5476 25.3862,10.2438 25.8846,9.9575" id="Path"></path>
                    <line x1="25.8846" y1="9.9582" x2="25.8832" y2="8.3839" id="Path"></line>
                    <line x1="384.7347" y1="15.0388" x2="19.7211" y2="15.0388" id="Path"></line>
                    <path d="M121.6033,116.683 C121.6019,114.8021 120.3895,113.0787 118.6185,112.4445 C116.8482,111.811 114.8154,112.3724 113.6219,113.8263 C112.4284,115.2795 112.273,117.383 113.239,118.9958 C114.205,120.6093 116.1328,121.4647 117.9773,121.0986 C119.8155,120.7339 121.2666,119.217 121.5515,117.3655 C121.5858,117.1401 121.6026,116.9112 121.6033,116.683 Z" id="Path"></path>
                    <path d="M137.193,116.683 C137.1573,112.5593 135.9211,108.5252 133.5474,105.1421 C131.1744,101.7604 127.7619,99.1599 123.8727,97.7676 C119.9835,96.3753 115.696,96.2199 111.7151,97.3273 C107.7566,98.4291 104.181,100.7573 101.5735,103.9332 C98.966,107.1084 97.3777,111.069 97.0669,115.1661 C96.7547,119.2856 97.7417,123.4611 99.8641,127.0052 C101.9865,130.55 105.2016,133.3906 108.9802,135.0608 C112.7385,136.7212 116.9798,137.1909 121.0097,136.3915 C125.0403,135.5921 128.7811,133.5397 131.621,130.5703 C134.4763,127.5848 136.3635,123.7313 136.9725,119.6454 C137.0082,119.4039 137.2749,116.683 137.193,116.683 Z" id="Path"></path>
                    <path d="M129.2592,116.683 C129.2536,114.1861 128.478,111.7242 127.0402,109.6816 C125.6052,107.6432 123.5444,106.0766 121.198,105.2366 C118.8516,104.3966 116.2644,104.3 113.862,104.9643 C111.4582,105.6293 109.2868,107.0398 107.7041,108.9669 C106.127,110.887 105.1666,113.281 104.9776,115.7583 C104.7872,118.2531 105.3843,120.7822 106.6695,122.9284 C107.9498,125.0662 109.8881,126.784 112.1659,127.7941 C114.4374,128.8014 116.9994,129.0919 119.4382,128.6131 C121.8854,128.1329 124.1576,126.8911 125.8824,125.0893 C127.6009,123.2945 128.7398,120.9803 129.1171,118.5247 C129.2123,117.9157 129.2578,117.2997 129.2592,116.683 Z" id="Path"></path>
                    <path d="M127.0332,116.683 C127.0199,112.532 124.3634,108.7331 120.4483,107.3317 C116.5423,105.9338 112.0574,107.1735 109.4247,110.3795 C106.792,113.5862 106.4483,118.2258 108.5798,121.7853 C110.7113,125.3448 114.9638,127.2327 119.0336,126.4256 C123.0873,125.6213 126.2919,122.2746 126.9184,118.1894 C126.9947,117.691 127.0318,117.187 127.0332,116.683 Z" id="Path"></path>
                    <line x1="95.3421" y1="122.1633" x2="97.7711" y2="122.1633" id="Path"></line>
                    <line x1="136.4307" y1="122.1633" x2="138.8597" y2="122.1633" id="Path"></line>
                    <line x1="147.3843" y1="83.3231" x2="147.3843" y2="123.8174" id="Path"></line>
                    <path d="M1.8872,104.2461 C1.8872,100.4668 1.8872,96.6868 1.8872,92.9075 C1.8872,88.396 1.8886,83.8852 1.8872,79.3737 C1.8865,75.9724 1.5204,72.6292 1.1683,69.251 C0.7812,65.5375 0.9233,61.7624 0.9296,58.0349 C0.9359,54.2087 0.9422,50.3825 1.0906,46.5584 C1.2425,42.6342 1.4889,38.7163 1.9383,34.8145 C2.3527,31.2186 2.9848,27.6346 3.9158,24.1346 C4.8076,20.7802 5.9549,17.3971 7.7784,14.4235 C9.1532,12.1821 10.9529,10.3229 13.4764,9.443 C16.618,8.3475 20.1782,8.4105 23.464,8.3958 C24.528,8.3909 25.5927,8.3874 26.6567,8.3832" id="Path"></path>
                    <line x1="86.7531" y1="15.0388" x2="86.7531" y2="56.8561" id="Path"></line>
                    <line x1="86.7531" y1="83.3231" x2="86.7531" y2="123.8174" id="Path"></line>
                    <line x1="430.5896" y1="100.2127" x2="416.5462" y2="100.2127" id="Path"></line>
                    <path d="M408.506,123.8083 C411.4341,121.1868 414.2257,118.1383 415.5221,114.3541 C416.108,112.644 416.3026,110.8716 416.3817,109.0747 C416.4699,107.0643 416.5217,105.0525 416.5294,103.04 C416.5455,98.6902 416.5287,94.3418 416.5112,89.992 C416.493,85.386 416.5448,80.7737 416.451,76.1684 C416.3593,71.6807 416.1703,67.1951 415.7125,62.7277 C415.2708,58.4185 414.5442,54.1555 413.6419,49.9205 C412.7312,45.6456 411.6084,41.4162 410.3862,37.2211 C409.2011,33.1555 408.0041,29.0171 406.2562,25.1503 C404.8072,21.945 402.836,18.9917 399.5677,17.4517 C396.0061,15.7731 391.7641,15.3664 387.8812,15.1368 C386.8333,15.0745 385.7847,15.0472 384.7354,15.0388" id="Path"></path>
                    <path d="M1.8872,87.4272 C4.6858,87.4272 7.4921,87.3635 10.29,87.4272 C11.781,87.4608 11.3463,89.2997 11.3463,90.3231 C11.3463,93.5788 11.3463,96.8345 11.3463,100.0902 C11.3463,100.9883 11.2007,101.8346 10.6869,102.5885 C9.1427,104.8537 6.0424,104.2461 3.6988,104.2461 C2.9365,104.2461 2.1742,104.2461 1.4112,104.2461 C1.2166,104.2461 1.0031,104.2216 0.8183,104.2986 C0.2499,104.5359 0.3808,105.2198 0.3808,105.7105 C0.3808,107.6271 0.1946,109.6613 0.7392,111.5296 C1.526,114.2288 3.7604,115.871 6.3882,116.5969 C7.6888,116.956 9.0559,117.1072 10.3873,117.3158 C13.0802,117.7386 15.7731,118.1607 18.466,118.5835 C25.7586,119.728 33.0512,120.8725 40.3431,122.017 C44.1938,122.6211 48.0648,123.3981 51.9617,123.641 C56.3185,123.9126 60.7005,123.8167 65.0636,123.8167 C71.8193,123.8167 78.5757,123.8167 85.3314,123.8167 C85.8046,123.8167 86.2785,123.8167 86.7517,123.8167" id="Path"></path>
                    <line x1="351.9313" y1="122.1633" x2="354.3596" y2="122.1633" id="Path"></line>
                    <line x1="310.8427" y1="122.1633" x2="313.271" y2="122.1633" id="Path"></line>
                    <path d="M342.5338,116.683 C342.5205,112.532 339.864,108.7331 335.9489,107.3317 C332.0429,105.9338 327.558,107.1735 324.9253,110.3795 C322.2926,113.5862 321.9489,118.2258 324.0804,121.7853 C326.2119,125.3448 330.4644,127.2327 334.5342,126.4256 C338.5879,125.6213 341.7925,122.2746 342.419,118.1894 C342.4946,117.691 342.5317,117.187 342.5338,116.683 Z" id="Path"></path>
                    <path d="M344.7591,116.683 C344.7535,114.1861 343.9779,111.7242 342.5401,109.6816 C341.1058,107.6432 339.0443,106.0766 336.6979,105.2366 C334.3515,104.3966 331.7643,104.3 329.3626,104.9643 C326.9588,105.6293 324.7874,107.0398 323.2047,108.9669 C321.6276,110.887 320.6672,113.281 320.4782,115.7583 C320.2878,118.2531 320.8849,120.7822 322.1701,122.9284 C323.4504,125.0662 325.3887,126.784 327.6665,127.7941 C329.938,128.8014 332.5,129.0919 334.9388,128.6131 C337.386,128.1329 339.6582,126.8911 341.383,125.0893 C343.1015,123.2945 344.2404,120.9803 344.6177,118.5247 C344.7122,117.9157 344.7577,117.2997 344.7591,116.683 Z" id="Path"></path>
                    <path d="M352.6929,116.683 C352.6572,112.5593 351.421,108.5252 349.0473,105.1421 C346.6743,101.7604 343.2618,99.1599 339.3726,97.7676 C335.4827,96.3753 331.1959,96.2199 327.215,97.3273 C323.2565,98.4291 319.6809,100.7573 317.0734,103.9332 C314.4659,107.1084 312.8776,111.069 312.5668,115.1661 C312.2546,119.2856 313.2416,123.4611 315.364,127.0052 C317.4864,130.55 320.7015,133.3906 324.4801,135.0608 C328.2384,136.7212 332.4797,137.1909 336.5096,136.3915 C340.5402,135.5921 344.281,133.5397 347.1209,130.5703 C349.9762,127.5848 351.8634,123.7313 352.4724,119.6454 C352.6187,118.6626 352.6845,117.6749 352.6929,116.683 Z" id="Path"></path>
                    <path d="M337.1032,116.683 C337.1018,114.8021 335.8894,113.0787 334.1184,112.4445 C332.3481,111.811 330.3153,112.3724 329.1218,113.8263 C327.9283,115.2795 327.7729,117.383 328.7389,118.9958 C329.7049,120.6093 331.6327,121.4647 333.4772,121.0986 C335.3154,120.7339 336.7665,119.217 337.0514,117.3655 C337.0857,117.1401 337.1032,116.9112 337.1032,116.683 Z" id="Path"></path>
                    <line x1="302.253" y1="83.3231" x2="302.253" y2="123.8174" id="Path"></line>
                    <path d="M253.4532,8.3839 C256.109,4.6949 259.8897,2.1504 264.2696,0.9653 C267.6296,0.0567 271.054,0.0546 274.5008,0.0546 C280.5929,0.0546 286.6843,0.0546 292.7764,0.0546 C300.4449,0.0546 308.1134,0.0546 315.7819,0.0546 C320.1422,0.0546 324.5032,0.0546 328.8635,0.0546 C328.9286,0.0546 328.9944,0.0546 329.0595,0.0546" id="Path"></path>
                    <path d="M329.0588,0.0553 C333.2196,0.0777 337.3762,0.1386 341.5342,0.2982 C345.6516,0.4557 349.7662,0.714 353.8703,1.0815 C357.8568,1.4385 361.8342,1.9096 365.7927,2.5018 C369.7743,3.0975 373.8014,3.7016 377.699,4.7278 C379.4588,5.1912 382.5661,5.8807 383.2626,7.9128 C383.3151,8.0661 383.3501,8.2243 383.3683,8.3853" id="Path"></path>
                    <path d="M378.819,15.0388 C378.819,13.3742 378.9352,11.6473 378.6846,9.9932 C378.6104,9.5004 378.462,8.4021 377.7886,8.3839" id="Path"></path>
                    <line x1="416.5168" y1="83.3231" x2="427.5418" y2="83.3231" id="Path"></line>
                    <path d="M363.2965,123.8174 C363.2965,120.0948 363.2965,116.3722 363.2965,112.6496 C363.2965,105.9401 363.2965,99.2299 363.2965,92.5204 C363.2965,88.9966 363.3609,85.4651 363.2804,81.942 C363.1915,78.0437 362.8744,73.6778 360.7744,70.2765 C358.0871,65.9239 355.3172,61.6217 352.5886,57.295 C352.4969,57.1487 352.4045,57.0031 352.3128,56.8568" id="Path"></path>
                    <path d="M361.4345,15.0388 C359.1406,17.9368 357.2989,21.1449 356.1075,24.6505 C354.9175,28.1519 354.3897,31.8451 354.400726,35.5376 C354.4114,39.1769 354.8671,42.8869 355.8086,46.4044 C356.7949,50.0892 358.5589,53.4226 360.7296,56.5404 C362.971,59.7604 365.4644,62.8173 368.0159,65.7951 C370.5786,68.7855 373.2148,71.7143 375.9329,74.564 C378.7084,77.4739 381.5399,80.3271 384.4764,83.076 C387.366,85.7815 390.3515,88.3834 393.4735,90.818 C396.4471,93.1364 399.5838,95.3148 402.9634,97.0025 C406.3612,98.6993 410.0005,99.7941 413.7931,100.1028 C414.7094,100.1777 415.6271,100.205 416.5462,100.212" id="Path"></path>
                    <line x1="360.9508" y1="56.8561" x2="16.4899" y2="56.8561" id="Path"></line>
                    <line x1="384.7347" y1="63.9772" x2="415.8343" y2="63.9772" id="Path"></line>
                    <line x1="384.7347" y1="36.3734" x2="410.1405" y2="36.3734" id="Path"></line>
                    <line x1="384.7347" y1="23.6789" x2="405.5408" y2="23.6789" id="Path"></line>
                    <line x1="405.5408" y1="23.6789" x2="411.2969" y2="19.4852" id="Path"></line>
                    <line x1="278.8933" y1="15.0388" x2="278.8933" y2="56.8561" id="Path"></line>
                    <path d="M115.9011,6.4568 C114.9155,6.4575 114.0496,7.2107 113.9152,8.1893 C113.7822,9.1616 114.4024,10.1171 115.3495,10.388 C115.7079,10.4909 116.0831,10.4657 116.4513,10.4657 C117.6266,10.4657 118.8026,10.4657 119.9779,10.4657 C124.2528,10.4657 128.5284,10.4657 132.8033,10.4657 C136.9529,10.4657 141.1018,10.4657 145.2514,10.4657 C146.2762,10.4657 147.301,10.4713 148.3258,10.4657 C148.7752,10.4636 149.2057,10.3957 149.4255,9.94 C149.6481,9.4773 149.5179,8.8151 149.5179,8.3286 C149.5179,7.9044 149.6208,7.3367 149.4038,6.9398 C149.1616,6.4974 148.7276,6.4575 148.281,6.4568 C145.3515,6.454 142.4213,6.4568 139.4918,6.4568 C134.876,6.4568 130.2595,6.4568 125.6437,6.4568 C122.5546,6.4568 119.4648,6.4568 116.3757,6.4568 C116.2168,6.4568 116.0586,6.4568 115.9011,6.4568 Z" id="Path"></path>
                    <path d="M217.6657,6.4568 C216.6801,6.4575 215.8142,7.2107 215.6798,8.1893 C215.5468,9.1616 216.167,10.1171 217.1141,10.388 C217.4725,10.4909 217.8477,10.4657 218.2159,10.4657 C219.3912,10.4657 220.5672,10.4657 221.7425,10.4657 C226.0174,10.4657 230.293,10.4657 234.5679,10.4657 C238.7175,10.4657 242.8664,10.4657 247.016,10.4657 C248.0408,10.4657 249.0656,10.4713 250.0904,10.4657 C250.5398,10.4636 250.9703,10.3957 251.1901,9.94 C251.4127,9.4773 251.2825,8.8151 251.2825,8.3286 C251.2825,7.9044 251.3854,7.3367 251.1684,6.9398 C250.9262,6.4974 250.4922,6.4575 250.0456,6.4568 C247.1161,6.454 244.1859,6.4568 241.2564,6.4568 C236.6406,6.4568 232.0241,6.4568 227.4083,6.4568 C224.3192,6.4568 221.2294,6.4568 218.1403,6.4568 C217.9814,6.4568 217.8232,6.4568 217.6657,6.4568 Z" id="Path"></path>
                    <path d="M361.4345,15.0388 C358.2201,19.1002 355.9668,23.7734 354.9966,28.875 C354.0579,33.8093 354.2868,38.9354 355.229,43.8522 C355.7029,46.3267 356.4155,48.7508 357.4844,51.0363 C358.5743,53.3659 359.9792,55.5205 361.4842,57.6002 C364.7224,62.0753 368.3554,66.2564 372.0395,70.3654 C375.6697,74.4149 379.4756,78.3188 383.4103,82.0729 C383.8492,82.4915 384.293,82.9052 384.7347,83.321 C384.7347,79.4451 384.7347,75.5685 384.7347,71.6926 C384.7347,63.35 384.7347,55.0067 384.7347,46.6641 C384.7347,38.8143 384.7347,30.9652 384.7347,23.1154 C384.7347,20.8712 384.7347,18.627 384.7347,16.3828 C384.7347,16.1371 384.8782,15.3125 384.7347,15.1032 C384.608,14.9191 383.7414,15.0395 383.4922,15.0395 C376.3326,15.0395 369.173,15.0395 362.0134,15.0395 C361.8209,15.0388 361.6277,15.0388 361.4345,15.0388 Z" id="Path"></path>
                    <path d="M21.0028,17.773 C19.1464,20.167 17.7072,22.8452 16.6824,25.6949 C15.617,28.6573 14.9639,31.7758 14.7588,34.9174 C14.5593,37.9659 14.7931,41.0298 15.3713,44.0272 C15.9306,46.928 16.8105,49.7553 17.815,52.5301 C17.9417,52.8801 18.1391,53.9525 18.4373,54.1219 C18.5318,54.1751 18.8174,54.1219 18.9224,54.1219 C19.7491,54.1219 20.5765,54.1219 21.4032,54.1219 C24.6757,54.1219 27.9475,54.1219 31.22,54.1219 C35.8428,54.1219 40.4656,54.1219 45.0884,54.1219 C50.1011,54.1219 55.1131,54.1219 60.1258,54.1219 C64.5673,54.1219 69.0081,54.1219 73.4496,54.1219 C76.3504,54.1219 79.2512,54.1219 82.1513,54.1219 C82.5335,54.1219 82.9157,54.1219 83.2986,54.1219 C83.44,54.1219 83.7851,54.1884 83.9125,54.1219 C84.1358,54.0064 84.0189,53.4723 84.0189,53.1783 C84.0189,49.6699 84.0189,46.1622 84.0189,42.6538 C84.0189,37.7314 84.0189,32.8097 84.0189,27.8873 C84.0189,24.682 84.0189,21.4767 84.0189,18.2714 C84.0189,17.8213 84.1274,17.8017 83.7256,17.773 C82.9899,17.7198 82.2297,17.773 81.4919,17.773 C78.2887,17.773 75.0862,17.773 71.883,17.773 C67.2812,17.773 62.6794,17.773 58.0783,17.773 C53.0733,17.773 48.069,17.773 43.064,17.773 C38.717,17.773 34.3707,17.773 30.0237,17.773 C27.377,17.773 24.731,17.773 22.0843,17.773 C21.7238,17.773 21.3633,17.773 21.0028,17.773 Z" id="Path"></path>
                    <path d="M147.5362,54.1219 C147.5362,47.9241 147.5362,41.7263 147.5362,35.5285 C147.5362,31.3488 147.5362,27.1684 147.5362,22.9887 C147.5362,21.6783 147.5362,20.3679 147.5362,19.0575 C147.5362,18.8636 147.6671,17.9102 147.525,17.7737 C147.3836,17.6379 146.4386,17.7737 146.2545,17.7737 C145.2395,17.7737 144.2245,17.7737 143.2102,17.7737 C139.8145,17.7737 136.4188,17.7737 133.0231,17.7737 C124.1464,17.7737 115.2697,17.7737 106.393,17.7737 C102.7285,17.7737 99.064,17.7737 95.3995,17.7737 C94.185,17.7737 92.9712,17.7737 91.7567,17.7737 C91.1092,17.7737 90.3819,17.6806 89.74,17.7737 C89.6595,17.7856 89.5692,17.7737 89.4873,17.7737 C89.4873,17.7737 89.4873,35.1708 89.4873,36.3671 C89.4873,40.5468 89.4873,44.7272 89.4873,48.9069 C89.4873,50.2173 89.4873,51.5277 89.4873,52.8381 C89.4873,53.032 89.3564,53.9854 89.4985,54.1219 C89.6399,54.2577 90.5849,54.1219 90.769,54.1219 C91.784,54.1219 92.799,54.1219 93.8133,54.1219 C97.209,54.1219 100.6047,54.1219 104.0011,54.1219 C112.8778,54.1219 121.7545,54.1219 130.6312,54.1219 C136.1822,54.1219 141.7332,54.1219 147.2842,54.1219 C147.3675,54.1219 147.4515,54.1219 147.5362,54.1219 Z" id="Path"></path>
                    <path d="M153.0046,54.1219 C157.6386,54.1219 162.2726,54.1219 166.9066,54.1219 C175.8148,54.1219 184.7237,54.1219 193.6319,54.1219 C199.3166,54.1219 205.002,54.1219 210.6867,54.1219 C211.071,54.1219 211.0325,54.1849 211.0535,53.8174 C211.106,52.8948 211.0535,51.9533 211.0535,51.0293 C211.0535,47.2066 211.0535,43.3839 211.0535,39.5612 C211.0535,32.4303 211.0535,25.3001 211.0535,18.1692 C211.0535,17.759 211.1249,17.801 210.7574,17.773 C210.0882,17.7226 209.3952,17.773 208.7246,17.773 C205.8056,17.773 202.8859,17.773 199.9669,17.773 C191.2225,17.773 182.4781,17.773 173.7337,17.773 C167.2216,17.773 160.7095,17.773 154.1967,17.773 C154.0301,17.773 153.1376,17.647 153.0116,17.773 C152.859,17.9249 153.0046,18.9623 153.0046,19.1709 C153.0046,22.484 153.0046,25.7971 153.0046,29.1109 C153.0046,36.9425 153.0046,44.7741 153.0046,52.6057 C153.0046,53.1111 153.0046,53.6165 153.0046,54.1219 Z" id="Path"></path>
                    <path d="M276.1591,54.1219 C276.1591,52.1227 276.1591,50.1235 276.1591,48.1243 C276.1591,43.7857 276.1591,39.4471 276.1591,35.1085 C276.1591,30.9183 276.1591,26.7288 276.1591,22.5386 C276.1591,21.2807 276.1591,20.0235 276.1591,18.7656 C276.1591,18.5374 276.2578,17.8857 276.0968,17.773 C275.8532,17.6029 274.8683,17.773 274.5841,17.773 C273.4774,17.773 272.3714,17.773 271.2647,17.773 C267.7423,17.773 264.2199,17.773 260.6982,17.773 C256.2161,17.773 251.7333,17.773 247.2512,17.773 C242.6879,17.773 238.1246,17.773 233.562,17.773 C229.8667,17.773 226.1721,17.773 222.4768,17.773 C221.2399,17.773 220.003,17.773 218.7661,17.773 C218.1291,17.773 217.4109,17.6799 216.7795,17.773 C216.4253,17.8255 216.5233,17.8094 216.5233,18.2364 C216.5233,19.2829 216.5233,20.3294 216.5233,21.3766 C216.5233,25.3743 216.5233,29.372 216.5233,33.369 C216.5233,37.8245 216.5233,42.28 216.5233,46.7355 C216.5233,48.3637 216.5233,49.9919 216.5233,51.6201 C216.5233,52.1395 216.5233,52.6589 216.5233,53.1776 C216.5233,53.3722 216.4337,53.8349 216.5233,54.0113 C216.6192,54.2003 216.8432,54.1212 217.1155,54.1212 C217.945,54.1212 218.7752,54.1212 219.6047,54.1212 C222.7463,54.1212 225.8886,54.1212 229.0302,54.1212 C233.3814,54.1212 237.7333,54.1212 242.0845,54.1212 C246.7178,54.1212 251.3511,54.1212 255.9837,54.1212 C259.9702,54.1212 263.9574,54.1212 267.9439,54.1212 C270.3561,54.1212 272.7683,54.1212 275.1805,54.1212 C275.5067,54.1219 275.8329,54.1219 276.1591,54.1219 Z" id="Path"></path>
                    <path d="M348.4838,17.773 C346.6449,22.2488 345.4031,26.9248 344.8949,31.7415 C344.3867,36.561 344.5974,41.4561 345.5151,46.214 C346.0352,48.9111 346.7954,51.541 347.7327,54.1212 C346.0667,49.5754 345.0265,44.8287 344.722,39.9931 C344.414,35.1099 344.8389,30.1819 345.9771,25.4233 C346.6029,22.8074 347.4548,20.258 348.4838,17.773 C346.2669,17.773 344.0493,17.773 341.8324,17.773 C336.5082,17.773 331.184,17.773 325.8598,17.773 C319.4191,17.773 312.9791,17.773 306.5384,17.773 C300.9727,17.773 295.4063,17.773 289.8406,17.773 C288.008,17.773 286.1747,17.773 284.3421,17.773 C283.7723,17.773 283.2018,17.773 282.632,17.773 C282.4283,17.773 281.9236,17.6764 281.7388,17.773 C281.7157,17.7856 281.6562,17.773 281.6275,17.773 C281.6275,21.8596 281.6275,25.9462 281.6275,30.0335 C281.6275,36.5554 281.6275,43.0773 281.6275,49.5992 C281.6275,51.107 281.6275,52.6148 281.6275,54.1219 C283.8213,54.1219 286.0158,54.1219 288.2096,54.1219 C293.4778,54.1219 298.746,54.1219 304.0135,54.1219 C310.3618,54.1219 316.7101,54.1219 323.0584,54.1219 C328.5681,54.1219 334.0778,54.1219 339.5868,54.1219 C342.2643,54.1219 344.9418,54.1219 347.6193,54.1219 C347.6564,54.1219 347.6942,54.1219 347.7313,54.1219" id="Path"></path>
                    <path d="M377.3434,17.773 C372.7255,17.773 368.1076,17.773 363.4897,17.773 C363.3189,17.773 362.9647,17.7023 362.8058,17.773 C362.5783,17.8738 362.334,18.3883 362.1856,18.6039 C361.697,19.313 361.2392,20.0431 360.815,20.7928 C359.8917,22.4245 359.1357,24.1472 358.561,25.9322 C357.3724,29.6247 356.986,33.523 357.1911,37.387 C357.3941,41.209 358.0059,45.1276 359.4458,48.6913 C360.8514,52.1689 363.0676,55.2482 365.3503,58.1973 C366.6971,59.9368 368.0943,61.6329 369.5055,63.3206 C370.146,64.0871 370.8005,64.8431 371.4564,65.597 C371.7567,65.9414 372.0605,66.2823 372.3629,66.6246 C372.5925,66.8843 372.9488,67.4863 373.2701,67.6088 C373.6761,67.7635 374.4524,67.6088 374.8794,67.6088 C375.5724,67.6088 376.2647,67.6088 376.9577,67.6088 C377.3861,67.6088 377.3399,67.6564 377.3434,67.2784 C377.3553,66.0527 377.3434,64.8263 377.3434,63.6006 C377.3434,58.3919 377.3434,53.1832 377.3434,47.9745 C377.3434,41.846 377.3434,35.7168 377.3434,29.5883 C377.3434,25.8328 377.3434,22.0766 377.3434,18.3211 C377.3434,18.1384 377.3434,17.9557 377.3434,17.773 Z" id="Path"></path>
                    <path d="M412.7844,97.251 C413.4872,97.335 413.8001,96.7491 413.8113,96.1471 C413.8449,94.2543 413.8001,92.3559 413.7945,90.4631 C413.7826,86.5725 413.8015,82.6805 413.7497,78.7906 C413.7,75.0659 413.6391,71.3454 413.2821,67.6347 C413.2009,66.7933 413.2513,65.8651 412.2069,65.8 C410.8629,65.7167 409.4874,65.8 408.142,65.8 C402.9326,65.8 397.7239,65.8 392.5145,65.8 C391.1691,65.8 389.7936,65.7174 388.4496,65.8 C387.842,65.8378 387.5039,66.1885 387.4703,66.7926 C387.366,68.6532 387.4703,70.5488 387.4703,72.4115 C387.4703,74.9707 387.4703,77.5299 387.4703,80.0891 C387.4703,80.8829 387.2463,81.8706 387.8574,82.4775 C389.1958,83.8075 390.6952,85.0122 392.1407,86.2225 C394.8994,88.5339 397.7631,90.7459 400.8186,92.6541 C403.7187,94.465 406.8218,95.9784 410.1615,96.7729 C411.0267,96.9794 411.9024,97.1313 412.7844,97.251 Z" id="Path"></path>
                    <path d="M387.4689,61.2423 C387.4738,61.8254 387.9372,62.125 388.4643,62.1537 C389.6858,62.2209 390.9297,62.1537 392.1519,62.1537 C396.9021,62.1537 401.653,62.1537 406.4032,62.1537 C408.023,62.1537 409.6421,62.1537 411.2619,62.1537 C411.7813,62.1537 412.3679,62.2265 412.6738,61.7001 C412.9258,61.2668 412.7326,60.6774 412.6759,60.2238 C412.5786,59.4503 412.4729,58.6782 412.3567,57.9068 C412.1089,56.2632 411.8219,54.6252 411.5027,52.9935 C410.8643,49.7301 410.1048,46.4891 409.2641,43.2719 C409.0618,42.4984 408.8546,41.7249 408.6425,40.9542 C408.4472,40.2444 408.3387,39.3813 408.0048,38.724 C407.7073,38.1381 407.1298,38.1955 406.5684,38.1955 C402.2837,38.1955 397.9997,38.1955 393.715,38.1955 C392.0483,38.1955 390.3816,38.1948 388.7149,38.1955 C388.1829,38.1955 387.6516,38.2851 387.4948,38.8892 C387.2953,39.6585 387.4682,40.6553 387.4682,41.4372 C387.4682,43.5862 387.4682,45.7359 387.4682,47.8849 C387.4682,52.0835 387.4682,56.2814 387.4682,60.48 C387.4689,60.7341 387.4689,60.9882 387.4689,61.2423 Z" id="Path"></path>
                    <path d="M419.4141,33.0246 C422.2442,33.0442 425.1177,33.3424 427.7791,34.3602 C429.4388,34.9951 431.1517,35.9415 432.229,37.3996 C432.558,37.8441 432.8863,38.3985 432.878733,38.9711" id="Path"></path>
                    <path d="M419.4141,26.8436 C423.8829,26.88 428.6709,27.3392 432.1184,30.4913 C433.5079,31.7618 434.7987,33.2381 435.5841,34.9657 C436.3548,36.6604 436.5221,38.5252 436.5389,40.3669 C436.5641,43.1025 436.5501,45.8395 436.5466,48.5751 C436.5445,50.0045 436.8007,51.3828 435.4014,52.1724 C434.7595,52.5343 433.3994,53.0404 432.7463,52.521 C432.3662,52.2186 432.2794,51.5326 432.2052,51.0937 C432.0148,49.9653 431.9812,48.8061 431.9462,47.6644 C431.8741,45.3089 431.7754,42.8379 432.1394,40.5013 C432.2045,40.0827 432.2794,39.5311 432.5783,39.2049 C432.9927,38.752 433.7991,38.8962 434.3423,38.8955 C435.057,38.8948 435.771,38.8941 436.4857,38.8927" id="Path"></path>
                    <path d="M407.6996,28.7826 C408.5585,28.4753 409.4167,28.1673 410.2756,27.86 C411.1751,27.538 412.1551,27.0228 413.0966,26.8492 C413.8057,26.719 414.6527,26.8436 415.3716,26.8436 C416.584,26.8436 417.7971,26.8436 419.0095,26.8436 C419.2195,26.8436 419.335,26.7967 419.4148,26.9241 C419.5408,27.1264 419.4148,27.8194 419.4148,28.0525 C419.4148,29.3433 419.4148,30.6341 419.4148,31.9256 C419.4148,32.0957 419.5303,32.8545 419.4148,32.9882 C419.335,33.0806 418.9584,33.0246 418.8121,33.0246 C417.5745,33.0246 416.3369,33.0246 415.1,33.0246 C413.2016,33.0246 411.3585,33.8807 409.5546,34.4351" id="Path"></path>
                    <path d="M427.9387,92.8263 C427.7924,88.7005 427.616,84.5803 427.3654,80.4594 C427.1323,76.6234 426.7949,72.7888 426.3497,68.9717 C425.8961,65.0846 425.3123,61.2108 424.5339,57.3748 C423.7646,53.5829 422.7874,49.8393 421.736,46.1167 C420.6398,42.2345 419.5282,38.3537 418.2528,34.5254 C418.0855,34.0242 417.914,33.5244 417.7446,33.0239" id="Path"></path>
                    <path d="M415.3744,26.8436 C413.6265,22.8627 411.4495,19.0169 408.2505,16.0139 C405.3819,13.3217 402.003,11.5745 398.2237,10.5469 C395.7695,9.8798 393.2593,9.4654 390.7491,9.0804" id="Path"></path>
                    <line x1="251.4372" y1="83.3231" x2="251.4372" y2="123.8174" id="Path"></line>
                    <line x1="213.7877" y1="15.0388" x2="213.7877" y2="123.8174" id="Path"></line>
                    <line x1="182.91" y1="56.8561" x2="182.91" y2="123.8174" id="Path"></line>
                    <path d="M362.9493,123.8174 C365.1823,123.8174 367.4153,123.8174 369.6483,123.8174 C374.5973,123.8174 379.5456,123.8174 384.4946,123.8174 C389.5157,123.8174 394.5361,123.8174 399.5572,123.8174 C402.0772,123.8174 404.5972,123.8258 407.1172,123.8174 C410.2861,123.8062 413.462,123.6949 416.605,123.2658 C419.6766,122.8472 422.9127,122.1787 425.5748,120.5092 C427.6727,119.1932 428.9754,117.2136 429.8462,114.9246 C430.7226,112.6223 430.5875,110.1576 430.5875,107.7363 C430.5875,103.6833 430.6092,99.6296 430.5875,95.5773 C430.584,94.8584 430.8171,93.6474 429.9512,93.366 C429.2743,93.1469 428.5701,93.0566 427.896,92.8095 C427.1841,92.5484 426.4925,92.2278 425.8233,91.8715 C423.871,90.8299 422.1882,89.4873 421.2943,87.4202 C420.077,84.6048 420.3542,81.2364 420.2723,78.2467 C420.1792,74.8475 419.9489,71.4609 419.6745,68.0729 C419.3819,64.4546 419.0823,60.8356 418.6469,57.232 C418.2304,53.7831 417.6669,50.3566 416.8892,46.97 C416.1297,43.6625 415.1721,40.3998 414.1025,37.1798 C412.951,33.712 411.6875,30.2827 410.319,26.8947 C409.087,23.8441 407.8046,20.6871 405.9769,17.9354 C404.1296,15.1543 401.4458,13.307 398.4918,11.8426 C395.4769,10.3481 392.2317,9.2575 388.906,8.7262 C387.527,8.5057 386.1319,8.3853 384.7354,8.3839" id="Path"></path>
                    <path d="M86.7531,123.8174 C88.4436,123.8279 90.1894,123.8132 91.847,124.1912 C93.0671,124.4698 94.0758,124.6721 95.3428,124.6784 C95.3428,118.9251 94.8423,113.1221 97.2664,107.7391 C99.4217,102.9532 103.3158,99.0493 108.0933,96.8765 C113.1207,94.5896 118.9447,94.3075 124.1681,96.1037 C129.1444,97.8152 133.3906,101.3313 136.0002,105.8995 C137.4184,108.3817 138.3375,111.1439 138.6924,113.981 C139.0718,117.0134 138.8611,120.1494 138.8611,123.1958 C138.8611,123.69 138.8611,124.1842 138.8611,124.6784 C139.6577,124.6742 140.4571,124.677 141.2362,124.4922 C142.2078,124.2612 143.1262,124.0218 144.1279,123.9343 C145.3641,123.8265 146.6066,123.8181 147.847,123.8181 C150.2613,123.8181 152.6749,123.8181 155.0892,123.8181 C159.9934,123.8181 164.8976,123.8181 169.8018,123.8181 C176.4819,123.8181 183.162,123.8181 189.8414,123.8181 C197.6058,123.8181 205.3702,123.8181 213.1346,123.8181 C221.2462,123.8181 229.3571,123.8181 237.4687,123.8181 C245.1855,123.8181 252.9016,123.8181 260.6184,123.8181 C267.2488,123.8181 273.8799,123.8181 280.5103,123.8181 C285.3508,123.8181 290.192,123.8181 295.0325,123.8181 C297.3418,123.8181 299.6511,123.8181 301.9611,123.8181 C302.0584,123.8181 302.1564,123.8181 302.2537,123.8181" id="Path"></path>
                    <path d="M302.253,123.8174 C303.9435,123.8279 305.6893,123.8132 307.3469,124.1912 C308.567,124.4698 309.5757,124.6721 310.8427,124.6784 C310.8427,118.9251 310.3422,113.1221 312.7663,107.7391 C314.9216,102.9532 318.8157,99.0493 323.5932,96.8765 C328.6206,94.5896 334.4446,94.3075 339.668,96.1037 C344.6443,97.8152 348.8905,101.3313 351.5001,105.8995 C352.9183,108.3817 353.8374,111.1439 354.1923,113.981 C354.5717,117.0134 354.361,120.1494 354.361,123.1958 C354.361,123.69 354.361,124.1842 354.361,124.6784 C355.5265,124.6721 356.4883,124.537 357.6083,124.2514 C359.0846,123.8748 360.6477,123.8426 362.1632,123.8223 C364.3717,123.7922 366.5823,123.8174 368.7908,123.8174 C373.6768,123.8174 378.5628,123.8174 383.4488,123.8174 C388.5798,123.8174 393.7108,123.8174 398.8418,123.8174 C401.5746,123.8174 404.3074,123.8174 407.0402,123.8174 C407.0808,123.8174 407.1214,123.8174 407.162,123.8174" id="Path"></path>
                    <path d="M387.4689,33.6392 C387.4794,34.5835 388.4195,34.5506 389.0978,34.5506 C391.6619,34.5506 394.2253,34.5506 396.7894,34.5506 C399.4396,34.5506 402.0905,34.5506 404.7407,34.5506 C405.4001,34.5506 406.3913,34.7291 406.6335,33.8926 C406.8022,33.3095 406.3633,32.5556 406.1932,32.0334 C405.8775,31.0646 405.5541,30.0986 405.2069,29.141 C404.8744,28.224 404.5237,27.3119 404.1373,26.4166 C403.9623,26.0106 403.8041,25.6368 403.3393,25.5248 C402.9298,25.4261 402.4321,25.5031 402.0184,25.5031 C400.7773,25.5031 399.5362,25.5031 398.2951,25.5031 C395.4503,25.5031 392.6048,25.5031 389.76,25.5031 C389.0369,25.5031 387.7503,25.2371 387.4969,26.1954 C387.3198,26.8639 387.4703,27.7298 387.4703,28.4095 C387.4703,29.8599 387.4703,31.3096 387.4703,32.7593 C387.4689,33.0519 387.4689,33.3459 387.4689,33.6392 Z" id="Path"></path>
                </g>
            </g>
        </g>
    </g>
</svg>