<?xml version="1.0" encoding="UTF-8"?>
<svg width="272px" height="497px" viewBox="0 0 272 497" version="1.1" xmlns="http://www.w3.org/2000/svg" xmlns:xlink="http://www.w3.org/1999/xlink">
    <!-- Generator: Sketch 63.1 (92452) - https://sketch.com -->
    <title>chassis</title>
    <desc>Created with Sketch.</desc>
    <defs>
        <rect id="path-1" x="0" y="0" width="54" height="19"></rect>
        <rect id="path-3" x="0" y="0" width="54" height="19"></rect>
    </defs>
    <g id="chassis" stroke="none" stroke-width="2" fill="none" fill-rule="evenodd">
        <g id="Group-2-Copy" transform="translate(1.000000, 1.000000)">
            <polygon id="Rectangle-Copy-6" stroke="#000000" fill="#D8D8D8" points="138 53 138 422 132 422 132 53"></polygon>
            <g id="Group-3" transform="translate(0.000000, 374.000000)">
                <g id="Group" transform="translate(108.000000, 38.000000)">
                    <mask id="mask-2" fill="white">
                        <use xlink:href="#path-1"></use>
                    </mask>
                    <g id="Rectangle"></g>
                    <circle id="Oval" stroke="#000000" fill="#D8D8D8" mask="url(#mask-2)" cx="27" cy="19" r="17"></circle>
                </g>
                <rect id="Rectangle-Copy-3" stroke="#000000" fill="#D8D8D8" x="34" y="57" width="202" height="7"></rect>
                <rect id="Rectangle" stroke="#000000" fill="#D8D8D8" x="0" y="0" width="34" height="121" rx="8"></rect>
                <rect id="Rectangle-Copy" stroke="#000000" fill="#D8D8D8" x="236" y="0" width="34" height="121" rx="8"></rect>
                <rect id="Rectangle" stroke="#000000" fill="#D8D8D8" x="34" y="57" width="76" height="7"></rect>
                <rect id="Rectangle-Copy-2" stroke="#000000" fill="#D8D8D8" x="160" y="57" width="76" height="7"></rect>
                <rect id="Rectangle" stroke="#000000" fill="#D8D8D8" x="35" y="48" width="5" height="26"></rect>
                <rect id="Rectangle-Copy-7" stroke="#000000" fill="#D8D8D8" x="230" y="48" width="5" height="26"></rect>
            </g>
            <g id="Group-3-Copy">
                <g id="Group" transform="translate(108.000000, 38.000000)">
                    <mask id="mask-4" fill="white">
                        <use xlink:href="#path-3"></use>
                    </mask>
                    <g id="Rectangle"></g>
                    <circle id="Oval" stroke="#000000" fill="#D8D8D8" mask="url(#mask-4)" cx="27" cy="19" r="17"></circle>
                </g>
                <rect id="Rectangle-Copy-3" stroke="#000000" fill="#D8D8D8" x="34" y="57" width="202" height="7"></rect>
                <rect id="Rectangle" stroke="#000000" fill="#D8D8D8" x="0" y="0" width="34" height="121" rx="8"></rect>
                <rect id="Rectangle-Copy" stroke="#000000" fill="#D8D8D8" x="236" y="0" width="34" height="121" rx="8"></rect>
                <rect id="Rectangle" stroke="#000000" fill="#D8D8D8" x="34" y="57" width="76" height="7"></rect>
                <rect id="Rectangle-Copy-2" stroke="#000000" fill="#D8D8D8" x="160" y="57" width="76" height="7"></rect>
                <rect id="Rectangle" stroke="#000000" fill="#D8D8D8" x="35" y="48" width="5" height="26"></rect>
                <rect id="Rectangle-Copy-7" stroke="#000000" fill="#D8D8D8" x="230" y="48" width="5" height="26"></rect>
            </g>
        </g>
    </g>
</svg>