<?xml version="1.0" encoding="UTF-8"?>
<svg width="151px" height="184px" viewBox="0 0 151 184" version="1.1" xmlns="http://www.w3.org/2000/svg" xmlns:xlink="http://www.w3.org/1999/xlink">
    <!-- Generator: Sketch 63.1 (92452) - https://sketch.com -->
    <title>engine_repair</title>
    <desc>Created with Sketch.</desc>
    <g id="engine_repair" stroke="none" stroke-width="1" fill="none" fill-rule="evenodd">
        <path d="M145.87223,74 L5.1277704,74 C3.62793014,74 3.06999737,74.1208177 2.51790745,74.4160786 C2.04290172,74.6701144 1.67011445,75.0429017 1.41607861,75.5179075 C1.12081769,76.0699974 1,76.6279301 1,78.1277704 L1,178.87223 C1,180.37207 1.12081769,180.930003 1.41607861,181.482093 C1.67011445,181.957098 2.04290172,182.329886 2.51790745,182.583921 C3.06999737,182.879182 3.62793014,183 5.1277704,183 L145.87223,183 C147.37207,183 147.930003,182.879182 148.482093,182.583921 C148.957098,182.329886 149.329886,181.957098 149.583921,181.482093 C149.879182,180.930003 150,180.37207 150,178.87223 L150,78.1277704 C150,76.6279301 149.879182,76.0699974 149.583921,75.5179075 C149.329886,75.0429017 148.957098,74.6701144 148.482093,74.4160786 C147.930003,74.1208177 147.37207,74 145.87223,74 Z" id="Rectangle-Copy-4" stroke="#000000" stroke-width="2" fill="#D8D8D8"></path>
    </g>
</svg>