<?xml version="1.0" encoding="UTF-8"?>
<svg width="151px" height="184px" viewBox="0 0 151 184" version="1.1" xmlns="http://www.w3.org/2000/svg" xmlns:xlink="http://www.w3.org/1999/xlink">
    <!-- Generator: Sketch 63.1 (92452) - https://sketch.com -->
    <title>engine_repair</title>
    <desc>Created with Sketch.</desc>
    <g id="engine_repair" stroke="none" stroke-width="1" fill="none" fill-rule="evenodd">
        <g id="Group-2-Copy" transform="translate(0.000000, 73.000000)" fill="#61A591" stroke="#000000">
            <path d="M5.1277704,-2.07168062e-16 L145.87223,2.07168062e-16 C147.655267,-1.2037061e-16 148.30184,0.185651222 148.953691,0.534265408 C149.605543,0.882879593 150.11712,1.39445674 150.465735,2.04630859 C150.814349,2.69816044 151,3.34473292 151,5.1277704 L151,105.87223 C151,107.655267 150.814349,108.30184 150.465735,108.953691 C150.11712,109.605543 149.605543,110.11712 148.953691,110.465735 C148.30184,110.814349 147.655267,111 145.87223,111 L5.1277704,111 C3.34473292,111 2.69816044,110.814349 2.04630859,110.465735 C1.39445674,110.11712 0.882879593,109.605543 0.534265408,108.953691 C0.185651222,108.30184 8.02470732e-17,107.655267 -1.38112041e-16,105.87223 L1.38112041e-16,5.1277704 C-8.02470732e-17,3.34473292 0.185651222,2.69816044 0.534265408,2.04630859 C0.882879593,1.39445674 1.39445674,0.882879593 2.04630859,0.534265408 C2.69816044,0.185651222 3.34473292,1.2037061e-16 5.1277704,-2.07168062e-16 Z" id="Rectangle-Copy-4"></path>
        </g>
    </g>
</svg>