<?xml version="1.0" encoding="UTF-8"?>
<svg width="12px" height="12px" viewBox="0 0 12 12" version="1.1" xmlns="http://www.w3.org/2000/svg" xmlns:xlink="http://www.w3.org/1999/xlink">
    <!-- Generator: Sketch 61.2 (89653) - https://sketch.com -->
    <title>Knob</title>
    <desc>Created with Sketch.</desc>
    <defs>
        <rect id="path-1" x="0" y="3" width="142" height="2" rx="1"></rect>
        <rect id="path-3" x="0" y="3" width="60" height="2" rx="1"></rect>
        <path d="M1,0 C1.55228475,-1.01453063e-16 2,0.44771525 2,1 C2,1.55228475 1.55228475,2 1,2 C0.44771525,2 1.51666685e-14,1.55228475 1.50990331e-14,1 C1.50313978e-14,0.44771525 0.44771525,1.01453063e-16 1,0 Z" id="path-5"></path>
        <path d="M6,0 C9.3137085,-6.08718376e-16 12,2.6862915 12,6 C12,9.3137085 9.3137085,12 6,12 C2.6862915,12 9.10000111e-14,9.3137085 9.05941988e-14,6 C9.01883866e-14,2.6862915 2.6862915,6.08718376e-16 6,0 Z" id="path-7"></path>
    </defs>
    <g id="Symbols" stroke="none" stroke-width="1" fill="none" fill-rule="evenodd">
        <g id="Slider-/-Discrete-/-Enabled" transform="translate(-53.000000, -18.000000)">
            <g id="Slider-/-Elements-/-Track" opacity="0.379999995" transform="translate(0.000000, 20.000000)">
                <mask id="mask-2" fill="white">
                    <use xlink:href="#path-1"></use>
                </mask>
                <use id="Surface" fill="#FAFAFA" fill-rule="evenodd" xlink:href="#path-1"></use>
                <g id="✱-/-Color-/-Secondary-/-Main" opacity="0.38" mask="url(#mask-2)" fill-rule="evenodd">
                    <g transform="translate(0.000000, 3.000000)" id="✱-/-Color-/-Secondary-/-700">
                        <g>
                            <rect id="Rectangle-13" fill="#3D0EEE" x="0" y="0" width="142" height="2"></rect>
                        </g>
                    </g>
                </g>
            </g>
            <g id="Slider-/-Elements-/-Highlight" transform="translate(0.000000, 20.000000)">
                <mask id="mask-4" fill="white">
                    <use xlink:href="#path-3"></use>
                </mask>
                <use id="Surface" fill="#FAFAFA" fill-rule="evenodd" xlink:href="#path-3"></use>
                <g id="✱-/-Color-/-Secondary-/-Main" mask="url(#mask-4)" fill-rule="evenodd">
                    <g transform="translate(0.000000, 3.000000)" id="✱-/-Color-/-Secondary-/-700">
                        <g>
                            <rect id="Rectangle-13" fill="#3D0EEE" x="0" y="0" width="60" height="2"></rect>
                        </g>
                    </g>
                </g>
            </g>
            <g id="Ticks" transform="translate(0.000000, 23.000000)" opacity="0.379999995">
                <g id="Slider-/-Elements-/-Tick" transform="translate(56.000000, 0.000000)">
                    <mask id="mask-6" fill="white">
                        <use xlink:href="#path-5"></use>
                    </mask>
                    <use id="Surface" fill="#FAFAFA" fill-rule="evenodd" xlink:href="#path-5"></use>
                    <g id="✱-/-Color-/-Secondary-/-700" mask="url(#mask-6)" fill="#3D0EEE" fill-rule="evenodd">
                        <rect id="Rectangle-13" x="0" y="0" width="2" height="2"></rect>
                    </g>
                </g>
            </g>
            <g id="Slider-/-Elements-/-Knob" transform="translate(53.000000, 18.000000)">
                <mask id="mask-8" fill="white">
                    <use xlink:href="#path-7"></use>
                </mask>
                <use id="Surface" fill="#FAFAFA" fill-rule="evenodd" xlink:href="#path-7"></use>
                <g id="✱-/-Color-/-Secondary-/-Main" mask="url(#mask-8)" fill="#3D0EEE" fill-rule="evenodd">
                    <g id="✱-/-Color-/-Secondary-/-700">
                        <rect id="Rectangle-13" x="0" y="0" width="12" height="12"></rect>
                    </g>
                </g>
            </g>
        </g>
    </g>
</svg>