<?xml version="1.0" encoding="UTF-8"?>
<svg width="18px" height="18px" viewBox="0 0 18 18" version="1.1" xmlns="http://www.w3.org/2000/svg" xmlns:xlink="http://www.w3.org/1999/xlink">
    <defs>
        <rect id="path-1" x="0" y="1" width="1720" height="1135" rx="28"></rect>
        <rect id="path-3" x="0" y="0" width="1463" height="984"></rect>
        <path d="M19,3 L5,3 C3.89,3 3,3.9 3,5 L3,19 C3,20.1 3.89,21 5,21 L19,21 C20.11,21 21,20.1 21,19 L21,5 C21,3.9 20.11,3 19,3 Z M10,17 L5,12 L6.41,10.59 L10,14.17 L17.59,6.58 L19,8 L10,17 Z" id="path-5"></path>
    </defs>
    <g id="WebApp" stroke="none" stroke-width="1" fill="none" fill-rule="evenodd">
        <g id="Artboard-Copy-17" transform="translate(-289.000000, -973.000000)">
            <rect fill="#4F4F4F" x="0" y="0" width="1720" height="1137"></rect>
            <mask id="mask-2" fill="white">
                <use xlink:href="#path-1"></use>
            </mask>
            <use id="Rectangle" stroke="#979797" fill="#FFFFFF" xlink:href="#path-1"></use>
            <g id="Group-4" mask="url(#mask-2)">
                <g transform="translate(257.000000, 154.000000)">
                    <mask id="mask-4" fill="white">
                        <use xlink:href="#path-3"></use>
                    </mask>
                    <use id="Rectangle" stroke="none" fill="#FFFFFF" fill-rule="evenodd" xlink:href="#path-3"></use>
                </g>
            </g>
            <g id="Group-2-Copy" mask="url(#mask-2)">
                <g transform="translate(286.000000, 766.000000)" id="Icon-/-Toggle-/-Checkbox-/-Filled">
                    <g transform="translate(0.000000, 204.000000)">
                        <mask id="mask-6" fill="white">
                            <use xlink:href="#path-5"></use>
                        </mask>
                        <g id="ic_check_box_24px" fill-rule="nonzero"></g>
                        <g id="Pallete5/A-Copy" mask="url(#mask-6)" fill="#7269F0" fill-rule="evenodd">
                            <rect id="Rectangle" x="0" y="0" width="24" height="24"></rect>
                        </g>
                    </g>
                </g>
            </g>
        </g>
    </g>
</svg>