<?xml version="1.0" encoding="UTF-8"?>
<svg width="24px" height="24px" viewBox="0 0 24 24" version="1.1" xmlns="http://www.w3.org/2000/svg" xmlns:xlink="http://www.w3.org/1999/xlink">
    <defs>
        <path d="M19,2 C20.1,2 21,2.9 21,4 L21,4 L21,18 C21,19.1 20.1,20 19,20 L19,20 L15,20 L12,23 L9,20 L5,20 C3.89,20 3,19.1 3,18 L3,18 L3,4 C3,2.9 3.89,2 5,2 L5,2 Z M12,5 L6.11764706,10.2941176 L7.88235294,10.2941176 L7.88235294,15 L10.8235294,15 L10.8235294,11.4705882 L13.1764706,11.4705882 L13.1764706,15 L16.1176471,15 L16.1176471,10.2941176 L17.8823529,10.2941176 L12,5 Z" id="path-1"></path>
    </defs>
    <g id="icon/maps/home_pin_24px" stroke="none" stroke-width="1" fill="none" fill-rule="evenodd">
        <mask id="mask-2" fill="white">
            <use xlink:href="#path-1"></use>
        </mask>
        <g id="icon/maps/person_pin_24px" fill-rule="nonzero"></g>
        <g id="✱-/-Color-/-Icons-/-Black-/-Inactive" mask="url(#mask-2)" fill="#000000"  >
            <rect id="Rectangle" x="0" y="0" width="24" height="24"></rect>
        </g>
    </g>
</svg>