<?xml version="1.0" encoding="UTF-8"?>
<svg width="506px" height="286px" viewBox="0 0 506 286" version="1.1" xmlns="http://www.w3.org/2000/svg" xmlns:xlink="http://www.w3.org/1999/xlink">
    <!-- Generator: Sketch 63.1 (92452) - https://sketch.com -->
    <title>Artboard Copy 2</title>
    <desc>Created with Sketch.</desc>
    <defs>
        <linearGradient x1="50%" y1="0%" x2="50%" y2="100%" id="linearGradient-1">
            <stop stop-color="#189E7D" offset="0%"></stop>
            <stop stop-color="#5C63AB" offset="100%"></stop>
        </linearGradient>
    </defs>
    <g id="Artboard-Copy-2" stroke="none" stroke-width="1" fill="none" fill-rule="evenodd">
        <g id="Group" transform="translate(1.000000, 1.000000)" stroke="#594FEE" stroke-linecap="round" stroke-linejoin="round" stroke-width="1.26">
            <polygon id="Rectangle-Copy-3" fill="#FFFFFF" points="495.5 74.5 329 150.5 324 249 487 167"></polygon>
            <polygon id="Rectangle-Copy-5" fill="#EDEDED" points="495.5 168.5 503.5 76 495.5 74.5 487 167"></polygon>
            <polygon id="Rectangle-Copy-2" fill="#FFFFFF" points="2 61 337 152 503.5 76 186 0"></polygon>
            <polygon id="Rectangle-Copy-7" fill="#FFFFFF" points="142 57.9802632 276.267198 94.5 343 64 215.74676 33.5"></polygon>
            <polygon id="Rectangle-Copy" points="503.5 76 337 152 331 251.5 495 168.5"></polygon>
            <polygon id="Rectangle-Copy-4" fill="#EDEDED" points="495.5 168.5 331 251.5 324 249 346.000714 237.932156 487 167"></polygon>
            <polygon id="Rectangle" fill="#FFFFFF" points="2 61 337 152 331 251.5 0 154.5"></polygon>
        </g>
        <path d="M248.801887,199.888641 C249.924528,200.222564 250.603774,199.528051 250.603774,198.016903 C250.603774,196.49942 249.915094,195.413865 248.801887,195.082748 C247.685535,194.750696 247,195.427499 247,196.941814 C247,198.459298 247.679245,199.554718 248.801887,199.888641 Z M248.801887,199.109307 C248.283019,198.954973 247.962264,198.295658 247.962264,197.228034 C247.962264,196.166746 248.286164,195.711852 248.801887,195.86525 C249.320755,196.019585 249.641509,196.663059 249.641509,197.727516 C249.641509,198.798308 249.323899,199.264577 248.801887,199.109307 Z M253.512579,201.172592 L253.512579,196.601133 L252.566038,196.31959 L251.393082,196.784883 L251.393082,197.675098 L252.506289,197.233217 L252.562893,197.250053 L252.562893,200.890113 L253.512579,201.172592 Z M258.044025,202.520444 L258.044025,201.72527 L256.056604,201.134123 L256.056604,201.077098 L256.924528,200.502067 C257.710692,199.991421 257.977987,199.643243 257.977987,199.145863 C257.977987,198.360193 257.31761,197.6157 256.371069,197.334157 C255.389937,197.042325 254.716981,197.444083 254.716981,198.327962 L254.716981,198.343802 L255.597484,198.605702 L255.597484,198.586694 C255.597484,198.165347 255.899371,197.963683 256.339623,198.094633 C256.754717,198.218101 257.050314,198.565802 257.050314,198.933293 C257.050314,199.231087 256.889937,199.420986 256.251572,199.858377 L254.77044,200.878282 L254.77044,201.546735 L258.044025,202.520444 Z M260.591195,203.395301 C261.625786,203.703034 262.374214,203.345901 262.374214,202.544391 C262.374214,201.942466 261.984277,201.408303 261.361635,201.153405 L261.361635,201.096381 C261.867925,201.142429 262.198113,200.828798 262.198113,200.299738 C262.198113,199.580597 261.528302,198.868145 260.597484,198.591279 C259.606918,198.296641 258.968553,198.651663 258.937107,199.50718 L259.814465,199.768146 C259.839623,199.379625 260.132075,199.21634 260.572327,199.34729 C261.015723,199.479176 261.298742,199.797792 261.298742,200.165283 C261.298742,200.539109 261.006289,200.705563 260.575472,200.577419 L260.022013,200.412796 L260.022013,201.125601 L260.584906,201.29303 C261.09434,201.444558 261.40566,201.784265 261.40566,202.183436 C261.40566,202.573103 261.075472,202.744172 260.600629,202.602933 C260.113208,202.457953 259.789308,202.117673 259.761006,201.722756 L258.852201,201.452437 C258.893082,202.326299 259.578616,203.094116 260.591195,203.395301 Z M266.248428,204.960795 L266.248428,204.162453 L266.842767,204.339235 L266.842767,203.544061 L266.248428,203.367278 L266.248428,200.389336 L264.918239,199.993679 C264.122642,200.96405 263.531447,201.732274 263.122642,202.386843 L263.122642,203.232706 L265.342767,203.893069 L265.342767,204.691411 L266.248428,204.960795 Z M265.36478,203.132955 L263.974843,202.719526 L263.974843,202.668838 C264.493711,201.875933 264.899371,201.356653 265.314465,200.85602 L265.36478,200.870985 L265.36478,203.132955 Z M269.371069,206.006823 C270.41195,206.316427 271.106918,205.861024 271.106918,204.891608 C271.106918,203.995057 270.496855,203.176825 269.63522,202.920537 C269.185535,202.78678 268.86478,202.859279 268.672956,203.081008 L268.616352,203.064172 L268.716981,201.918766 L270.833333,202.548263 L270.833333,201.753089 L267.981132,200.904718 L267.754717,203.489009 L268.603774,203.741556 C268.761006,203.531714 269.028302,203.455986 269.380503,203.560746 C269.861635,203.703856 270.201258,204.140685 270.201258,204.644401 C270.201258,205.141781 269.86478,205.371172 269.377358,205.226192 C268.946541,205.098047 268.613208,204.745457 268.559748,204.349393 L267.68239,204.088428 C267.710692,204.914197 268.383648,205.71312 269.371069,206.006823 Z M273.742138,207.306971 C274.757862,207.609092 275.477987,207.1485 275.477987,206.198093 C275.477987,205.323718 274.845912,204.492602 273.984277,204.236314 C273.455975,204.079174 273.034591,204.197773 272.827044,204.566891 L272.77044,204.550055 C272.751572,203.597203 273.128931,203.104354 273.751572,203.289555 C274.106918,203.39525 274.389937,203.669514 274.477987,203.996666 L275.418239,204.276339 C275.289308,203.474495 274.619497,202.762044 273.757862,202.505755 C272.575472,202.15406 271.86478,202.861396 271.86478,204.37888 C271.86478,205.006149 271.993711,205.570391 272.245283,206.034886 C272.556604,206.662883 273.084906,207.111481 273.742138,207.306971 Z M273.732704,206.518495 C273.267296,206.380062 272.91195,205.919548 272.91195,205.453848 C272.91195,204.997653 273.261006,204.759331 273.735849,204.90057 C274.210692,205.041809 274.556604,205.486846 274.556604,205.952545 C274.556604,206.411909 274.198113,206.656928 273.732704,206.518495 Z M277.531447,208.316862 L279.427673,205.104598 L279.427673,204.306256 L276.18239,203.340966 L276.18239,204.129804 L278.471698,204.810745 L278.471698,204.867769 L276.537736,208.021288 L277.531447,208.316862 Z M281.927673,209.74171 C283.018868,210.06628 283.764151,209.74306 283.764151,208.941549 C283.764151,208.358633 283.36478,207.777311 282.761006,207.483673 L282.761006,207.426649 C283.257862,207.457218 283.578616,207.162958 283.578616,206.675082 C283.578616,205.946437 282.893082,205.222972 281.930818,204.936753 C280.965409,204.649598 280.279874,204.965245 280.279874,205.693891 C280.279874,206.178599 280.603774,206.670944 281.097484,206.931844 L281.097484,206.988868 C280.490566,206.944569 280.097484,207.287013 280.097484,207.860425 C280.097484,208.655599 280.836478,209.417141 281.927673,209.74171 Z M281.927673,206.90316 C281.509434,206.778758 281.216981,206.431991 281.216981,206.064501 C281.216981,205.693842 281.506289,205.520117 281.927673,205.645455 C282.349057,205.770793 282.641509,206.117559 282.641509,206.488218 C282.641509,206.855709 282.349057,207.028499 281.927673,206.90316 Z M281.927673,209.019401 C281.430818,208.871614 281.084906,208.480434 281.084906,208.065423 C281.084906,207.647244 281.430818,207.461843 281.927673,207.60963 C282.427673,207.758352 282.773585,208.149532 282.773585,208.567711 C282.773585,208.982722 282.427673,209.168123 281.927673,209.019401 Z M286.267296,211.032505 C287.449686,211.3842 288.160377,210.676864 288.160377,209.156213 C288.160377,208.532112 288.031447,207.96787 287.779874,207.500206 C287.465409,206.871274 286.937107,206.425844 286.283019,206.231289 C285.267296,205.929168 284.54717,206.38976 284.54717,207.340168 C284.54717,208.214542 285.179245,209.04249 286.040881,209.298779 C286.569182,209.455919 286.990566,209.337319 287.198113,208.968202 L287.254717,208.985038 C287.273585,209.941057 286.896226,210.433907 286.273585,210.248706 C285.918239,210.14301 285.63522,209.868747 285.54717,209.541594 L284.606918,209.261922 C284.735849,210.060598 285.40566,210.776217 286.267296,211.032505 Z M286.289308,208.634522 C285.814465,208.493283 285.468553,208.051415 285.468553,207.582548 C285.468553,207.126352 285.827044,206.878164 286.292453,207.016597 C286.757862,207.15503 287.113208,207.618713 287.113208,208.081244 C287.113208,208.540608 286.764151,208.775762 286.289308,208.634522 Z M290.757862,212.368198 C291.880503,212.702121 292.559748,212.007607 292.559748,210.49646 C292.559748,208.978976 291.871069,207.893422 290.757862,207.562305 C289.641509,207.230252 288.955975,207.907055 288.955975,209.42137 C288.955975,210.938854 289.63522,212.034275 290.757862,212.368198 Z M290.757862,211.588864 C290.238994,211.434529 289.918239,210.775214 289.918239,209.70759 C289.918239,208.646302 290.242138,208.191408 290.757862,208.344807 C291.27673,208.499141 291.597484,209.142616 291.597484,210.207072 C291.597484,211.277864 291.279874,211.744133 290.757862,211.588864 Z M295.468553,213.652148 L295.468553,209.080689 L294.522013,208.799146 L293.349057,209.264439 L293.349057,210.154654 L294.462264,209.712773 L294.518868,209.72961 L294.518868,213.36967 L295.468553,213.652148 Z M300,215 L300,214.204826 L298.012579,213.613679 L298.012579,213.556655 L298.880503,212.981623 C299.666667,212.470977 299.933962,212.1228 299.933962,211.62542 C299.933962,210.83975 299.273585,210.095256 298.327044,209.813713 C297.345912,209.521881 296.672956,209.923639 296.672956,210.807518 L296.672956,210.823358 L297.553459,211.085258 L297.553459,211.06625 C297.553459,210.644903 297.855346,210.443239 298.295597,210.574189 C298.710692,210.697657 299.006289,211.045359 299.006289,211.412849 C299.006289,211.710644 298.845912,211.900542 298.207547,212.337933 L296.726415,213.357838 L296.726415,214.026292 L300,215 Z" id="0123456789012" fill="#594FEE" fill-rule="nonzero"></path>
        <path d="M270.122849,171.034923 L270.061424,172.969041 L268.122849,172.42254 L268.184273,170.488422 L270.122849,171.034923 Z M270,174.903159 L269.570029,188.441983 L256,184.616474 L256.429971,171.077649 L270,174.903159 Z M275.631453,182.345016 L275.570029,184.279134 L273.631453,183.732633 L273.692878,181.798515 L275.631453,182.345016 Z M270.859942,147.82551 L270.429971,161.364334 L256.859942,157.538825 L257.289914,144 L270.859942,147.82551 Z M298,155.476529 L297.570029,169.015354 L284,165.189844 L284.429971,151.651019 L298,155.476529 Z M268.859942,149.213126 L268.55282,158.883715 L258.859942,156.151208 L259.167065,146.480619 L268.859942,149.213126 Z M266.859942,150.600743 L261.044216,148.961238 L260.859942,154.763592 L266.675669,156.403096 L266.859942,150.600743 Z M296,156.864145 L295.692878,166.534734 L286,163.802228 L286.307122,154.131639 L296,156.864145 Z M294,158.251762 L288.184273,156.612258 L288,162.414611 L293.815727,164.054115 L294,158.251762 Z M287.385755,181.755789 L287.324331,183.689907 L287.323549,183.688873 L287.262906,185.624025 L285.324331,185.077523 L285.262906,187.011641 L283.323549,186.464106 L283.201482,190.333375 L281.262932,189.786068 L281.201482,191.720992 L279.262906,191.17449 L279.324331,189.240373 L277.385755,188.693871 L277.324331,190.627989 L275.385755,190.081488 L275.446372,188.147142 L273.508604,187.600868 L273.44718,189.534986 L271.508604,188.988485 L271.631453,185.120249 L275.508604,186.213252 L275.570029,184.279134 L277.508604,184.825636 L277.631453,180.9574 L279.570029,181.503901 L279.508604,183.438019 L281.446398,183.983487 L281.508604,182.050403 L283.44718,182.596904 L283.384948,184.530794 L285.324331,185.077523 L285.384973,183.142372 L283.44718,182.596904 L283.508604,180.662786 L287.385755,181.755789 Z M291.201482,184.78291 L291.078633,188.651145 L289.140058,188.104644 L289.078633,190.038762 L287.140058,189.49226 L287.078633,191.426378 L287.017209,193.360496 L285.078633,192.813994 L285.13925,190.879649 L283.201482,190.333375 L283.262906,188.399257 L285.201482,188.945759 L285.262906,187.011641 L287.201482,187.558142 L287.262906,185.624025 L289.201482,186.170526 L289.262906,184.236408 L291.201482,184.78291 Z M292.955784,191.131764 L292.832935,195 L290.89436,194.453499 L288.955784,193.906997 L289.017209,191.972879 L290.955784,192.519381 L291.017209,190.585263 L292.955784,191.131764 Z M268,176.290775 L267.692878,185.961364 L258,183.228857 L258.307122,173.558268 L268,176.290775 Z M294.955784,189.744148 L296.89436,190.290649 L296.832935,192.224767 L294.89436,191.678266 L294.832935,193.612384 L292.89436,193.065882 L293.017209,189.197647 L294.955784,189.744148 Z M266,177.678392 L260.184273,176.038888 L260,181.841241 L265.815727,183.480745 L266,177.678392 Z M280.061424,166.030959 L280,167.965077 L283.877151,169.05808 L283.815727,170.992197 L281.877151,170.445696 L281.815727,172.379814 L283.754302,172.926315 L283.631453,176.794551 L281.692878,176.248049 L281.631453,178.182167 L279.692878,177.635666 L279.754302,175.701548 L277.814919,175.154819 L277.753494,177.088937 L279.692878,177.635666 L279.631453,179.569784 L277.692878,179.023282 L277.570029,182.891518 L275.631453,182.345016 L275.754302,178.476781 L273.815727,177.930279 L273.754302,179.864397 L271.815727,179.317896 L271.877151,177.383778 L271.938576,175.44966 L275.815727,176.542663 L275.876343,174.608317 L273.938576,174.062044 L273.877151,175.996162 L271.938576,175.44966 L272.122849,169.647307 L270.184273,169.100805 L268.245698,168.554304 L268.307122,166.620186 L270.244916,167.165654 L270.307122,165.23257 L266.429971,164.139567 L266.491396,162.205449 L272.307122,163.844953 L272.245698,165.779071 L274.184273,166.325573 L274.122849,168.25969 L278,169.352693 L278.122849,165.484458 L280.061424,166.030959 Z M297.324331,176.751825 L297.201482,180.62006 L295.262906,180.073559 L295.201482,182.007677 L297.140058,182.554178 L297.078633,184.488296 L295.140058,183.941795 L295.078633,185.875912 L293.140058,185.329411 L293.262906,181.461175 L293.140058,185.329411 L291.201482,184.78291 L291.324331,180.914674 L291.385755,178.980556 L295.262906,180.073559 L295.385755,176.205323 L297.324331,176.751825 Z M283.570029,178.728669 L283.508604,180.662786 L281.570029,180.116285 L281.631453,178.182167 L283.570029,178.728669 Z M285.692878,173.472816 L285.631453,175.406934 L287.570029,175.953436 L291.44718,177.046438 L291.324331,180.914674 L287.44718,179.821671 L287.508604,177.887553 L283.631453,176.794551 L283.754302,172.926315 L285.692878,173.472816 Z M258.614245,163.887679 L258.55282,165.821797 L260.491396,166.368299 L260.429163,168.302189 L266.245698,169.94192 L266.184273,171.876038 L258.429971,169.690033 L258.491396,167.755915 L256.55282,167.209414 L256.675669,163.341178 L258.614245,163.887679 Z M278,169.352693 L277.938576,171.286811 L274.061424,170.193808 L274,172.127926 L277.877151,173.220929 L277.938576,171.286811 L279.877151,171.833312 L279.938576,169.899195 L278,169.352693 Z M258.737094,160.019444 L260.675669,160.565945 L260.614245,162.500063 L264.491396,163.593066 L264.429971,165.527184 L262.490588,164.980454 L262.429971,166.9148 L260.491396,166.368299 L260.55282,164.434181 L260.614245,162.500063 L258.674861,161.953334 L258.614245,163.887679 L256.675669,163.341178 L256.798518,159.472942 L258.737094,160.019444 Z M291.692878,169.309967 L291.630646,171.243857 L293.570029,171.790586 L293.508604,173.724704 L289.631453,172.631701 L287.692878,172.0852 L287.631453,174.019318 L283.754302,172.926315 L283.815727,170.992197 L287.692878,172.0852 L287.815727,168.216964 L291.692878,169.309967 Z M268.307122,166.620186 L268.245698,168.554304 L264.368547,167.461301 L264.429971,165.527184 L268.307122,166.620186 Z M297.44718,172.883589 L297.385755,174.817707 L295.44718,174.271206 L295.508604,172.337088 L297.44718,172.883589 Z M282.122849,162.709225 L282.061424,164.643343 L280.122849,164.096841 L280.184273,162.162723 L282.122849,162.709225 Z M274.307122,162.457337 L272.368547,161.910836 L272.429971,159.976718 L274.368547,160.523219 L274.429971,158.589101 L272.491396,158.0426 L272.614245,154.174364 L274.55282,154.720866 L274.491396,156.654984 L276.429971,157.201485 L276.614245,151.399132 L278.55282,151.945633 L278.490588,153.879523 L280.429971,154.426252 L280.55282,150.558017 L282.491396,151.104518 L282.184273,160.775107 L280.245698,160.228606 L280.184273,162.162723 L278.245698,161.616222 L278.307122,159.682104 L280.245698,160.228606 L280.368547,156.36037 L278.429189,155.812835 L278.368547,157.747986 L276.429971,157.201485 L276.307122,161.069721 L278.245698,161.616222 L278.184273,163.55034 L276.245698,163.003838 L276.307122,161.069721 L274.368547,160.523219 L274.307122,162.457337 Z" id="Rectangle-Copy-90" fill="#594FEE"></path>
        <path id="Line" d="M275,239 L285.667865,263.621061 L275.266103,263.050204 C271.22413,276.4808 260.596644,285.808984 248.324501,285.997103 L247.936418,286 L239.999209,285.996862 L237.999209,285.996071 L238.000791,281.996071 L240.000791,281.996862 L247.937999,282 C258.199949,282.004054 267.343677,274.297254 271.143056,262.824516 L261.70387,262.306929 L275,239 Z" fill="url(#linearGradient-1)" fill-rule="nonzero"></path>
    </g>
</svg>