<?xml version="1.0" encoding="UTF-8"?>
<svg width="22px" height="14px" viewBox="0 0 22 14" version="1.1" xmlns="http://www.w3.org/2000/svg" xmlns:xlink="http://www.w3.org/1999/xlink">
    <!-- Generator: Sketch 61.2 (89653) - https://sketch.com -->
    <title>icon/action/settings_24px copy 9</title>
    <desc>Created with Sketch.</desc>
    <defs>
        <rect id="path-1" x="0" y="1" width="1720" height="1135" rx="28"></rect>
        <path d="M17,5 L3,5 C1.9,5 1,5.89 1,7 L1,16 L3,16 C3,17.66 4.34,19 6,19 C7.66,19 9,17.66 9,16 L15,16 C15,17.66 16.34,19 18,19 C19.66,19 21,17.66 21,16 L23,16 L23,11 L17,5 Z M15,7 L16,7 L19,10 L15,10 L15,7 Z M9,7 L13,7 L13,10 L9,10 L9,7 Z M3,7 L7,7 L7,10 L3,10 L3,7 Z M6,17.25 C5.31,17.25 4.75,16.69 4.75,16 C4.75,15.31 5.31,14.75 6,14.75 C6.69,14.75 7.25,15.31 7.25,16 C7.25,16.69 6.69,17.25 6,17.25 Z M18,17.25 C17.31,17.25 16.75,16.69 16.75,16 C16.75,15.31 17.31,14.75 18,14.75 C18.69,14.75 19.25,15.31 19.25,16 C19.25,16.69 18.69,17.25 18,17.25 Z M21,14 L20.22,14 C19.67,13.39 18.88,13 18,13 C17.12,13 16.33,13.39 15.78,14 L8.22,14 C7.67,13.39 6.89,13 6,13 C5.11,13 4.33,13.39 3.78,14 L3,14 L3,12 L21,12 L21,14 Z" id="path-3"></path>
    </defs>
    <g id="WebApp" stroke="none" stroke-width="1" fill="none" fill-rule="evenodd">
        <g id="Artboard-Copy-19" transform="translate(-39.000000, -352.000000)">
            <mask id="mask-2" fill="white">
                <use xlink:href="#path-1"></use>
            </mask>
            <g id="Group-3" mask="url(#mask-2)">
                <g transform="translate(1.000000, 205.000000)" id="icon/places/airport_shuttle_24px">
                    <g transform="translate(37.000000, 142.000000)">
                        <mask id="mask-4" fill="white">
                            <use xlink:href="#path-3"></use>
                        </mask>
                        <g fill-rule="nonzero"></g>
                        <g id="*" mask="url(#mask-4)" fill="#000000" fill-rule="evenodd">
                            <rect id="Rectangle" x="0" y="0" width="24" height="24"></rect>
                        </g>
                    </g>
                </g>
            </g>
        </g>
    </g>
</svg>