<?xml version="1.0" encoding="UTF-8"?>
<svg width="24px" height="24px" viewBox="0 0 24 24" version="1.1" xmlns="http://www.w3.org/2000/svg" xmlns:xlink="http://www.w3.org/1999/xlink">
    <!-- Generator: Sketch 63.1 (92452) - https://sketch.com -->
    <title>icon/action/stearing_wheel_24px_sharp</title>
    <desc>Created with Sketch.</desc>
    <defs>
        <path d="M12,2 C17.5228475,2 22,6.4771525 22,12 C22,17.5228475 17.5228475,22 12,22 C6.4771525,22 2,17.5228475 2,12 C2,6.4771525 6.4771525,2 12,2 Z M3.9047619,12 C3.9047619,16.1571579 7.01915405,19.5705804 11.0478064,20.0401355 L11.046857,14.1825032 C10.206357,13.8149214 9.61904762,12.9760475 9.61904762,12 C9.61904762,11.8989807 9.62533883,11.7994307 9.63755082,11.7017206 L4.65476587,8.58575334 C4.17333538,9.62255431 3.9047619,10.7792087 3.9047619,12 Z M19.4893313,8.9151536 L14.3784873,12.1093189 C14.3365028,13.0383626 13.7620924,13.8287197 12.953143,14.1825032 L12.9521936,20.0401355 C16.980846,19.5705804 20.0952381,16.1571579 20.0952381,12 C20.0952381,10.9069732 19.8799392,9.86536105 19.4893313,8.9151536 Z M12,3.9047619 C9.42533964,3.9047619 7.13595534,5.09935539 5.65450678,6.96588268 L10.6127306,10.0647278 C11.0033555,9.78421799 11.482389,9.61904762 12,9.61904762 C12.6515586,9.61904762 13.2419899,9.88076467 13.6719026,10.3048075 L18.560298,7.24905824 C17.0908744,5.22103199 14.7026038,3.9047619 12,3.9047619 Z" id="path-1"></path>
    </defs>
    <g id="icon/action/stearing_wheel_24px" stroke="none" stroke-width="1" fill="none" fill-rule="evenodd">
        <mask id="mask-2" fill="white">
            <use xlink:href="#path-1"></use>
        </mask>
        <g id="icon/action/search_24px" fill-rule="nonzero"></g>
        <g id="✱-/-Color-/-Icons-/-Black-/-Inactive" mask="url(#mask-2)" fill="#000000">
            <rect id="Rectangle" x="0" y="0" width="24" height="24"></rect>
        </g>
    </g>
</svg>