<?xml version="1.0" encoding="UTF-8"?>
<svg width="264px" height="264px" viewBox="0 0 264 264" version="1.1" xmlns="http://www.w3.org/2000/svg" xmlns:xlink="http://www.w3.org/1999/xlink">
    <!-- Generator: Sketch 63.1 (92452) - https://sketch.com -->
    <title>NW</title>
    <desc>Created with Sketch.</desc>
    <defs>
        <filter x="-26.7%" y="-77.2%" width="153.4%" height="253.1%" filterUnits="objectBoundingBox" id="filter-1">
            <feOffset dx="0" dy="1" in="SourceAlpha" result="shadowOffsetOuter1"></feOffset>
            <feGaussianBlur stdDeviation="15" in="shadowOffsetOuter1" result="shadowBlurOuter1"></feGaussianBlur>
            <feColorMatrix values="0 0 0 0 0   0 0 0 0 0   0 0 0 0 0  0 0 0 0.202660621 0" type="matrix" in="shadowBlurOuter1" result="shadowMatrixOuter1"></feColorMatrix>
            <feMerge>
                <feMergeNode in="shadowMatrixOuter1"></feMergeNode>
                <feMergeNode in="SourceGraphic"></feMergeNode>
            </feMerge>
        </filter>
        <path d="M25.4874411,56.0574199 C25.6178511,57.2456899 25.4258811,58.5416899 24.4001511,59.2925599 C23.9022711,59.6570599 23.2969311,59.8476799 22.6934811,59.9456899 C21.8289411,60.0863599 20.9419911,60.1271299 20.0690811,60.1986799 C18.1121211,60.3587899 16.1527311,60.5032399 14.1890211,60.5488699 C12.4450911,60.5890999 10.6450011,60.5971999 8.93509109,60.2078599 C7.40851109,59.8603699 5.85061109,59.1859099 4.70230109,58.0996999 C3.56155109,57.0205099 2.81851109,55.5757399 2.32846109,54.1009999 C1.75066109,52.3624699 1.43557109,50.5324099 1.17826109,48.7225999 C0.910961089,46.8439399 0.699281089,44.9569099 0.539981089,43.0660999 C0.383111089,41.2052599 0.256481089,39.3409099 0.174131089,37.4752099 C0.0888110892,35.5393099 0.0234710892,33.6028699 0.00538108919,31.6650799 C-0.0127089108,29.7421399 0.0164510892,27.8205499 0.0682910892,25.8981499 C0.120941089,23.9438899 0.227321089,21.9934099 0.345851089,20.0421199 C0.457901089,18.1990999 0.634211089,16.3585099 0.835361089,14.5235899 C1.03570109,12.6959599 1.28437109,10.8658999 1.65427109,9.06418991 C2.00743109,7.34455991 2.47615109,5.60602991 3.40414109,4.09834991 C4.18417109,2.83096991 5.23474109,1.84708991 6.57637109,1.19476991 C8.13346109,0.437419906 9.79153109,0.122329906 11.5103511,0.0386299058 C13.4281611,-0.0547900942 15.3535311,0.0359299058 17.2681011,0.154459906 C18.2463111,0.215209906 19.2231711,0.296209906 20.2000311,0.376129906 C21.0543111,0.446059906 21.9266811,0.482239906 22.7715111,0.631549906 C23.9279211,0.835939906 24.9776811,1.44019991 25.3535211,2.60902991 C25.5492711,3.21841991 25.5568311,3.87559991 25.4877111,4.50658991" id="path-2"></path>
        <polygon id="path-4" points="0 0 32 0 32 48 5 60 1.5 53.5 0 40"></polygon>
    </defs>
    <g id="NW" stroke="none" stroke-width="1" fill="none" fill-rule="evenodd">
        <g filter="url(#filter-1)" transform="translate(132.000000, 132.500000) rotate(45.000000) translate(-132.000000, -132.500000) translate(15.000000, 92.000000)">
            <path d="M14.2636792,73.1864285 C12.1277092,73.1769785 9.94151918,73.2096485 7.83065918,72.8381285 C6.03380918,72.5216885 4.23020918,71.6077385 3.11321918,70.1327285 C1.90199918,68.5329785 1.66385918,66.3624485 1.38602918,64.4357285 C1.08173918,62.3245985 0.86735918,60.1975385 0.69077918,58.0720985 C0.49745918,55.7430785 0.35894918,53.4129785 0.23717918,51.0790985 C0.12080918,48.8505185 0.0835491797,46.6178885 0.0344091797,44.3871485 C-0.0123008203,42.2679185 -0.00231082031,40.1470685 0.0130791797,38.0275685 C0.0284691797,35.9042885 0.0624891797,33.7810085 0.14105918,31.6590785 C0.22664918,29.3484185 0.33680918,27.0409985 0.49259918,24.7338485 C0.63947918,22.5598085 0.83306918,20.3895485 1.08011918,18.2246885 C1.31690918,16.1510885 1.51373918,13.9972985 2.15066918,12.0001085 C2.73494918,10.1684285 4.03418918,8.86108849 5.75111918,8.04352849 C7.56443918,7.17979849 9.66665918,7.12525849 11.6403592,7.07368849 C12.7316992,7.04533849 13.8308692,7.09879849 14.9097892,6.93436849 C15.9857392,6.77047849 17.0662792,6.63169849 18.1503292,6.53125849 C20.2538992,6.33631849 22.3685392,6.24964849 24.4793992,6.17944849 C26.8265092,6.10141849 29.1736192,6.03553849 31.5215392,5.99098849 C33.6515692,5.95048849 35.7821392,5.93536849 37.9124392,5.90782849 C39.4576492,5.88784849 41.0028592,5.86786849 42.5477992,5.84761849 C43.0605292,5.84086849 43.5729892,5.83438849 44.0857192,5.82763849 C44.2442092,5.82547849 44.5552492,5.88433849 44.7040192,5.81953849 C44.7555892,5.79712849 44.8130992,5.70019849 44.8498192,5.65942849 C45.0042592,5.48851849 45.1586992,5.31733849 45.3134092,5.14642849 C45.7942792,4.61398849 46.2751492,4.08181849 46.7560192,3.54937849 C47.6642992,2.54389849 48.5728492,1.53841849 49.4811292,0.532938494 C49.6558192,0.339618494 49.8315892,0.130638494 50.0845792,0.0393784942 C50.4296392,-0.0848215058 50.8035892,0.101748494 51.0344392,0.361758494 C51.2982292,0.658758494 51.2517892,1.00759849 51.0800692,1.33537849 C50.8365292,1.79977849 50.5781392,2.25715849 50.3270392,2.71777849 C49.7692192,3.74188849 49.2116692,4.76572849 48.6538492,5.78983849 C49.6161292,5.78713849 50.5786792,5.78443849 51.5409592,5.78173849 C53.8427092,5.77525849 56.1447292,5.76904849 58.4464792,5.76256849 C61.1794192,5.75500849 63.9123592,5.74744849 66.6450292,5.73988849 C68.9294992,5.73367849 71.2136992,5.72719849 73.4981692,5.72098849 C74.1861292,5.71909849 74.8740892,5.71720849 75.5623192,5.71531849 C75.7937092,5.71477849 76.0604692,5.75068849 76.2891592,5.71099849 C76.6304392,5.65159849 76.9854892,5.47690849 77.3127292,5.36674849 C77.9520892,5.15182849 78.5917192,4.93663849 79.2310792,4.72171849 C80.0316292,4.45252849 80.8294792,4.17118849 81.6381292,3.92710849 C83.2629892,3.43678849 84.9404992,3.08929849 86.6385292,3.00613849 C87.3448492,2.97157849 88.0552192,2.98777849 88.7620792,2.98777849 C90.2856892,2.98777849 91.8095692,2.98777849 93.3331792,2.98777849 C95.5998292,2.98777849 97.8664792,2.98777849 100.133399,2.98777849 C102.806669,2.98777849 105.479669,2.98777849 108.152939,2.98777849 C110.896139,2.98777849 113.639069,2.98777849 116.382269,2.98777849 C118.865999,2.98777849 121.349729,2.98777849 123.833459,2.98777849 C125.704289,2.98777849 127.575119,2.98777849 129.445949,2.98777849 C130.377179,2.98777849 131.308409,2.98777849 132.239639,2.98777849 C132.270689,2.98777849 132.345749,3.00235849 132.374639,2.98777849 C132.436469,2.95618849 132.511799,2.79607849 132.557429,2.73856849 C132.636539,2.63947849 132.720239,2.54470849 132.807719,2.45290849 C133.376069,1.85728849 134.089949,1.40044849 134.837849,1.06429849 C135.870059,0.600438494 136.913339,0.456258494 138.027359,0.456258494 C139.669229,0.456258494 141.310829,0.456258494 142.952699,0.456258494 C145.540379,0.456258494 148.128059,0.456258494 150.715739,0.456258494 C153.371729,0.456258494 156.027719,0.456258494 158.683979,0.456258494 C160.530779,0.456258494 162.377849,0.456258494 164.224649,0.456258494 C165.218789,0.456258494 166.159739,0.457608494 167.123369,0.769188494 C167.944169,1.03459849 168.730949,1.44094849 169.404059,1.98256849 C169.661909,2.18992849 169.904099,2.41888849 170.116049,2.67322849 C170.185709,2.75692849 170.278049,2.94781849 170.370119,2.98750849 C170.500799,3.04393849 170.782949,2.98750849 170.921999,2.98750849 C171.342659,2.98750849 171.763319,2.98750849 172.183979,2.98750849 C173.631719,2.98750849 175.079459,2.98750849 176.527469,2.98750849 C178.618349,2.98750849 180.708959,2.98750849 182.799839,2.98750849 C185.311649,2.98750849 187.823729,2.98750849 190.335539,2.98750849 C193.066589,2.98750849 195.797909,2.98750849 198.528959,2.98750849 C201.271619,2.98750849 204.014279,2.98750849 206.756669,2.98750849 C209.303039,2.98750849 211.849409,2.98750849 214.395779,2.98750849 C216.537959,2.98750849 218.680409,2.98750849 220.822589,2.98750849 C222.352949,2.98750849 223.883579,2.98750849 225.413939,2.98750849 C226.124849,2.98750849 226.835759,2.98669849 227.546669,2.98750849 C228.721979,2.98885849 229.881899,3.26992849 230.896289,3.87175849 C232.149629,4.61506849 233.119199,5.81818849 233.472629,7.24297849 C233.688359,8.11318849 233.619239,9.04576849 233.619239,9.93514849 C233.619239,11.8089485 233.619239,13.6827485 233.619239,15.5562785 C233.619239,18.1752785 233.619239,20.7945485 233.619239,23.4135485 C233.619239,26.1032885 233.619239,28.7927585 233.619239,31.4824985 C233.619239,33.5636585 233.619239,35.6450885 233.619239,37.7262485 C233.619239,38.5230185 233.619239,39.3200585 233.619239,40.1168285 C233.619239,41.0353685 233.619239,41.9539085 233.619239,42.8727185 C233.619239,45.0256985 233.619239,47.1786785 233.619239,49.3319285 C233.619239,52.0405685 233.619239,54.7489385 233.619239,57.4575785 C233.619239,60.0501185 233.619239,62.6426585 233.619239,65.2351985 C233.619239,67.0142285 233.619239,68.7932585 233.619239,70.5722885 C233.619239,71.5164785 233.665409,72.4522985 233.361929,73.3638185 C232.908059,74.7267785 231.888809,75.8391785 230.626829,76.5039185 C229.653479,77.0169185 228.578339,77.2375085 227.482949,77.2375085 C226.700759,77.2375085 225.918569,77.2375085 225.136109,77.2375085 C223.550399,77.2375085 221.964959,77.2375085 220.379249,77.2375085 C218.197919,77.2375085 216.016859,77.2375085 213.835529,77.2375085 C211.266479,77.2375085 208.697429,77.2375085 206.128379,77.2375085 C203.379239,77.2375085 200.630099,77.2375085 197.880689,77.2375085 C195.159089,77.2375085 192.437759,77.2375085 189.716159,77.2375085 C187.222709,77.2375085 184.728989,77.2375085 182.235539,77.2375085 C180.194339,77.2375085 178.153139,77.2375085 176.111939,77.2375085 C174.719009,77.2375085 173.326349,77.2375085 171.933689,77.2375085 C171.549749,77.2375085 171.165539,77.2375085 170.781599,77.2375085 C170.682239,77.2375085 170.444369,77.1907985 170.352569,77.2375085 C170.299649,77.2645085 170.235659,77.4013985 170.197319,77.4505385 C170.122799,77.5463885 170.043419,77.6384585 169.960799,77.7275585 C169.702139,78.0056585 169.409999,78.2518985 169.100579,78.4711385 C168.391829,78.9736085 167.583449,79.3464785 166.743209,79.5670685 C165.817919,79.8100685 164.886689,79.7687585 163.940339,79.7687585 C161.998769,79.7687585 160.057469,79.7687585 158.115899,79.7687585 C155.433719,79.7687585 152.751269,79.7687585 150.069089,79.7687585 C147.523529,79.7687585 144.977969,79.7687585 142.432679,79.7687585 C140.901509,79.7687585 139.370339,79.7687585 137.838899,79.7687585 C136.650089,79.7687585 135.529319,79.5316985 134.463899,78.9803585 C133.785119,78.6290885 133.139009,78.1725185 132.640859,77.5882385 C132.564449,77.4988685 132.456719,77.2807085 132.357629,77.2375085 C132.307139,77.2156385 132.196979,77.2375085 132.142979,77.2375085 C131.127509,77.2375085 130.112039,77.2375085 129.096569,77.2375085 C127.159049,77.2375085 125.221799,77.2375085 123.284279,77.2375085 C120.774899,77.2375085 118.265519,77.2375085 115.756139,77.2375085 C113.006459,77.2375085 110.256779,77.2375085 107.506829,77.2375085 C104.853269,77.2375085 102.199709,77.2375085 99.5461492,77.2375085 C97.3251292,77.2375085 95.1043792,77.2375085 92.8833592,77.2375085 C91.4315692,77.2375085 89.9800492,77.2375085 88.5282592,77.2375085 C87.7692892,77.2375085 87.0089692,77.2507385 86.2516192,77.1956585 C84.5381992,77.0709185 82.8488092,76.6894085 81.2147692,76.1669585 C80.3491492,75.8902085 79.4902792,75.5907785 78.6287092,75.3010685 C78.0311992,75.1001885 77.4339592,74.8993085 76.8364492,74.6984285 C76.6566292,74.6379485 76.4584492,74.5396685 76.2702592,74.5118585 C75.9640792,74.4664985 75.6173992,74.5099685 75.3090592,74.5091585 C74.5587292,74.5069985 73.8083992,74.5051085 73.0580692,74.5029485 C70.7120392,74.4964685 68.3660092,74.4899885 66.0197092,74.4835085 C63.2802892,74.4759485 60.5408692,74.4683885 57.8014492,74.4608285 C55.5798892,74.4546185 53.3583292,74.4484085 51.1370392,74.4424685 C50.3089492,74.4403085 49.4808592,74.4378785 48.6527692,74.4354485 C49.4435992,75.8875085 50.2344292,77.3392985 51.0252592,78.7913585 C51.2660992,79.2336185 51.3184792,79.6691285 50.8735192,80.0090585 C50.4358492,80.3435885 49.9903492,80.2372085 49.6271992,79.8548885 C48.4378492,78.6026285 47.3081692,77.2877285 46.1504092,76.0063085 C45.8431492,75.6661085 45.5358892,75.3259085 45.2286292,74.9857085 C45.0847192,74.8264085 44.9167792,74.5504685 44.7320992,74.4362585 C44.5463392,74.3212385 44.1202792,74.3981885 43.9026592,74.3952185 C41.9775592,74.3701085 40.0524592,74.3452685 38.1273592,74.3201585 C36.2022592,74.2950485 34.2771592,74.2702085 32.3520592,74.2450985 C31.1602792,74.2297085 29.9687692,74.1978485 28.7769892,74.1703085 C27.1856092,74.1333185 25.5950392,74.0825585 24.0039292,74.0296385 C22.5980392,73.9829285 21.1910692,73.9178585 19.7876092,73.8228185 C18.2737192,73.7204885 16.7660392,73.5630785 15.2642992,73.3443785 C14.9305792,73.2957785 14.5971292,73.2415085 14.2636792,73.1864285 Z" id="Path" stroke="#333F4E" stroke-width="5" fill="#61A591" stroke-linecap="round" stroke-linejoin="round"></path>
            <g id="Group-2" transform="translate(31.931688, 9.830369)">
                <mask id="mask-3" fill="white">
                    <use xlink:href="#path-2"></use>
                </mask>
                <use id="Path" stroke="#333F4E" fill="#A3AFBE" stroke-linecap="round" stroke-linejoin="round" xlink:href="#path-2"></use>
                <g id="Group-3" mask="url(#mask-3)">
                    <g transform="translate(3.068312, -0.830369)">
                        <mask id="mask-5" fill="white">
                            <use xlink:href="#path-4"></use>
                        </mask>
                        <g id="Rectangle" stroke="none" fill="none"></g>
                        <path d="M-17,15.4105164 L3.3336851,13.6824335 C8.67830901,13.2282141 14.050815,13.2047496 19.3992026,13.612267 L43,15.4105164 L43,15.4105164 L43,26.4105164 C28.5520991,24.6064655 17.5834809,23.7044401 10.0941455,23.7044401 C2.60481,23.7044401 -6.42657182,24.6064655 -17,26.4105164 L-17,15.4105164 Z" id="Rectangle" stroke="none" fill="#000000" fill-rule="evenodd" opacity="0.324404762" mask="url(#mask-5)" transform="translate(13.000000, 19.705258) rotate(-39.000000) translate(-13.000000, -19.705258) "></path>
                        <path d="M-6,33.617734 L5.00531974,32.6824335 C10.3499437,32.2282141 15.7224496,32.2047496 21.0708372,32.612267 L34.2669056,33.617734 L34.2669056,33.617734 L34.2669056,41 C24.5707013,39.7892742 17.209496,39.1839113 12.18329,39.1839113 C7.1570839,39.1839113 1.09598724,39.7892742 -6,41 L-6,33.617734 Z" id="Rectangle-Copy" stroke="none" fill="#000000" fill-rule="evenodd" opacity="0.163690476" mask="url(#mask-5)" transform="translate(14.133453, 36.500000) rotate(-39.000000) translate(-14.133453, -36.500000) "></path>
                    </g>
                </g>
            </g>
            <path d="M21,5.99978671 C21.3714674,5.30510001 21.9702175,4.80642715 22.572039,4.47198787 C23.1083375,4.17402123 23.6814928,4.00082946 24.2691517,4.00018959 C24.7761015,3.99976301 25.2830512,4.00018959 25.7900009,4.00018959 C26.780865,4.00018959 27.771729,4.00018959 28.762593,4.00018959 C30.0158902,4.00018959 31.2693579,4.00018959 32.522655,4.00018959 C33.8041066,4.00018959 35.0855581,4.00018959 36.3670096,4.00018959 C37.4416543,4.00018959 38.5164696,4.00018959 39.5911143,4.00018959 C40.2383241,4.00018959 40.8857045,4.00018959 41.5329143,4.00018959 C41.9835553,4.00018959 42.4186686,4.04498057 42.8548058,4.20686795 C43.5796535,4.47604038 44.2992115,4.96639492 44.8036018,5.68241066 C44.8744143,5.78287041 44.9404492,5.88866243 45,6" id="Path-Copy" stroke="#333F4E" fill="#333F4E" stroke-linecap="round" stroke-linejoin="round"></path>
            <path d="M21,75.9997867 C21.3714674,75.3051 21.9702175,74.8064271 22.572039,74.4719879 C23.1083375,74.1740212 23.6814928,74.0008295 24.2691517,74.0001896 C24.7761015,73.999763 25.2830512,74.0001896 25.7900009,74.0001896 C26.780865,74.0001896 27.771729,74.0001896 28.762593,74.0001896 C30.0158902,74.0001896 31.2693579,74.0001896 32.522655,74.0001896 C33.8041066,74.0001896 35.0855581,74.0001896 36.3670096,74.0001896 C37.4416543,74.0001896 38.5164696,74.0001896 39.5911143,74.0001896 C40.2383241,74.0001896 40.8857045,74.0001896 41.5329143,74.0001896 C41.9835553,74.0001896 42.4186686,74.0449806 42.8548058,74.2068679 C43.5796535,74.4760404 44.2992115,74.9663949 44.8036018,75.6824107 C44.8744143,75.7828704 44.9404492,75.8886624 45,76" id="Path-Copy-2" stroke="#333F4E" fill="#333F4E" stroke-linecap="round" stroke-linejoin="round" transform="translate(33.000000, 75.000000) scale(1, -1) translate(-33.000000, -75.000000) "></path>
            <line x1="76.2821392" y1="5.94426849" x2="48.6535792" y2="6.08626849" id="Path" stroke="#333F4E" stroke-linecap="round" stroke-linejoin="round"></line>
            <path d="M34.9013992,14.7119885 C32.5756192,14.7686885 30.2495692,14.8253885 27.9237892,14.8820885 C25.8180592,14.9333885 23.7109792,14.9671385 21.6057892,15.0370685 C19.1096392,15.1199585 16.6124092,15.1963685 14.1167992,15.2965385 C12.0656092,15.3788885 9.92315918,15.4118285 7.92650918,15.9331985 C7.32494918,16.0903385 6.72176918,16.3222685 6.27734918,16.7734385 C5.81888918,17.2386485 5.59100918,17.8707185 5.46707918,18.5000885 C5.42306918,18.7239185 5.39201918,18.9501785 5.36825918,19.1769785" id="Path" stroke="#333F4E" stroke-linecap="round" stroke-linejoin="round"></path>
            <path d="M73.4703592,6.65869849 C72.6668392,6.65869849 71.8630492,6.65869849 71.0595292,6.65869849 C69.1913992,6.65869849 67.3232692,6.65869849 65.4551392,6.65869849 C63.3134992,6.65869849 61.1718592,6.65869849 59.0302192,6.65869849 C57.4061692,6.65869849 55.7823892,6.65869849 54.1583392,6.65869849 C53.3334892,6.65869849 52.5056692,6.64195849 51.6824392,6.69892849 C51.0716992,6.74131849 50.4496192,6.81205849 49.8653392,7.00348849 C49.5189292,7.11688849 49.1347192,7.28509849 48.9249292,7.59802849 C48.6273892,8.04190849 48.9440992,8.28814849 49.3528792,8.42098849 C49.9606492,8.61862849 50.6040592,8.72905849 51.2334292,8.83165849 C52.6349992,9.05953849 54.0516892,9.19345849 55.4675692,9.29470849 C56.8437592,9.39298849 58.2207592,9.43267849 59.6001892,9.44293849 C61.2790492,9.45508849 62.9579092,9.44833849 64.6367692,9.45103849 C64.8130792,9.45130849 64.9893892,9.45157849 65.1656992,9.45184849" id="Path" stroke="#333F4E" stroke-linecap="round" stroke-linejoin="round"></path>
            <path d="M49.6323292,0.365268494 C48.3417292,1.79410849 47.0508592,3.22267849 45.7602592,4.65151849 C45.3398692,5.11672849 44.8676392,5.56492849 44.4915292,6.06793849 C44.3276392,6.28717849 44.1834592,6.56743849 44.2849792,6.84418849 C44.3797492,7.10257849 44.6419192,7.26268849 44.8654792,7.40065849 C45.6479392,7.88341849 47.1188992,8.44555849 47.7585292,7.42900849 C48.1384192,6.82528849 48.4486492,6.16621849 48.7893892,5.54035849 C49.3723192,4.47007849 49.9549792,3.40006849 50.5379092,2.32978849 C50.7047692,2.02306849 50.8721692,1.71661849 51.0390292,1.40989849 C51.1405492,1.22305849 51.2385592,1.02946849 51.2280292,0.810228494 C51.1994092,0.214068494 50.4236992,-0.184991506 49.9263592,0.116868494 C49.8161992,0.183558494 49.7195392,0.271578494 49.6323292,0.365268494 Z" id="Path" stroke="#333F4E" stroke-linecap="round" stroke-linejoin="round"></path>
            <path d="M49.6323292,79.8594785 C48.3417292,78.4306385 47.0508592,77.0020685 45.7602592,75.5732285 C45.3398692,75.1080185 44.8676392,74.6598185 44.4915292,74.1568085 C44.3276392,73.9375685 44.1834592,73.6573085 44.2849792,73.3805585 C44.3797492,73.1221685 44.6419192,72.9620585 44.8654792,72.8240885 C45.6479392,72.3413285 47.1188992,71.7791885 47.7585292,72.7957385 C48.1384192,73.3994585 48.4486492,74.0585285 48.7893892,74.6843885 C49.3723192,75.7546685 49.9549792,76.8246785 50.5379092,77.8949585 C50.7047692,78.2016785 50.8721692,78.5081285 51.0390292,78.8148485 C51.1405492,79.0016885 51.2385592,79.1952785 51.2280292,79.4145185 C51.1994092,80.0106785 50.4236992,80.4097385 49.9263592,80.1078785 C49.8161992,80.0411885 49.7195392,79.9531685 49.6323292,79.8594785 Z" id="Path" stroke="#333F4E" stroke-linecap="round" stroke-linejoin="round"></path>
            <path d="M73.4703592,73.5660485 C72.6668392,73.5660485 71.8630492,73.5660485 71.0595292,73.5660485 C69.1913992,73.5660485 67.3232692,73.5660485 65.4551392,73.5660485 C63.3134992,73.5660485 61.1718592,73.5660485 59.0302192,73.5660485 C57.4061692,73.5660485 55.7823892,73.5660485 54.1583392,73.5660485 C53.3334892,73.5660485 52.5056692,73.5827885 51.6824392,73.5258185 C51.0716992,73.4834285 50.4496192,73.4126885 49.8653392,73.2212585 C49.5189292,73.1078585 49.1347192,72.9396485 48.9249292,72.6267185 C48.6273892,72.1828385 48.9440992,71.9365985 49.3528792,71.8037585 C49.9606492,71.6061185 50.6040592,71.4956885 51.2334292,71.3930885 C52.6349992,71.1652085 54.0516892,71.0312885 55.4675692,70.9300385 C56.8437592,70.8317585 58.2207592,70.7920685 59.6001892,70.7818085 C61.2790492,70.7693885 62.9579092,70.7764085 64.6367692,70.7737085 C64.8130792,70.7734385 64.9893892,70.7731685 65.1656992,70.7728985" id="Path" stroke="#333F4E" stroke-linecap="round" stroke-linejoin="round"></path>
            <path d="M34.9013992,65.5127585 C32.5756192,65.4560585 30.2495692,65.3993585 27.9237892,65.3426585 C25.8180592,65.2913585 23.7109792,65.2576085 21.6057892,65.1876785 C19.1096392,65.1047885 16.6124092,65.0283785 14.1167992,64.9282085 C12.0656092,64.8458585 9.92315918,64.8129185 7.92650918,64.2915485 C7.32494918,64.1344085 6.72176918,63.9024785 6.27734918,63.4513085 C5.81888918,62.9860985 5.59100918,62.3540285 5.46707918,61.7246585 C5.42306918,61.5008285 5.39201918,61.2748385 5.36825918,61.0477685" id="Path" stroke="#333F4E" stroke-linecap="round" stroke-linejoin="round"></path>
            <line x1="76.2821392" y1="74.6997685" x2="48.6535792" y2="74.5577685" id="Path" stroke="#333F4E" stroke-linecap="round" stroke-linejoin="round"></line>
            <path d="M44.7053692,74.4054785 C42.3331492,74.3746985 39.9611992,74.3439185 37.5892492,74.3131385 C35.4762292,74.2855985 33.3623992,74.2769585 31.2496492,74.2278185 C28.7073292,74.1686885 26.1663592,74.1017285 23.6248492,74.0172185 C21.4308292,73.9443185 19.2300592,73.8255185 17.0484592,73.5784685 C14.9613592,73.3422185 12.8056792,73.0827485 10.8700492,72.2236085 C9.92126918,71.8024085 8.96627918,71.3536685 8.10524918,70.7693885 C7.40513918,70.2944585 6.86378918,69.7293485 6.56435918,68.9277185 C6.20147918,67.9562585 6.06566918,66.8900285 5.91797918,65.8688885 C5.74760918,64.6935785 5.61908918,63.5128685 5.49461918,62.3321585 C5.25107918,60.0228485 5.08232918,57.7054385 4.91681918,55.3896485 C4.75454918,53.1202985 4.63358918,50.8490585 4.54259918,48.5756585 C4.45376918,46.3562585 4.40003918,44.1346985 4.38680918,41.9134085 C4.37276918,39.5854685 4.38167918,37.2577985 4.43729918,34.9303985 C4.49156918,32.6569985 4.57985918,30.3833285 4.70648918,28.1126285 C4.83608918,25.7884685 5.00240918,23.4661985 5.19923918,21.1468985 C5.39336918,18.8591885 5.59505918,16.5695885 5.92688918,14.2969985 C6.07673918,13.2709985 6.21227918,12.1926185 6.59405918,11.2216985 C6.90995918,10.4181785 7.48640918,9.86386849 8.19704918,9.39514849 C9.93773918,8.24683849 11.9219692,7.46734849 13.9669492,7.09231849 C16.1855392,6.68569849 18.4343692,6.48562849 20.6831992,6.34711849 C22.8310492,6.21481849 24.9883492,6.14299849 27.1397092,6.09304849 C29.1471592,6.04633849 31.1540692,5.99584849 33.1617892,5.96965849 C36.3043192,5.92888849 39.4465792,5.88811849 42.5891092,5.84734849 C43.2946192,5.83816849 44.0001292,5.82898849 44.7053692,5.81980849" id="Path" stroke="#333F4E" stroke-linecap="round" stroke-linejoin="round"></path>
            <path d="M42.6177292,70.3003985 C40.9180792,69.2411885 39.4093192,67.9041485 38.3201392,66.2101685 C37.1899192,64.4519285 36.7095892,62.4285485 36.3480592,60.3943685 C35.9714092,58.2754085 35.7397492,56.1310685 35.5412992,53.9888885 C35.3468992,51.8877485 35.1889492,49.7806685 35.0971492,47.6722385 C34.9994092,45.4279985 34.9219192,43.1837585 34.9113892,40.9370885 C34.9016692,38.8167785 34.9202992,36.6924185 35.0091292,34.5737285 C35.1068692,32.2438985 35.2429492,29.9200085 35.4195292,27.5947685 C35.5769392,25.5203585 35.7950992,23.4413585 36.1004692,21.3834185 C36.4071892,19.3149485 36.7355092,17.1643985 37.6297492,15.2544185 C38.4805192,13.4375885 39.8556292,11.8948085 41.4594292,10.7062685 C41.8339192,10.4287085 42.2219092,10.1711285 42.6171892,9.92461849" id="Path" stroke="#333F4E" stroke-linecap="round" stroke-linejoin="round"></path>
            <path d="M14.2636792,73.1864285 C12.8410492,73.1802185 11.4181492,73.1667185 9.99794918,73.0776185 C8.72921918,72.9979685 7.41512918,72.8756585 6.22685918,72.3928985 C5.10446918,71.9368685 4.03823918,71.2637585 3.26252918,70.3217285 C2.45765918,69.3443285 2.07884918,68.1576785 1.81559918,66.9383585 C1.52237918,65.5813385 1.33877918,64.1978585 1.17380918,62.8203185 C1.00991918,61.4508785 0.85736918,60.0779285 0.74315918,58.7033585 C0.61166918,57.1211585 0.49205918,55.5397685 0.38891918,53.9554085 C0.30494918,52.6675085 0.24527918,51.3769085 0.19748918,50.0873885 C0.13916918,48.5097785 0.0905691797,46.9335185 0.0557391797,45.3553685 C0.0222591797,43.8349985 0.0138891797,42.3148985 0.00281917969,40.7942585 C-0.00771082031,39.3516485 0.0138891797,37.9087685 0.0244191797,36.4664285 C0.0338691797,35.1796085 0.0668091797,33.8908985 0.10595918,32.6046185 C0.14996918,31.1709185 0.20612918,29.7372185 0.28091918,28.3048685 C0.36110918,26.7720785 0.44858918,25.2403685 0.56171918,23.7097385 C0.66944918,22.2511985 0.81119918,20.7961685 0.95483918,19.3408685 C1.09064918,17.9630585 1.26182918,16.5844385 1.46999918,15.2158085 C1.66169918,13.9546385 1.86689918,12.6529685 2.34290918,11.4622685 C2.80028918,10.3180085 3.60461918,9.36787849 4.62332918,8.68126849 C5.66876918,7.97656849 6.83921918,7.53889849 8.08175918,7.34557849 C9.46226918,7.13092849 10.8700492,7.08718849 12.2645992,7.05748849 C12.9309592,7.04344849 13.5973192,7.04155849 14.2636792,7.03858849" id="Path" stroke="#333F4E" stroke-linecap="round" stroke-linejoin="round"></path>
            <path d="M132.374909,2.98750849 C132.962699,2.10811849 133.910129,1.47685849 134.862419,1.05349849 C135.711029,0.676308494 136.617959,0.457068494 137.547839,0.456258494 C138.350009,0.455718494 139.152179,0.456258494 139.954349,0.456258494 C141.522239,0.456258494 143.090129,0.456258494 144.658019,0.456258494 C146.641169,0.456258494 148.624589,0.456258494 150.607739,0.456258494 C152.635439,0.456258494 154.663139,0.456258494 156.690839,0.456258494 C158.391299,0.456258494 160.092029,0.456258494 161.792489,0.456258494 C162.816599,0.456258494 163.840979,0.456258494 164.865089,0.456258494 C165.578159,0.456258494 166.266659,0.512958494 166.956779,0.717888494 C168.103739,1.05862849 169.242329,1.67935849 170.040449,2.58574849 C170.152499,2.71291849 170.256989,2.84683849 170.351219,2.98777849" id="Path" stroke="#333F4E" fill="#333F4E" stroke-linecap="round" stroke-linejoin="round"></path>
            <path d="M132.374909,77.2375085 C132.962699,78.1168985 133.910129,78.7481585 134.862419,79.1715185 C135.711029,79.5487085 136.617959,79.7679485 137.547839,79.7687585 C138.350009,79.7692985 139.152179,79.7687585 139.954349,79.7687585 C141.522239,79.7687585 143.090129,79.7687585 144.658019,79.7687585 C146.641169,79.7687585 148.624589,79.7687585 150.607739,79.7687585 C152.635439,79.7687585 154.663139,79.7687585 156.690839,79.7687585 C158.391299,79.7687585 160.092029,79.7687585 161.792489,79.7687585 C162.816599,79.7687585 163.840979,79.7687585 164.865089,79.7687585 C165.578159,79.7687585 166.266659,79.7120585 166.956779,79.5071285 C168.103739,79.1663885 169.242329,78.5456585 170.040449,77.6392685 C170.152499,77.5120985 170.256989,77.3781785 170.351219,77.2372385" id="Path" stroke="#333F4E" fill="#333F4E" stroke-linecap="round" stroke-linejoin="round"></path>
            <path d="M233.619871,40.1125085 C233.619871,41.0977385 233.619871,42.0829685 233.619871,43.0681985 C233.619871,45.4571585 233.619871,47.8458485 233.619871,50.2348085 C233.619871,53.1769985 233.619871,56.1189185 233.619871,59.0611085 C233.619871,61.7060285 233.619871,64.3509485 233.619871,66.9958685 C233.619871,68.4932885 233.619871,69.9909785 233.619871,71.4883985 C233.619871,72.8467685 233.240429,74.1082085 232.339439,75.1520285 C231.407939,76.2312185 230.080889,76.9243085 228.680399,77.1524585 C228.164159,77.2364285 227.650349,77.2377785 227.130599,77.2377785 C226.501229,77.2377785 225.871589,77.2377785 225.242219,77.2377785 C224.182199,77.2377785 223.122179,77.2377785 222.062159,77.2377785 C220.620089,77.2377785 219.177749,77.2377785 217.735409,77.2377785 C215.945579,77.2377785 214.155749,77.2377785 212.365649,77.2377785 C210.275309,77.2377785 208.184969,77.2377785 206.094629,77.2377785 C203.754539,77.2377785 201.414719,77.2377785 199.074629,77.2377785 C196.514219,77.2377785 193.953539,77.2377785 191.393129,77.2377785 C188.662079,77.2377785 185.931299,77.2377785 183.200249,77.2377785 C180.342299,77.2377785 177.484349,77.2377785 174.626129,77.2377785 C171.684479,77.2377785 168.742829,77.2377785 165.801179,77.2377785 C162.819299,77.2377785 159.837419,77.2377785 156.855539,77.2377785 C153.876899,77.2377785 150.897989,77.2377785 147.919349,77.2377785 C144.987149,77.2377785 142.054949,77.2377785 139.122749,77.2377785 C136.280459,77.2377785 133.438169,77.2377785 130.595879,77.2377785 C127.886969,77.2377785 125.177789,77.2377785 122.468879,77.2377785 C119.936549,77.2377785 117.404219,77.2377785 114.871889,77.2377785 C112.559609,77.2377785 110.247329,77.2377785 107.935319,77.2377785 C105.892229,77.2377785 103.849409,77.2377785 101.806319,77.2377785 C100.063469,77.2377785 98.3206192,77.2377785 96.5777692,77.2377785 C95.1851092,77.2377785 93.7924492,77.2377785 92.3997892,77.2377785 C91.4029492,77.2377785 90.4061092,77.2377785 89.4092692,77.2377785 C88.8455092,77.2377785 88.2820192,77.2377785 87.7182592,77.2377785 C87.0219292,77.2377785 86.3272192,77.2153685 85.6341292,77.1400385 C83.9509492,76.9569785 82.3066492,76.5352385 80.7036592,75.9992885 C79.0180492,75.4357985 77.3343292,74.8660985 75.6495292,74.2996385 C72.9163192,73.3805585 70.1833792,72.4612085 67.4501692,71.5421285 C65.9586892,71.0404685 64.4661292,70.5420485 62.9754592,70.0371485 C61.3697692,69.4933685 59.8161892,68.6968685 58.6176592,67.4761985 C58.0673992,66.9159485 57.6024592,66.2733485 57.2501092,65.5713485 C56.8426792,64.7591885 56.5810492,63.8546885 56.3048392,62.9909585 C55.7105692,61.1344385 55.2213292,59.2444385 54.8133592,57.3385085 C54.4005292,55.4109785 54.0749092,53.4664385 53.8067992,51.5135285 C53.5451692,49.6092185 53.3537392,47.6946485 53.2190092,45.7773785 C53.0834692,43.8493085 52.9854592,41.9125985 52.9996917,39.9791285 C53.0183992,37.9387385 53.1083092,35.9034785 53.2597792,33.8687585 C53.4023392,31.9541885 53.6148292,30.0428585 53.8850992,28.1423285 C54.1569892,26.2312685 54.4947592,24.3293885 54.9113692,22.4445185 C55.3320292,20.5415585 55.8339592,18.6558785 56.4452392,16.8047585 C56.7214492,15.9685685 56.9844292,15.1083485 57.4188592,14.3380385 C57.8100892,13.6441385 58.3139092,13.0188185 58.8979192,12.4777385 C60.0713392,11.3904485 61.5287992,10.6771085 63.0329692,10.1692385 C64.7037292,9.60520849 66.3758392,9.04495849 68.0471392,8.48281849 C70.7808892,7.56346849 73.5143692,6.64411849 76.2481192,5.72476849 C77.7539092,5.21824849 79.2580792,4.70632849 80.7657592,4.20547849 C82.4783692,3.63658849 84.2406592,3.19891849 86.0429092,3.04582849 C86.6285392,2.99614849 87.2138992,2.98777849 87.8006092,2.98777849 C88.4000092,2.98777849 88.9994092,2.98777849 89.5988092,2.98777849 C90.6315592,2.98777849 91.6643092,2.98777849 92.6973292,2.98777849 C94.1202292,2.98777849 95.5428592,2.98777849 96.9657592,2.98777849 C98.7293992,2.98777849 100.493039,2.98777849 102.256679,2.98777849 C104.328389,2.98777849 106.400099,2.98777849 108.472079,2.98777849 C110.796509,2.98777849 113.120669,2.98777849 115.445099,2.98777849 C117.992819,2.98777849 120.540539,2.98777849 123.088259,2.98777849 C125.809319,2.98777849 128.530379,2.98777849 131.251169,2.98777849 C134.102099,2.98777849 136.953029,2.98777849 139.803959,2.98777849 C142.741289,2.98777849 145.678889,2.98777849 148.616219,2.98777849 C151.596749,2.98777849 154.577279,2.98777849 157.557809,2.98777849 C160.538069,2.98777849 163.518329,2.98777849 166.498859,2.98777849 C169.435649,2.98777849 172.372169,2.98777849 175.308959,2.98777849 C178.158539,2.98777849 181.008119,2.98777849 183.857699,2.98777849 C186.576869,2.98777849 189.296039,2.98777849 192.015209,2.98777849 C194.560499,2.98777849 197.105789,2.98777849 199.651349,2.98777849 C201.979559,2.98777849 204.307499,2.98777849 206.635709,2.98777849 C208.703369,2.98777849 210.770759,2.98777849 212.838419,2.98777849 C214.597199,2.98777849 216.355979,2.98777849 218.114489,2.98777849 C219.531719,2.98777849 220.948949,2.98777849 222.366179,2.98777849 C223.390289,2.98777849 224.414399,2.98777849 225.438509,2.98777849 C226.032509,2.98777849 226.626239,2.98777849 227.220239,2.98777849 C227.864729,2.98777849 228.501389,3.01369849 229.133999,3.16354849 C230.470499,3.47998849 231.706829,4.23058849 232.545179,5.32624849 C233.100569,6.05227849 233.468309,6.91843849 233.581439,7.82698849 C233.626259,8.18554849 233.619871,8.54518849 233.619871,8.90536849 C233.619871,10.5234785 233.619871,12.1415885 233.619871,13.7594285 C233.619871,16.4583485 233.619871,19.1572685 233.619871,21.8561885 C233.619871,24.7856885 233.619871,27.7151885 233.619871,30.6444185 C233.619871,32.9539985 233.619871,35.2635785 233.619871,37.5731585 C233.619871,38.4196085 233.619871,39.2660585 233.619871,40.1125085 Z" id="Path" stroke="#333F4E" stroke-width="5" fill="#61A591" stroke-linecap="round" stroke-linejoin="round"></path>
        </g>
    </g>
</svg>