<?xml version="1.0" encoding="UTF-8"?>
<svg width="333px" height="127px" viewBox="0 0 333 127" version="1.1" xmlns="http://www.w3.org/2000/svg" xmlns:xlink="http://www.w3.org/1999/xlink">
    <!-- Generator: Sketch 63.1 (92452) - https://sketch.com -->
    <title>5c76048e19ef87769a82d718_Dimensions-Guide-Transport-Buses-Minibus-Shuttle-Bus-Elevation</title>
    <desc>Created with Sketch.</desc>
    <g id="WebApp" stroke="none" stroke-width="1" fill="none" fill-rule="evenodd" stroke-linecap="round" stroke-linejoin="round">
        <g id="Artboard-Copy-40" transform="translate(-643.000000, -410.000000)" stroke="#594FEE" stroke-width="1.26">
            <g id="Group-2" transform="translate(322.000000, 357.000000)">
                <g id="5c76048e19ef87769a82d718_Dimensions-Guide-Transport-Buses-Minibus-Shuttle-Bus-Elevation" transform="translate(322.000000, 54.000000)">
                    <line x1="310.33632" y1="106.18888" x2="312.91344" y2="106.18888" id="Path"></line>
                    <line x1="264.77024" y1="106.18888" x2="271.89792" y2="106.18888" id="Path"></line>
                    <line x1="147.2744" y1="96.50704" x2="147.2744" y2="115.0744" id="Path"></line>
                    <path d="M6.18688,3.584 C4.92632,3.5728 5.38608,1.98464 5.89904,1.38656 C6.56936,0.6048 7.70112,0.36624 8.67048,0.23184 C9.5592,0.1092 10.45744,0.084 11.35288,0.07896" id="Path"></path>
                    <path d="M321.51504,88.9392 C322.47432,86.54464 322.68152,83.94176 322.30464,81.40104 C322.17528,80.52688 321.9748,79.6684 321.73848,78.81776" id="Path"></path>
                    <path d="M326.06112,78.81776 C324.534,78.81776 323.00688,78.81776 321.47976,78.81776 C320.79656,78.81776 320.04392,78.73096 319.37192,78.90904 C318.51792,79.13584 317.81288,79.78096 317.51048,80.61032 C317.03112,81.9252 317.79328,83.24904 318.23736,84.45976 C318.6092,85.47224 318.88192,86.618 319.41448,87.56384 C319.63008,87.94688 319.9392,88.2756 320.30824,88.51472 C320.67728,88.75384 321.104,88.90112 321.54192,88.94144 C322.85176,89.06184 324.21256,88.95264 325.52688,88.95264 C325.73352,88.95264 325.9396,88.95264 326.14624,88.95264" id="Path"></path>
                    <path d="M326.06112,78.19952 C324.534,78.19952 323.00688,78.19952 321.47976,78.19952 C320.73832,78.19952 319.94032,78.11832 319.21344,78.31208 C318.16624,78.5904 317.30104,79.38112 316.93032,80.3992 C316.38824,81.886 317.1504,83.29048 317.65776,84.67312 C318.19984,86.14984 318.54368,88.10816 319.97336,89.0344 C320.42584,89.32784 320.94888,89.50872 321.48648,89.55744 C322.81592,89.67896 324.19408,89.57144 325.528,89.57144 C325.73464,89.57144 325.94072,89.57144 326.14736,89.57144" id="Path"></path>
                    <path d="M213.49328,108.12592 C214.68216,108.12592 215.87104,108.12592 217.06048,108.12592 C220.03016,108.12592 223.0004,108.12592 225.97008,108.12592 C229.88056,108.12592 233.7916,108.12592 237.70208,108.12592 C241.65568,108.12592 245.60872,108.12592 249.56232,108.12592 C252.72688,108.12592 255.892,108.12592 259.05656,108.12592 C260.5372,108.12592 262.03184,108.18472 263.51136,108.12592 C264.17384,108.0996 264.40176,107.68296 264.54848,107.09104 C264.8968,105.68656 265.2552,104.28544 265.64384,102.89104 C266.32816,100.43264 267.09928,97.97704 268.142,95.64408 C269.11416,93.4696 270.37024,91.40152 271.87776,89.5552 C273.47992,87.59352 275.44552,86.00424 277.76672,84.97384 C279.95016,84.00448 282.31504,83.46688 284.67992,83.18464 C287.24248,82.87888 289.83752,82.87832 292.40736,83.08888 C294.91056,83.2944 297.4412,83.67856 299.84416,84.4256 C302.13624,85.13848 304.20432,86.29936 305.91736,87.99168 C307.70824,89.76072 309.16368,91.90328 310.30048,94.14272 C311.2956,96.10328 311.948,98.17528 312.30304,100.34304 C312.72192,102.90224 312.9084,105.51016 313.01088,108.0996 C313.04112,108.8612 312.80704,110.15872 313.87048,110.29312 C314.26136,110.3424 314.68416,110.29648 315.07672,110.29648 C316.01416,110.29648 316.9516,110.29648 317.88904,110.29648 C319.16248,110.29648 320.44208,110.33288 321.71496,110.29536 C322.1652,110.28192 322.61152,110.2052 323.0304,110.03552 C323.89168,109.68664 324.5284,108.98384 324.96464,108.17968 C325.43448,107.31336 325.696,106.34512 325.87408,105.38136" id="Path"></path>
                    <line x1="312.85856" y1="105.38248" x2="327.99088" y2="105.38248" id="Path"></line>
                    <path d="M325.1276,94.26368 C324.352,96.2108 327.90632,95.7348 328.8712,95.92072 C330.25384,96.18728 330.97176,97.1936 331.01432,98.55216 C331.0468,99.60272 330.99808,100.55472 329.68712,100.51048" id="Path"></path>
                    <path d="M325.1276,94.26368 C322.60424,94.26368 320.08088,94.26368 317.55808,94.26368 C316.0304,94.26368 314.50272,94.26368 312.97504,94.26368 C312.4744,94.26368 311.6652,94.12032 311.1808,94.34096 C310.5816,94.61424 310.86552,95.37416 311.0716,95.82664" id="Path"></path>
                    <line x1="325.63496" y1="92.666" x2="309.48792" y2="92.666" id="Path"></line>
                    <line x1="330.13736" y1="100.50992" x2="312.32992" y2="100.50992" id="Path"></line>
                    <path d="M327.99088,105.38248 C329.97832,105.3836 330.83904,103.28752 330.904,101.55544 C330.9236,101.03408 330.76008,100.53176 330.15752,100.51104" id="Path"></path>
                    <path d="M276.56384,59.15448 C278.24664,59.00664 279.83592,58.38672 281.21016,57.41176" id="Path"></path>
                    <path d="M251.42544,28.05432 C251.00376,28.72856 250.5356,29.56408 250.68568,30.39344 C250.84696,31.2872 251.62592,32.00568 252.19936,32.6704 C255.2144,36.16704 258.22944,39.66368 261.24448,43.16032 C263.38256,45.64 265.51504,48.12528 267.65984,50.59936 C269.21384,52.39248 270.76784,54.18504 272.3224,55.97816 C273.08848,56.86184 273.83384,58.002 274.88272,58.56312 C275.96408,59.14104 277.3036,59.3796 278.5104,59.49496 C279.94512,59.6316 281.38544,59.45912 282.77032,59.06936 C283.14832,58.96296 283.52184,58.84032 283.8892,58.70088" id="Path"></path>
                    <line x1="216.6528" y1="72.72832" x2="324.58664" y2="72.72832" id="Path"></line>
                    <path d="M248.03856,26.7243198 C250.09824,26.7243198 251.5492,28.1008 252.96768,29.44536 C256.32656,32.62896 259.7,35.798 263.02304,39.01912 C266.09744,41.99944 269.07664,45.07496 272.03904,48.16616 C273.55664,49.74984 275.02832,51.38 276.5196,52.98888 C277.70344,54.26624 278.85032,55.62144 280.22176,56.70504 C282.93664,58.8504 286.34088,59.40592 289.63536,60.09528 C294.37184,61.08704 299.11504,62.04968 303.84536,63.07 C307.93504,63.952 312.01408,64.89504 316.05112,65.99432 C317.78768,66.46752 319.64744,66.89592 321.27032,67.6928 C322.06384,68.082 322.5768,68.65544 323.02984,69.4064 C324.89632,72.49928 325.948,76.20032 326.1972,79.78208 C326.47328,83.75472 326.58864,87.9424 325.81136,91.86688 C325.65008,92.68224 325.43728,93.49088 325.12704,94.26312" id="Path"></path>
                    <path d="M219.2736,61.75792 C221.64576,61.75792 224.01792,61.75792 226.39064,61.75792 C231.686,61.75792 236.98192,61.75792 242.27728,61.75792 C247.7496,61.75792 253.22136,61.75792 258.69368,61.75792 C261.64936,61.75792 264.60728,61.78928 267.56296,61.75792 C268.80504,61.74448 268.44552,60.5724 268.2316,59.73128 C267.8424,58.20192 267.21072,56.79744 266.34832,55.47864 C264.23376,52.24296 261.646,49.28896 259.17584,46.32376 C256.73704,43.39608 254.25344,40.50312 251.70768,37.66784 C250.56696,36.3972 249.39488,35.10528 248.08,34.01048 C247.2792,33.34352 246.25104,33.15424 245.23632,33.0652 C241.98328,32.7796 238.62216,32.97112 235.36184,32.97112 C230.3308,32.97112 225.2992,32.97112 220.26816,32.97112 C219.93664,32.97112 219.60568,32.97112 219.27416,32.97112" id="Path"></path>
                    <line x1="219.27304" y1="108.12592" x2="219.27416" y2="30.50824" id="Path"></line>
                    <line x1="246.11832" y1="30.97304" x2="246.11832" y2="26.72432" id="Path"></line>
                    <line x1="216.6528" y1="104.68248" x2="213.56272" y2="104.68248" id="Path"></line>
                    <path d="M216.6528,109.63344 C218.27904,109.63344 219.90584,109.63344 221.53208,109.63344 C225.31264,109.63344 229.0932,109.63344 232.87376,109.63344 C237.20816,109.63344 241.54256,109.63344 245.87696,109.63344 C249.16472,109.63344 252.45248,109.63344 255.73968,109.63344 C256.49232,109.63344 257.24496,109.6368 257.9976,109.63344 C258.55704,109.63064 259.08736,109.4408 259.27608,108.85168 C259.35112,108.6176 259.32984,108.36784 259.32984,108.12592" id="Path"></path>
                    <path d="M261.46848,108.12592 C261.49704,104.21208 262.59128,100.45 264.22536,96.91808 C265.87008,93.36432 268.09832,90.09056 269.57672,86.46008 C271.03384,82.88168 271.44992,78.95944 271.63416,75.13016 C271.8268,71.12504 271.7372,67.07736 271.21808,63.098 C270.97728,61.2528 270.65416,59.39136 270.03312,57.63184 C269.49104,56.09576 268.67344,54.70248 267.73936,53.37416 C265.3812,50.01976 262.70216,46.87144 260.05896,43.74104 C257.45048,40.65208 254.84088,37.53736 252.05432,34.6052 C251.0676,33.56696 250.0372,32.4688 248.75592,31.79008 C247.38448,31.06376 245.80528,30.8868 244.28096,30.7748 C240.87,30.52336 237.43608,30.55584 234.01728,30.548 C228.6312,30.53568 223.24568,30.52336 217.8596,30.51104 C217.45696,30.50992 217.05488,30.50936 216.65224,30.50824" id="Path"></path>
                    <line x1="216.6528" y1="26.72432" x2="216.6528" y2="109.63344" id="Path"></line>
                    <line x1="209.81128" y1="11.07176" x2="209.81128" y2="2.13472" id="Path"></line>
                    <path d="M209.81128,26.72432 C213.60416,26.72432 217.39704,26.72432 221.18992,26.72432 C228.35232,26.72432 235.51472,26.72432 242.67712,26.72432 C247.02888,26.72432 251.3812,26.74616 255.7324,26.72432 C256.04152,26.72264 256.55616,26.77248 256.76448,26.502 C257.16992,25.97448 255.9732,24.97712 255.64616,24.6624 C253.92248,23.00424 252.0728,21.45304 250.22256,19.93936 C246.50584,16.89968 242.49624,14.224 238.27048,11.94592 C234.06488,9.67848 229.65208,7.7952 225.14744,6.20984 C220.57448,4.6004 215.90912,3.29336 211.14688,2.38 C206.37736,1.46496 201.53672,0.9324 196.69496,0.59248 C191.8252,0.25032 186.94256,0.1232 182.0616,0.09128 C180.52776,0.0812 178.99448,0.07952 177.46064,0.07952 C174.3224,0.07952 171.18472,0.07952 168.04648,0.07952 C163.12856,0.07952 158.2112,0.07952 153.29328,0.07952 C147.1064,0.07952 140.91952,0.07952 134.73264,0.07952 C127.71584,0.07952 120.69848,0.07952 113.68168,0.07952 C106.25664,0.07952 98.8316,0.07952 91.40656,0.07952 C84.1092,0.07952 76.8124,0.07952 69.51504,0.07952 C62.76872,0.07952 56.0224,0.07952 49.27552,0.07952 C43.53944,0.07952 37.80336,0.07952 32.06728,0.07952 C27.78384,0.07952 23.50096,0.07952 19.21752,0.07952 C16.89128,0.07952 14.5656,0.07952 12.23936,0.07952 C11.94368,0.07952 11.64856,0.07952 11.35288,0.07952" id="Path"></path>
                    <line x1="11.35344" y1="0.07896" x2="11.35344" y2="112.38416" id="Path"></line>
                    <path d="M1.70576,101.1528 C1.20176,100.54968 0.8008,99.90232 0.66584,99.11832 C0.51968,98.2688 0.36288,96.97408 1.41512,96.70192 C2.00256,96.55016 2.64936,96.6 3.24744,96.59832 C3.22616,93.62528 3.1192,90.65784 2.87784,87.69432 C2.61408,84.45416 2.21032,81.2252 1.84688,77.99512 C1.52824,75.16264 1.232,72.3324 1.05,69.4876 C0.85456,66.43112 0.7812,63.37128 0.7784,60.3092 C0.77616,57.33392 0.88144,54.35864 1.0192,51.38728 C1.162,48.30728 1.35408,45.2284 1.57024,42.15288 C1.78752,39.05384 2.0468,35.95816 2.34472,32.86584 C2.64488,29.7528 3.01112,26.64704 3.37456,23.54128 C3.69544,20.79784 4.06784,18.05944 4.45312,15.32496 C4.92912,11.94648 5.4292,8.5736 5.9416,5.20072 C6.02336,4.662 6.10512,4.12384 6.18688,3.58512" id="Path"></path>
                    <path d="M2.78992,110.75232 C1.86536,110.76856 1.8368,112.17752 2.76472,112.21168" id="Path"></path>
                    <path d="M11.35344,101.1528 C9.61576,101.1528 7.87808,101.1528 6.1404,101.1528 C5.03328,101.1528 3.92616,101.1528 2.81848,101.1528 C2.38168,101.1528 1.87488,101.08336 1.44312,101.18248 C0.43344,101.41432 0.21392,102.80424 1.10376,103.33568 C1.45488,103.54512 1.85976,103.50144 2.2512,103.50144 C3.23568,103.50144 4.22016,103.50144 5.20464,103.50144 C7.25424,103.50144 9.30384,103.50144 11.35344,103.50144" id="Path"></path>
                    <path d="M2.78992,110.75232 C1.66096,109.424 1.34512,107.63592 1.4056,105.93576 C1.43472,105.11648 1.55232,104.30616 1.70576,103.502" id="Path"></path>
                    <line x1="11.35344" y1="110.75232" x2="2.78992" y2="110.75232" id="Path"></line>
                    <path d="M250.46056,22.75168 C248.29112,21.59248 246.09536,20.48928 243.85312,19.4768 C241.57056,18.44584 239.24936,17.50672 236.89792,16.64544 C234.60192,15.80488 232.27232,15.05056 229.92312,14.37352 C227.53864,13.6864 225.134,13.0704 222.71256,12.5272 C221.4352,12.24048 220.15448,11.97056 218.86984,11.71856 C218.32104,11.61104 217.77168,11.50576 217.2212,11.40608 C216.83256,11.33552 215.97128,11.3652 215.74952,10.93064 C215.56528,10.57 215.69296,9.94392 215.69296,9.56144 C215.69296,8.70576 215.69296,7.85008 215.69296,6.9944 C215.69296,5.83352 216.66792,6.27256 217.46928,6.46016 C219.9792,7.04816 222.48688,7.6496 224.96096,8.37592 C227.28608,9.05856 229.5468,9.90248 231.77392,10.85616 C234.02064,11.81824 236.23936,12.84696 238.40544,13.97928 C240.6544,15.15416 242.84176,16.43936 244.9748,17.81248 C245.4676,18.13 245.9548,18.45592 246.44312,18.78072" id="Path"></path>
                    <line x1="134.76176" y1="113.41232" x2="139.5856" y2="113.41232" id="Path"></line>
                    <line x1="94.35552" y1="113.41232" x2="99.17936" y2="113.41232" id="Path"></line>
                    <path d="M97.83368,104.36552 C97.482,108.5476 98.4396,112.74928 100.66728,116.31816 C102.87816,119.86072 106.23984,122.62376 110.14304,124.1072 C114.03952,125.58784 118.38512,125.75976 122.38464,124.58264 C126.38248,123.40664 129.93848,120.92416 132.41872,117.57536 C134.90064,114.22376 136.23512,110.0876 136.18808,105.9184 C136.18248,105.39928 136.15112,104.8824 136.108,104.36496" id="Path"></path>
                    <path d="M127.6576,106.1424 C127.65312,103.94832 126.9716,101.7828 125.70712,99.988 C124.44544,98.19656 122.63496,96.81896 120.57192,96.08088 C118.50888,95.3428 116.23584,95.25824 114.12352,95.84176 C112.01064,96.42584 110.1016,97.66624 108.71056,99.36024 C107.32456,101.04808 106.48008,103.15256 106.31376,105.3304 C106.14632,107.52336 106.6716,109.74656 107.80112,111.6332 C108.92672,113.51312 110.63024,115.0212 112.6328,115.91048 C114.62864,116.79696 116.88264,117.0512 119.02576,116.63064 C121.17728,116.2084 123.17424,115.11696 124.69016,113.53328 C126.20048,111.95576 127.20288,109.92128 127.53384,107.76248 C127.61616,107.226 127.65704,106.68448 127.6576,106.1424 Z" id="Path"></path>
                    <path d="M125.08888,106.1424 C125.07824,102.74936 122.90656,99.64472 119.70672,98.49952 C116.51416,97.35656 112.84896,98.37016 110.69688,100.9904 C108.5448,103.6112 108.26424,107.40408 110.0064,110.31272 C111.74856,113.22192 115.22448,114.76472 118.55032,114.10504 C121.86384,113.4476 124.48296,110.71256 124.9948,107.37328 C125.05696,106.96616 125.0872,106.55456 125.08888,106.1424 Z" id="Path"></path>
                    <path d="M121.30552,106.1424 C121.30272,104.3308 120.13792,102.67208 118.43104,102.06056 C116.7264,101.45016 114.76864,101.99112 113.61952,103.39112 C112.4704,104.79056 112.32032,106.81608 113.25048,108.36952 C114.18064,109.92296 116.03704,110.74728 117.81336,110.39504 C119.58352,110.04336 120.98072,108.58344 121.25512,106.8004 C121.28872,106.58256 121.30552,106.36248 121.30552,106.1424 Z" id="Path"></path>
                    <path d="M119.24696,106.1424 C119.24584,105.19152 118.63376,104.3196 117.73776,103.99928 C116.84232,103.67896 115.81472,103.96288 115.21104,104.6976 C114.60736,105.43232 114.52896,106.49576 115.01728,107.31168 C115.5056,108.1276 116.48056,108.55992 117.41296,108.37512 C118.342,108.19088 119.07672,107.42368 119.22008,106.48736 C119.238,106.37312 119.24696,106.25776 119.24696,106.1424 Z" id="Path"></path>
                    <path d="M117.82792,112.36904 C117.8212,111.58672 116.81768,111.21488 116.31256,111.81912 C115.8248,112.40264 116.32152,113.316 117.07808,113.21968 C117.50368,113.16592 117.82456,112.79464 117.82792,112.36904 Z" id="Path"></path>
                    <path d="M121.97976,109.93864 C121.42872,109.40664 120.46776,109.816 120.5176,110.59944 C120.56856,111.3952 121.62416,111.68752 122.07776,111.03456 C122.3152,110.69352 122.26536,110.23432 121.97976,109.93864 Z" id="Path"></path>
                    <path d="M123.1972,105.28448 C122.41488,105.2912 122.04304,106.29472 122.64728,106.79984 C123.2308,107.2876 124.14416,106.79088 124.04784,106.03432 C123.99408,105.60928 123.6228,105.2884 123.1972,105.28448 Z" id="Path"></path>
                    <path d="M120.7668,101.13264 C120.2348,101.68368 120.64416,102.64464 121.4276,102.5948 C122.22336,102.54384 122.51568,101.48824 121.86272,101.03464 C121.52168,100.79776 121.06248,100.84704 120.7668,101.13264 Z" id="Path"></path>
                    <path d="M116.11264,99.9152 C116.11936,100.69752 117.12288,101.06936 117.628,100.46512 C118.11576,99.8816 117.61904,98.96824 116.86248,99.06456 C116.43744,99.11888 116.11656,99.4896 116.11264,99.9152 Z" id="Path"></path>
                    <path d="M113.17376,101.13264 C113.70576,101.68368 113.2964,102.64464 112.51296,102.5948 C111.7172,102.54384 111.42488,101.48824 112.07784,101.03464 C112.41944,100.79776 112.87808,100.84704 113.17376,101.13264 Z" id="Path"></path>
                    <path d="M110.74336,105.28448 C111.52568,105.2912 111.89752,106.29472 111.29328,106.79984 C110.70976,107.2876 109.7964,106.79088 109.89272,106.03432 C109.94704,105.60928 110.31776,105.2884 110.74336,105.28448 Z" id="Path"></path>
                    <path d="M111.9608,109.93864 C112.51184,109.40664 113.4728,109.816 113.42296,110.59944 C113.372,111.3952 112.3164,111.68752 111.8628,111.03456 C111.62592,110.69352 111.6752,110.23432 111.9608,109.93864 Z" id="Path"></path>
                    <path d="M286.10736,109.93864 C286.6584,109.40664 287.61936,109.816 287.56952,110.59944 C287.51856,111.3952 286.46296,111.68752 286.00936,111.03456 C285.77248,110.69352 285.82176,110.23432 286.10736,109.93864 Z" id="Path"></path>
                    <path d="M284.88992,105.28448 C285.67224,105.2912 286.04408,106.29472 285.43984,106.79984 C284.85632,107.2876 283.94296,106.79088 284.03928,106.03432 C284.0936,105.60928 284.46432,105.2884 284.88992,105.28448 Z" id="Path"></path>
                    <path d="M287.32032,101.13264 C287.85232,101.68368 287.44296,102.64464 286.65952,102.5948 C285.86376,102.54384 285.57144,101.48824 286.2244,101.03464 C286.566,100.79776 287.02464,100.84704 287.32032,101.13264 Z" id="Path"></path>
                    <path d="M290.2592,99.9152 C290.26592,100.69752 291.26944,101.06936 291.77456,100.46512 C292.26232,99.8816 291.7656,98.96824 291.00904,99.06456 C290.584,99.11888 290.26312,99.4896 290.2592,99.9152 Z" id="Path"></path>
                    <path d="M294.91336,101.13264 C294.38136,101.68368 294.79072,102.64464 295.57416,102.5948 C296.36992,102.54384 296.66224,101.48824 296.00928,101.03464 C295.66824,100.79776 295.20904,100.84704 294.91336,101.13264 Z" id="Path"></path>
                    <path d="M297.34376,105.28448 C296.56144,105.2912 296.1896,106.29472 296.79384,106.79984 C297.37736,107.2876 298.29072,106.79088 298.1944,106.03432 C298.14064,105.60928 297.76936,105.2884 297.34376,105.28448 Z" id="Path"></path>
                    <path d="M296.12632,109.93864 C295.57528,109.40664 294.61432,109.816 294.66416,110.59944 C294.71512,111.3952 295.77072,111.68752 296.22432,111.03456 C296.46176,110.69352 296.41192,110.23432 296.12632,109.93864 Z" id="Path"></path>
                    <path d="M291.97448,112.36904 C291.96776,111.58672 290.96424,111.21488 290.45912,111.81912 C289.97136,112.40264 290.46808,113.316 291.22464,113.21968 C291.65024,113.16592 291.97112,112.79464 291.97448,112.36904 Z" id="Path"></path>
                    <path d="M293.39352,106.1424 C293.3924,105.19152 292.78032,104.3196 291.88432,103.99928 C290.98888,103.67896 289.96128,103.96288 289.3576,104.6976 C288.75392,105.43232 288.67552,106.49576 289.16384,107.31168 C289.65216,108.1276 290.62712,108.55992 291.55952,108.37512 C292.48856,108.19088 293.22328,107.42368 293.36664,106.48736 C293.38456,106.37312 293.39352,106.25776 293.39352,106.1424 Z" id="Path"></path>
                    <path d="M295.45208,106.1424 C295.44928,104.3308 294.28448,102.67208 292.5776,102.06056 C290.87296,101.45016 288.9152,101.99112 287.76608,103.39112 C286.61696,104.79056 286.46688,106.81608 287.39704,108.36952 C288.3272,109.92296 290.1836,110.74728 291.95992,110.39504 C293.73008,110.04336 295.12728,108.58344 295.40168,106.8004 C295.43528,106.58256 295.45208,106.36248 295.45208,106.1424 Z" id="Path"></path>
                    <path d="M299.23544,106.1424 C299.2248,102.74936 297.05312,99.64472 293.85328,98.49952 C290.66072,97.35656 286.99496,98.37016 284.84344,100.9904 C282.69136,103.6112 282.4108,107.40408 284.15296,110.31272 C285.89512,113.22136 289.37104,114.76472 292.69688,114.10504 C296.0104,113.4476 298.62952,110.71256 299.14136,107.37328 C299.20352,106.96616 299.23376,106.55456 299.23544,106.1424 Z" id="Path"></path>
                    <path d="M301.80416,106.1424 C301.79968,103.94832 301.11816,101.7828 299.85368,99.988 C298.592,98.19656 296.78152,96.81896 294.71848,96.08088 C292.65544,95.34224 290.3824,95.25824 288.27008,95.84176 C286.1572,96.42584 284.24816,97.66624 282.85712,99.36024 C281.47112,101.04808 280.62664,103.15256 280.46032,105.3304 C280.29288,107.52336 280.81816,109.74656 281.94768,111.6332 C283.07328,113.51312 284.7768,115.0212 286.77936,115.91048 C288.7752,116.79696 291.0292,117.0512 293.17232,116.63064 C295.32384,116.2084 297.3208,115.11696 298.83672,113.53328 C300.34704,111.95576 301.34944,109.92128 301.6804,107.76248 C301.76272,107.226 301.8036,106.68448 301.80416,106.1424 Z" id="Path"></path>
                    <path d="M310.33632,106.1424 C310.3016,102.17536 309.106,98.29624 306.81112,95.04936 C304.53304,91.82656 301.26712,89.35192 297.5476,88.03144 C293.83536,86.7132 289.74232,86.56984 285.94776,87.6316 C282.16776,88.68944 278.75512,90.91152 276.26368,93.9456 C273.77224,96.97968 272.25632,100.75968 271.95448,104.67296 C271.64984,108.61816 272.59624,112.62104 274.62904,116.01576 C276.66184,119.40992 279.74352,122.13432 283.36504,123.72864 C286.95744,125.31008 291.00568,125.75808 294.85624,124.99424 C298.7068,124.2304 302.27792,122.27152 304.99448,119.43848 C307.72168,116.59424 309.52768,112.91952 310.11848,109.02416 C310.26296,108.0688 310.32792,107.10784 310.33632,106.1424 Z" id="Path"></path>
                    <path d="M119.73528,58.05408 C117.124,58.04512 114.61912,56.80248 113.05112,54.70976 C111.79448,53.03256 111.38288,51.1056 111.38288,49.0532 C111.38288,46.21792 111.38288,43.3832 111.38288,40.54792 C111.38288,36.7052 111.38288,32.86192 111.38288,29.0192 C111.38288,27.09392 111.33416,25.16136 111.38624,23.23608 C111.45624,20.6276 112.77336,18.15128 114.90248,16.64096 C116.56792,15.45936 118.4456,15.1004 120.44312,15.1004 C123.19272,15.1004 125.94176,15.1004 128.69136,15.1004 C132.59232,15.1004 136.49384,15.1004 140.3948,15.1004 C142.92824,15.1004 145.46168,15.1004 147.99568,15.1004 C150.1192,15.1004 152.13296,15.6912 153.77376,17.0828 C155.65312,18.67656 156.70648,21.02912 156.72384,23.48304 C156.73896,25.6312 156.72384,27.78048 156.72384,29.92864 C156.72384,33.80328 156.72384,37.67848 156.72384,41.55312 C156.72384,44.16216 156.72384,46.7712 156.72384,49.38024 C156.72384,51.5564 156.0664,53.62504 154.5992,55.26696 C152.99872,57.05784 150.70496,58.04008 148.31432,58.05408 C146.21488,58.0664 144.11544,58.05408 142.01656,58.05408 C138.16208,58.05408 134.3076,58.05408 130.45312,58.05408 C127.35856,58.05408 124.26344,58.05408 121.16888,58.05408 C120.69064,58.05408 120.21296,58.05408 119.73528,58.05408 Z" id="Path"></path>
                    <path d="M71.41176,58.05408 C68.80048,58.04512 66.2956,56.80248 64.7276,54.70976 C63.47096,53.03256 63.05936,51.1056 63.05936,49.0532 C63.05936,46.21792 63.05936,43.3832 63.05936,40.54792 C63.05936,36.7052 63.05936,32.86192 63.05936,29.0192 C63.05936,27.09392 63.01064,25.16136 63.06272,23.23608 C63.13272,20.6276 64.44984,18.15128 66.57896,16.64096 C68.2444,15.45936 70.12208,15.1004 72.1196,15.1004 C74.8692,15.1004 77.61824,15.1004 80.36784,15.1004 C84.2688,15.1004 88.17032,15.1004 92.07128,15.1004 C94.60472,15.1004 97.13816,15.1004 99.67216,15.1004 C101.79568,15.1004 103.80944,15.6912 105.45024,17.0828 C107.3296,18.67656 108.38296,21.02912 108.40032,23.48304 C108.41544,25.6312 108.40032,27.78048 108.40032,29.92864 C108.40032,33.80328 108.40032,37.67848 108.40032,41.55312 C108.40032,44.16216 108.40032,46.7712 108.40032,49.38024 C108.40032,51.5564 107.74288,53.62504 106.27568,55.26696 C104.6752,57.05784 102.38144,58.04008 99.9908,58.05408 C97.89136,58.0664 95.79192,58.05408 93.69304,58.05408 C89.83856,58.05408 85.98408,58.05408 82.1296,58.05408 C79.03504,58.05408 75.93992,58.05408 72.84536,58.05408 C72.36712,58.05408 71.88944,58.05408 71.41176,58.05408 Z" id="Path"></path>
                    <path d="M23.0888,58.05408 C20.47752,58.04512 17.97264,56.80248 16.40464,54.70976 C15.148,53.03256 14.7364,51.1056 14.7364,49.0532 C14.7364,46.21792 14.7364,43.3832 14.7364,40.54792 C14.7364,36.7052 14.7364,32.86192 14.7364,29.0192 C14.7364,27.09392 14.68768,25.16136 14.73976,23.23608 C14.80976,20.6276 16.12688,18.15128 18.256,16.64096 C19.92144,15.45936 21.79912,15.1004 23.79664,15.1004 C26.54624,15.1004 29.29528,15.1004 32.04488,15.1004 C35.94584,15.1004 39.84736,15.1004 43.74832,15.1004 C46.28176,15.1004 48.8152,15.1004 51.3492,15.1004 C53.47272,15.1004 55.48648,15.6912 57.12728,17.0828 C59.00664,18.67656 60.06,21.02912 60.07736,23.48304 C60.09248,25.6312 60.07736,27.78048 60.07736,29.92864 C60.07736,33.80328 60.07736,37.67848 60.07736,41.55312 C60.07736,44.16216 60.07736,46.7712 60.07736,49.38024 C60.07736,51.5564 59.41992,53.62504 57.95272,55.26696 C56.35224,57.05784 54.05848,58.04008 51.66784,58.05408 C49.5684,58.0664 47.46896,58.05408 45.37008,58.05408 C41.5156,58.05408 37.66112,58.05408 33.80664,58.05408 C30.71208,58.05408 27.61696,58.05408 24.5224,58.05408 C24.04416,58.05408 23.56648,58.05408 23.0888,58.05408 Z" id="Path"></path>
                    <path d="M159.70584,99.70688 C156.68072,99.70688 153.6556,99.70688 150.62992,99.70688 C148.35128,99.70688 146.03512,99.83288 143.79288,99.3468 C141.7136,98.896 139.79336,97.97312 138.10104,96.6896 C136.03744,95.1244 134.39832,93.114 132.5772,91.2912 C130.78856,89.50088 128.75072,87.97096 126.47544,86.85264 C124.30376,85.78528 121.95624,85.08584 119.5544,84.79408 C117.516,84.54656 115.4412,84.59248 113.41568,84.93184 C110.79432,85.37088 108.26088,86.29768 105.97608,87.65568 C103.89008,88.89552 102.07232,90.51056 100.34528,92.20288 C98.61432,93.89912 96.89848,95.60208 94.88808,96.97352 C93.06192,98.21952 91.03416,99.12392 88.84512,99.484 C87.51064,99.70352 86.16216,99.70688 84.81424,99.70688 C83.09672,99.70688 81.3792,99.70688 79.66168,99.70688 C76.78104,99.70688 73.9004,99.70688 71.02032,99.70688 C67.34952,99.70688 63.67872,99.70688 60.00792,99.70688 C55.97704,99.70688 51.94616,99.70688 47.91528,99.70688 C43.88664,99.70688 39.858,99.70688 35.8288,99.70688 C32.23584,99.70688 28.64232,99.70688 25.04936,99.70688 C22.25776,99.70688 19.46672,99.70688 16.67512,99.70688 C15.10376,99.70688 13.53296,99.70688 11.9616,99.70688 C11.75832,99.70688 11.5556,99.70688 11.35232,99.70688" id="Path"></path>
                    <path d="M159.70584,96.50704 C156.66392,96.50704 153.622,96.50704 150.58008,96.50704 C148.50696,96.50704 146.35656,96.65992 144.31984,96.18896 C141.87432,95.62336 139.8768,94.18864 138.11952,92.44872 C136.22448,90.57216 134.51816,88.54832 132.43272,86.87056 C130.7096,85.484 128.79272,84.33264 126.7616,83.45736 C124.58152,82.51768 122.26872,81.89328 119.91168,81.60992 C117.54568,81.32544 115.13936,81.3876 112.79128,81.79024 C110.5132,82.18112 108.29112,82.89288 106.21072,83.89976 C104.05192,84.94472 102.08576,86.3128 100.282,87.88976 C98.38584,89.54792 96.70584,91.4368 94.76992,93.0496 C93.01264,94.51344 91.0476,95.77568 88.77848,96.24272 C87.51904,96.502 86.23776,96.5076 84.95816,96.5076 C83.29944,96.5076 81.64128,96.5076 79.98256,96.5076 C77.11648,96.5076 74.2504,96.5076 71.38488,96.5076 C67.71744,96.5076 64.05056,96.5076 60.38312,96.5076 C56.32088,96.5076 52.25808,96.5076 48.19584,96.5076 C44.16216,96.5076 40.12848,96.5076 36.0948,96.5076 C32.4576,96.5076 28.82096,96.5076 25.18376,96.5076 C22.36808,96.5076 19.55296,96.5076 16.73728,96.5076 C15.14968,96.5076 13.56152,96.5076 11.97392,96.5076 C11.76728,96.5076 11.56008,96.5076 11.35344,96.5076" id="Path"></path>
                    <path d="M2.78992,112.21224 C5.6056,112.2296 8.42296,112.27552 11.2364,112.3836 C14.48888,112.50848 17.74304,112.61208 20.9944,112.7588 C22.946,112.84672 24.89704,112.95816 26.84752,113.05784 C31.02512,113.2712 35.20216,113.48512 39.37976,113.69848 C43.8536,113.92696 48.32744,114.156 52.80184,114.38448 C55.70096,114.53288 58.60008,114.68072 61.4992,114.82912 C63.79464,114.94672 66.09288,114.98984 68.39056,115.03688 C70.73696,115.08504 73.08448,115.0744 75.43144,115.0744 C79.76136,115.0744 84.09128,115.0744 88.42064,115.0744 C89.88504,115.0744 91.35,115.0744 92.8144,115.0744 C93.46904,115.0744 94.05536,115.01784 94.21832,114.24784 C94.50784,112.87696 94.73184,111.52064 95.15632,110.17832 C95.58584,108.81976 96.12848,107.49648 96.77808,106.22864 C98.09464,103.65768 99.85416,101.31352 101.98216,99.358 C104.03064,97.47584 106.41624,95.95992 109.00512,94.93736 C111.384,93.99824 113.92192,93.478 116.47888,93.41864 C118.9664,93.36096 121.46008,93.74232 123.81992,94.53024 C126.43176,95.40216 128.87112,96.77024 130.99632,98.52024 C133.23744,100.366 135.1252,102.6256 136.5728,105.14056 C137.97896,107.58328 138.97128,110.26176 139.51336,113.0276 C139.67352,113.8452 139.59904,115.01112 140.68208,115.07496 C141.82504,115.14216 142.99264,115.07496 144.13728,115.07496 C148.4168,115.07496 152.69576,115.07496 156.97528,115.07496 C157.88584,115.07496 158.7964,115.07496 159.70696,115.07496" id="Path"></path>
                    <path d="M209.81128,115.0744 C210.56672,115.0744 211.34288,115.13096 212.09608,115.0744 C212.4864,115.04472 212.82408,114.85096 212.9652,114.46568 C213.16512,113.92024 213.11864,113.23088 213.17072,112.65128 C213.23568,111.92608 213.29952,111.20088 213.35216,110.47456 C213.4888,108.58176 213.56272,106.68784 213.56272,104.79056 C213.56272,103.11112 213.56272,101.43168 213.56272,99.75224 C213.56272,96.64536 213.56272,93.53792 213.56272,90.43104 C213.56272,86.3884 213.56272,82.34576 213.56272,78.30312 C213.56272,73.83264 213.56272,69.3616 213.56272,64.89112 C213.56272,60.4604 213.56272,56.02912 213.56272,51.5984 C213.56272,47.6756 213.56272,43.7528 213.56272,39.83 C213.56272,36.932 213.56272,34.034 213.56272,31.136 C213.56272,29.72816 213.56272,28.32032 213.56272,26.91248 C213.56272,26.84976 213.56272,26.7876 213.56272,26.72488" id="Path"></path>
                    <path d="M159.70584,116.8636 C159.70584,116.3372 159.70584,115.81136 159.70584,115.28496 C159.70584,113.82112 159.70584,112.35784 159.70584,110.894 C159.70584,108.6372 159.70584,106.3804 159.70584,104.12304 C159.70584,101.25192 159.70584,98.3808 159.70584,95.50968 C159.70584,92.15472 159.70584,88.79976 159.70584,85.44424 C159.70584,81.79528 159.70584,78.14576 159.70584,74.4968 C159.70584,70.67592 159.70584,66.8556 159.70584,63.03472 C159.70584,59.2368 159.70584,55.43944 159.70584,51.64152 C159.70584,47.98808 159.70584,44.33408 159.70584,40.68064 C159.70584,37.36376 159.70584,34.04688 159.70584,30.73 C159.70584,27.87568 159.70584,25.02192 159.70584,22.1676 C159.70584,19.95224 159.70584,17.73688 159.70584,15.52152 C159.70584,14.10864 159.70584,12.6952 159.70584,11.28232 C159.70584,11.0796 159.56528,10.01784 159.7176,9.87784 C159.83744,9.76808 160.57216,9.87784 160.72616,9.87784 C161.5516,9.87784 162.37704,9.87784 163.20248,9.87784 C165.9588,9.87784 168.71512,9.87784 171.47144,9.87784 C175.0812,9.87784 178.69152,9.87784 182.30128,9.87784 C186.08128,9.87784 189.86184,9.87784 193.64184,9.87784 C196.84168,9.87784 200.04096,9.87784 203.2408,9.87784 C205.17224,9.87784 207.10368,9.87784 209.03512,9.87784 C209.1432,9.87784 209.72952,9.79608 209.81072,9.8784 C209.85664,9.92488 209.81072,10.2452 209.81072,10.30624 C209.81072,11.33944 209.81072,12.37264 209.81072,13.40584 C209.81072,15.29248 209.81072,17.17968 209.81072,19.06632 C209.81072,21.66696 209.81072,24.2676 209.81072,26.86824 C209.81072,30.01656 209.81072,33.16488 209.81072,36.3132 C209.81072,39.8328 209.81072,43.35184 209.81072,46.87144 C209.81072,50.638 209.81072,54.404 209.81072,58.17056 C209.81072,61.99032 209.81072,65.80952 209.81072,69.62928 C209.81072,73.38072 209.81072,77.13272 209.81072,80.88416 C209.81072,84.37464 209.81072,87.86456 209.81072,91.35504 C209.81072,94.45968 209.81072,97.56432 209.81072,100.6684 C209.81072,103.1996 209.81072,105.73136 209.81072,108.26256 C209.81072,110.0876 209.81072,111.91208 209.81072,113.73712 C209.81072,114.68016 209.81072,115.6232 209.81072,116.5668 C209.81072,116.64072 209.83816,116.82272 209.79224,116.86304 C209.65896,116.97952 208.88616,116.86304 208.71984,116.86304 C206.63944,116.86304 204.55904,116.86304 202.4792,116.86304 C199.1976,116.86304 195.916,116.86304 192.6344,116.86304 C188.83816,116.86304 185.04192,116.86304 181.24568,116.86304 C177.68576,116.86304 174.12584,116.86304 170.56592,116.86304 C167.92664,116.86304 165.2868,116.86304 162.64752,116.86304 C161.66752,116.8636 160.68696,116.8636 159.70584,116.8636 Z" id="Path"></path>
                    <line x1="159.70584" y1="11.07176" x2="11.35344" y2="11.07176" id="Path"></line>
                    <line x1="159.70584" y1="11.07176" x2="209.81128" y2="11.07176" id="Path"></line>
                    <path d="M178.19704,20.82192 C178.19424,18.46992 176.54168,16.3632 174.25352,15.81048 C173.67168,15.66992 173.0904,15.666 172.49568,15.666 C171.5616,15.666 170.60792,15.6072 169.67496,15.68336 C168.52472,15.77744 167.4232,16.26576 166.57984,17.05256 C165.74208,17.83432 165.18096,18.89216 165.00344,20.02392 C164.87016,20.874 164.94128,21.77616 164.94128,22.63128 C164.94128,27.56208 164.94128,32.49288 164.94128,37.42368 C164.94128,41.40584 164.9368,45.38856 164.94128,49.37072 C164.94352,51.506 166.07696,53.46712 168.08288,54.31888 C169.51368,54.92648 171.14888,54.7288 172.66032,54.7288 C173.82344,54.7288 174.91152,54.52048 175.89544,53.86584 C176.84968,53.23136 177.57544,52.27936 177.93552,51.19128 C178.20488,50.37648 178.19648,49.55496 178.19648,48.71048 C178.19648,44.16888 178.19648,39.62672 178.19648,35.08512 C178.19648,30.5844 178.19648,26.08312 178.19648,21.5824 C178.19704,21.32984 178.19704,21.0756 178.19704,20.82192 Z" id="Path"></path>
                    <path d="M178.19704,64.9712 C178.19536,62.84488 176.84184,60.88936 174.84936,60.14288 C173.39056,59.59632 171.69488,59.80408 170.17952,59.81528 C169.1676,59.82256 168.1904,60.074 167.33136,60.62 C165.61608,61.71032 164.94128,63.50904 164.94128,65.46176 C164.94128,70.99792 164.94128,76.53464 164.94128,82.0708 C164.94128,87.34936 164.9396,92.62792 164.94128,97.90648 C164.94184,99.86872 165.83112,101.68704 167.58504,102.66592 C168.61488,103.24048 169.6744,103.31944 170.82744,103.31944 C172.26888,103.31944 173.76184,103.47904 175.11592,102.8832 C177.00592,102.05216 178.17632,100.16776 178.19592,98.1232 C178.24296,93.33128 178.19592,88.536 178.19592,83.74352 C178.19592,77.83048 178.19592,71.91744 178.19592,66.0044 C178.19704,65.66 178.19704,65.3156 178.19704,64.9712 Z" id="Path"></path>
                    <line x1="164.94184" y1="92.96224" x2="178.19704" y2="92.96224" id="Path"></line>
                    <line x1="161.55496" y1="11.07176" x2="161.55496" y2="116.8636" id="Path"></line>
                    <line x1="181.58336" y1="11.07176" x2="181.58336" y2="111.68136" id="Path"></line>
                    <line x1="184.75856" y1="11.07176" x2="184.75856" y2="111.68136" id="Path"></line>
                    <line x1="184.75856" y1="11.07176" x2="184.75856" y2="111.68136" id="Path"></line>
                    <line x1="187.93376" y1="11.07176" x2="187.93376" y2="111.68136" id="Path"></line>
                    <line x1="207.96216" y1="11.07176" x2="207.96216" y2="116.8636" id="Path"></line>
                    <line x1="204.57584" y1="92.96224" x2="191.32064" y2="92.96224" id="Path"></line>
                    <path d="M191.32064,64.9712 C191.32232,62.84488 192.67584,60.88936 194.66832,60.14288 C196.12712,59.59632 197.8228,59.80408 199.33816,59.81528 C200.35008,59.82256 201.32728,60.074 202.18632,60.62 C203.9016,61.71032 204.5764,63.50904 204.5764,65.46176 C204.5764,70.99792 204.5764,76.53464 204.5764,82.0708 C204.5764,87.34936 204.57808,92.62792 204.5764,97.90648 C204.57584,99.86872 203.68656,101.68704 201.93264,102.66592 C200.9028,103.24048 199.84328,103.31944 198.69024,103.31944 C197.2488,103.31944 195.75584,103.47904 194.40176,102.8832 C192.51176,102.05216 191.34136,100.16776 191.32176,98.1232 C191.27472,93.33128 191.32176,88.536 191.32176,83.74352 C191.32176,77.83048 191.32176,71.91744 191.32176,66.0044 C191.32064,65.66 191.32064,65.3156 191.32064,64.9712 Z" id="Path"></path>
                    <path d="M191.32064,20.82192 C191.32344,18.46992 192.976,16.3632 195.26416,15.81048 C195.846,15.66992 196.42728,15.666 197.022,15.666 C197.95608,15.666 198.90976,15.6072 199.84272,15.68336 C200.99296,15.77744 202.09448,16.26576 202.9384,17.05256 C203.77616,17.83432 204.33728,18.89216 204.5148,20.02392 C204.64808,20.874 204.57696,21.77616 204.57696,22.63128 C204.57696,27.56208 204.57696,32.49288 204.57696,37.42368 C204.57696,41.40584 204.58144,45.38856 204.57696,49.37072 C204.57472,51.506 203.44128,53.46712 201.43536,54.31888 C200.00456,54.92648 198.36936,54.7288 196.85792,54.7288 C195.6948,54.7288 194.60672,54.52048 193.6228,53.86584 C192.66856,53.23136 191.9428,52.27936 191.58272,51.19128 C191.31336,50.37648 191.32176,49.55496 191.32176,48.71048 C191.32176,44.16888 191.32176,39.62672 191.32176,35.08512 C191.32176,30.5844 191.32176,26.08312 191.32176,21.5824 C191.32064,21.32984 191.32064,21.0756 191.32064,20.82192 Z" id="Path"></path>
                    <line x1="161.55496" y1="115.0744" x2="207.96216" y2="115.0744" id="Path"></line>
                    <line x1="161.55496" y1="111.68136" x2="207.96216" y2="111.68136" id="Path"></line>
                </g>
            </g>
        </g>
    </g>
</svg>