<?xml version="1.0" encoding="UTF-8"?>
<svg width="248px" height="115px" viewBox="0 0 248 115" version="1.1" xmlns="http://www.w3.org/2000/svg" xmlns:xlink="http://www.w3.org/1999/xlink">
    <!-- Generator: Sketch 63.1 (92452) - https://sketch.com -->
    <title>5d8af61e08d7f80b295d3393_Dimensions-Guide-Transport-Full-Size-Vans-Icon</title>
    <desc>Created with Sketch.</desc>
    <g id="WebApp" stroke="none" stroke-width="1" fill="none" fill-rule="evenodd" stroke-linecap="round" stroke-linejoin="round">
        <g id="Artboard-Copy-40" transform="translate(-321.000000, -423.000000)" stroke="#594FEE" stroke-width="1.4">
            <g id="Group-2" transform="translate(322.000000, 357.000000)">
                <g id="5d8af61e08d7f80b295d3393_Dimensions-Guide-Transport-Full-Size-Vans-Icon" transform="translate(0.000000, 67.000000)">
                    <path d="M70.1497086,96.2041445 C70.13458,94.485057 69.8866388,92.7798465 69.3617599,91.1406578 C68.8478072,89.5346903 68.0938978,88.0115652 67.1265069,86.6305761 C66.1418862,85.2251967 64.9366399,83.9733074 63.5704418,82.9354629 C62.2176915,81.9077109 60.7090323,81.0893781 59.1100217,80.5166293 C57.5147933,79.945142 55.8329956,79.6188181 54.1394311,79.5536375 C52.421913,79.4876158 50.6926282,79.688204 49.0368853,80.1507765 C47.4135009,80.6040975 45.864919,81.3021615 44.4491327,82.2167935 C43.0098131,83.1465642 41.7163164,84.3046775 40.6287371,85.6297374 C39.5487221,86.9459664 38.6712624,88.4295625 38.0396427,90.0111399 C37.4101242,91.5876711 37.0230838,93.2558757 36.8940703,94.9484705 C36.7633759,96.6599887 36.9016346,98.3929535 37.299181,100.06242 C37.6929452,101.715486 38.3401138,103.306314 39.2125306,104.764259 C40.0832665,106.218839 41.1758887,107.539273 42.4433305,108.665006 C43.7288425,109.806719 45.1925361,110.749526 46.7650716,111.443806 C48.3073499,112.124208 49.9467035,112.567857 51.6209369,112.760455 C53.3229061,112.955997 55.057654,112.882406 56.7377708,112.548933 C58.4073816,112.217563 60.0257232,111.627993 61.5175728,110.807138 C63.0039592,109.988805 64.360912,108.944652 65.5342202,107.718835 C66.7205558,106.479141 67.7127408,105.052315 68.4641287,103.509426 C69.2083725,101.981675 69.7168621,100.341645 69.9673247,98.6604045 C70.0883536,97.8458564 70.1425645,97.027103 70.1497086,96.2041445 Z" id="Path"></path>
                    <path d="M62.7387882,96.2041445 C62.7329049,94.3059152 62.1470913,92.4316556 61.0523679,90.8790941 C59.9601659,89.3298968 58.3964554,88.1368803 56.6121192,87.4985303 C54.8269426,86.8597597 52.8640048,86.7874302 51.036384,87.2916342 C49.2096037,87.7954177 47.5580632,88.871109 46.3557585,90.3362022 C45.1576562,91.7962492 44.4260196,93.6179438 44.2835584,95.5018754 C44.1398366,97.3996842 44.5924343,99.3223036 45.569911,100.955185 C46.5436055,102.582599 48.016124,103.88495 49.74751,104.655764 C51.4730126,105.423635 53.4220826,105.641464 55.2749177,105.278976 C57.1340565,104.915226 58.8633413,103.969055 60.172807,102.598999 C61.4776501,101.233569 62.346705,99.4741115 62.6316272,97.6061597 C62.7022274,97.1414846 62.7371073,96.6734454 62.7387882,96.2041445 Z" id="Path"></path>
                    <path d="M61.4864751,96.2041445 C61.4831132,94.5628532 60.9737831,92.9430085 60.0286649,91.6007072 C59.0852276,90.2609291 57.732057,89.230654 56.190199,88.6780901 C54.6479207,88.1255262 52.9488931,88.0624482 51.370054,88.4993689 C49.7907947,88.9358691 48.3636619,89.8639578 47.3239899,91.1314064 C46.2881,92.3938088 45.6569005,93.9682373 45.5325097,95.596913 C45.4072784,97.2369428 45.7997819,98.9001011 46.6444629,100.311368 C47.485782,101.717588 48.7591071,102.845424 50.2559996,103.510687 C51.7478492,104.173428 53.4325886,104.363923 55.0345409,104.049374 C56.6427967,103.733563 58.1354868,102.916912 59.2688722,101.732306 C60.3980552,100.552326 61.1469217,99.0304625 61.3944427,97.4160845 C61.4553774,97.014908 61.4856346,96.6095262 61.4864751,96.2041445 Z" id="Path"></path>
                    <path d="M58.7834958,96.2041445 C58.7797136,93.9938891 57.3605655,91.9699242 55.2786999,91.2243414 C53.2001962,90.4795997 50.8132369,91.1398168 49.412159,92.8475503 C48.0106609,94.5557044 47.8286973,97.0258415 48.962503,98.9215477 C50.0963086,100.817254 52.3605581,101.822298 54.525631,101.392526 C56.6822992,100.964436 58.3893113,99.1818498 58.7217206,97.0064975 C58.7629041,96.7411491 58.7834958,96.4728571 58.7834958,96.2041445 Z" id="Path"></path>
                    <path d="M216.205144,96.2041445 C216.201362,93.9938891 214.781793,91.9699242 212.700348,91.2243414 C210.621844,90.4795997 208.234885,91.1398168 206.833807,92.8475503 C205.432309,94.5557044 205.250345,97.0258415 206.384151,98.9215477 C207.517957,100.817254 209.782206,101.822298 211.947279,101.392526 C214.103947,100.964436 215.810959,99.1818498 216.143368,97.0064975 C216.184552,96.7411491 216.205144,96.4728571 216.205144,96.2041445 Z" id="Path"></path>
                    <path d="M218.907703,96.2041445 C218.904341,94.5628532 218.39459,92.9430085 217.449893,91.6007072 C216.506455,90.2609291 215.153285,89.230654 213.611427,88.6780901 C212.069148,88.1255262 210.370121,88.0624482 208.791282,88.4993689 C207.212022,88.9358691 205.78489,89.8639578 204.745218,91.1314064 C203.709328,92.3938088 203.078128,93.9682373 202.953737,95.596913 C202.828506,97.2369428 203.22101,98.9001011 204.065691,100.311368 C204.90701,101.717588 206.180335,102.845424 207.677227,103.510687 C209.169077,104.173428 210.853816,104.363923 212.455768,104.049374 C214.064024,103.733563 215.556714,102.916912 216.6901,101.732306 C217.819283,100.552326 218.568149,99.0304625 218.81567,97.4160845 C218.877025,97.014908 218.907282,96.6095262 218.907703,96.2041445 Z" id="Path"></path>
                    <path d="M220.160436,96.2041445 C220.154553,94.3059152 219.568739,92.4316556 218.474016,90.8790941 C217.381814,89.3298968 215.818103,88.1368803 214.033767,87.4985303 C212.24859,86.8597597 210.285653,86.7874302 208.458032,87.2916342 C206.631252,87.7954177 204.979711,88.871109 203.777406,90.3362022 C202.579304,91.7962492 201.847667,93.6179438 201.705206,95.5018754 C201.561484,97.3996842 202.014082,99.3223036 202.991559,100.955185 C203.965253,102.582599 205.437772,103.88495 207.169158,104.655764 C208.894661,105.423635 210.84373,105.641464 212.696566,105.278976 C214.555704,104.915226 216.284989,103.969055 217.594455,102.598999 C218.899298,101.233569 219.768353,99.4741115 220.053275,97.6061597 C220.123875,97.1414846 220.158755,96.6734454 220.160436,96.2041445 Z" id="Path"></path>
                    <path d="M227.570936,96.2041445 C227.555808,94.485057 227.307866,92.7798465 226.782987,91.1406578 C226.269035,89.5346903 225.515125,88.0115652 224.547735,86.6305761 C223.563114,85.2251967 222.357867,83.9733074 220.991669,82.9354629 C219.638919,81.9077109 218.13026,81.0893781 216.531249,80.5166293 C214.936021,79.945142 213.254223,79.6188181 211.560659,79.5536375 C209.843141,79.4876158 208.113856,79.688204 206.458113,80.1507765 C204.834728,80.6040975 203.286147,81.3021615 201.87036,82.2167935 C200.431041,83.1465642 199.137544,84.3046775 198.049965,85.6297374 C196.96995,86.9459664 196.09249,88.4295625 195.46087,90.0111399 C194.831352,91.5876711 194.444732,93.2558757 194.315298,94.9484705 C194.184603,96.6599887 194.322862,98.3929535 194.720409,100.06242 C195.114173,101.715486 195.761341,103.306314 196.633758,104.764259 C197.504494,106.218839 198.597116,107.539273 199.864558,108.665006 C201.15007,109.806719 202.613764,110.749526 204.186299,111.443806 C205.728578,112.124208 207.367931,112.567857 209.042165,112.760455 C210.744134,112.955997 212.478882,112.882406 214.158998,112.548933 C215.828609,112.217563 217.446951,111.627993 218.9388,110.807138 C220.425187,109.988805 221.78214,108.944652 222.955448,107.718835 C224.141783,106.479141 225.133968,105.052315 225.885356,103.509426 C226.6296,101.981675 227.13809,100.341645 227.388552,98.6604045 C227.510002,97.8458564 227.563792,97.027103 227.570936,96.2041445 Z" id="Path"></path>
                    <path d="M199.30522,39.7719828 C199.238402,39.2353987 199.195537,38.6828348 198.660993,38.4141222 C198.172254,38.1685383 197.572153,38.16181 197.037188,38.1600364 C196.499702,38.1584458 195.95129,38.1794718 195.420107,38.2648375 C194.759071,38.3708086 194.510709,38.7143738 194.38968,39.3615548 C194.189226,40.4317793 194.201413,41.5600357 194.172417,42.6449784 C194.134175,44.0667581 194.097194,45.4881172 194.074921,46.9103173 C194.05559,48.1563194 193.991714,49.4204039 194.095933,50.6638828 C194.137957,51.1655637 194.206036,51.6764961 194.603162,52.0267896 C195.013736,52.3888577 195.578117,52.5869228 196.1093,52.6802784 C196.649727,52.775316 197.206965,52.7677466 197.751595,52.7118174 C198.366405,52.6483188 199.193436,52.5486555 199.603589,52.0272101 C199.942302,51.5965972 199.933057,50.9553035 199.939361,50.4346992 C199.947345,49.7694358 199.910364,49.1029109 199.882208,48.4389091 C199.770424,45.8325234 199.637209,43.2219325 199.395991,40.6239572 C199.369096,40.3396854 199.338418,40.0558341 199.30522,39.7719828 Z" id="Path"></path>
                    <line x1="32.8085037" y1="99.320201" x2="37.0310683" y2="98.6839536" id="Path"></line>
                    <line x1="72.9808609" y1="94.1393891" x2="70.0211154" y2="94.1393891" id="Path"></line>
                    <path d="M31.0094591,95.5821948 C28.4430576,95.3387135 25.8842204,95.0414055 23.3329476,94.6692449 C20.8539558,94.3075973 18.3795867,93.8933847 15.9245486,93.3929654 C13.4493391,92.8883408 10.9707676,92.326105 8.54640697,91.6129023 C7.99673395,91.4510019 7.44832164,91.2798501 6.91251651,91.0754772 C6.36158277,90.8656375 5.71945709,90.6326691 5.33115597,90.1658914 C4.96554776,89.7264476 4.8323319,89.0855744 4.68987077,88.5443646 C4.5373239,87.9636259 4.4015866,87.3723741 4.3246828,86.7764967 C4.29778749,86.567498 4.25618379,86.3294834 4.29694701,86.1196437 C4.35115788,85.8387361 4.58144903,85.7579961 4.74408164,85.5511001 C5.05085634,85.1612776 4.7457626,84.50064 4.65625162,84.0784375 C4.39906516,82.8635539 4.25240164,81.6263828 4.10615836,80.3942578 C3.9729425,79.2735709 3.82375754,78.1171396 3.91032684,76.9872012 C3.95066981,76.4623917 4.0435427,75.8791298 4.49614044,75.5473392 C4.92898694,75.2298462 5.53833395,75.1713939 6.05522831,75.1272393 C7.55758386,74.9981395 9.09944191,75.0763563 10.6047391,75.0763563 C13.8947928,75.0763563 17.1848464,75.0763563 20.4753202,75.0759358 C24.1898155,75.0759358 27.9043108,75.0755152 31.6188062,75.0755152 C33.8691877,75.0755152 36.119149,75.0755152 38.3695305,75.0755152 C38.4808939,75.0755152 38.5926776,75.0755152 38.704041,75.0755152" id="Path"></path>
                    <line x1="15.4429544" y1="83.1612824" x2="16.4742217" y2="93.5031417" id="Path"></line>
                    <line x1="15.4429544" y1="83.1612824" x2="33.2938801" y2="84.0889505" id="Path"></line>
                    <path d="M12.0831411,75.0750947 C11.9978325,76.3946879 12.1197019,77.7222709 12.2827547,79.0313511 C12.4344611,80.2487578 12.5596924,81.6869377 13.4884213,82.5961029 C14.0284289,83.1246971 14.7335904,83.1192303 15.4429544,83.1612824" id="Path"></path>
                    <path d="M8.4804294,91.5931378 C8.4804294,91.9034819 8.4804294,92.2134055 8.4804294,92.5237496 C8.4804294,92.6402338 8.54976889,93.1347658 8.47034366,93.2049927 C8.42537805,93.2449422 8.16945231,93.2049927 8.11145928,93.2049927 C7.84965019,93.2049927 7.58784109,93.2049927 7.326032,93.2049927 C5.68205579,93.2049927 4.03807959,93.2049927 2.39410338,93.2049927 C1.76248369,93.2049927 1.13128424,93.2049927 0.499664547,93.2049927 C0.439570325,93.2049927 0.173558838,93.2457832 0.125651556,93.2049927 C0.0727014017,93.1595765 0.111783658,92.8732021 0.111783658,92.7979289 C0.111783658,92.0262739 0.111783658,91.2541984 0.111783658,90.4825433 C0.111783658,90.3282123 0.0748025983,90.2647138 0.173138598,90.2125692 C0.310977094,90.1402397 0.688352,90.2125692 0.841319111,90.2125692 C2.35165921,90.2125692 3.86199932,90.2125692 5.37233942,90.2125692" id="Path"></path>
                    <path d="M12.0831411,75.0750947 C11.9906884,72.694949 11.8864691,70.3143828 11.8692392,67.9321344 C11.8507487,65.38336 11.8604142,62.8358471 11.9314347,60.2879138 C12.0016146,57.7685758 12.114659,55.2513404 12.2625832,52.7353665 C12.4159706,50.1260372 12.6231486,47.520913 12.8198206,44.9145273 C12.9950604,42.594516 13.2026586,40.2757662 13.4220235,37.9599601 C13.6397075,35.6664416 13.8720998,33.3729231 14.1351696,31.0840303 C14.4516098,28.3292009 14.7865406,25.5794177 15.143744,22.829214 C15.4341294,20.5924657 15.7644375,18.3599227 16.1258433,16.1336874 C16.5431409,13.5643075 16.9780886,10.9999738 17.4878389,8.44657368 C17.9379152,6.19426617 18.4350583,3.917989 19.2578869,1.76786796 C19.4465744,1.27459747 19.6579547,0.79226052 19.8899268,0.317913457" id="Path"></path>
                    <path d="M213.750526,49.2774269 C217.002758,50.6512672 220.269698,51.9935685 223.502599,53.412825 C226.883004,54.8972622 230.256265,56.4006228 233.566911,58.0368678 C235.171805,58.8299694 236.766193,59.6529279 238.321078,60.540226 C239.694,61.3240761 241.02826,62.153763 242.112477,63.3198662 C242.708797,63.9615804 243.121052,64.6571212 243.274859,65.5225523 C243.406814,66.2643503 243.4522,67.0233897 243.506411,67.7740187 C243.639207,69.6083289 243.775364,71.4426391 243.865295,73.2798929 C243.906899,74.1310263 243.942619,74.9834213 243.938837,75.8358162 C243.935475,76.7062935 243.869918,77.5612116 244.230483,78.3766007 C244.568356,79.1406864 245.177703,79.7071274 245.566004,80.4312636 C245.885386,81.0271411 245.782847,81.7428669 245.75301,82.3921505 C245.669803,84.2020705 245.549615,86.0140931 245.609709,87.8273772 C245.662659,89.4182061 246.102229,91.0330046 245.326888,92.5212265 C244.512464,94.084301 243.009688,94.7932984 241.376218,95.2138189 C239.57087,95.678494 237.712151,95.9514117 235.879908,96.2827819 C235.133143,96.4177689 234.383016,96.5418225 233.641293,96.7058254 C233.252152,96.7920321 232.836955,96.8782388 232.492779,97.088499 C232.12633,97.3122159 231.912429,97.6759661 231.678355,98.023316 C231.474959,98.3252497 231.271984,98.5413972 230.89671,98.5905981 C230.554215,98.6351732 230.03522,98.6292859 229.853676,98.2773103 C229.696086,97.9720125 229.732647,97.5300455 229.725923,97.1974138 C229.715417,96.686061 229.714157,96.1742876 229.706592,95.6629347 C229.659105,92.4446917 229.148935,89.3076092 227.985292,86.2983649 C226.781727,83.1856726 224.914183,80.4560743 222.141864,78.54565 C219.235069,76.5422906 215.750865,75.4169778 212.237244,75.1983072 C208.848854,74.9876265 205.555019,75.6919982 202.464158,77.0687822 C199.619138,78.3362308 197.14687,80.1537201 195.112072,82.5157835 C192.873037,85.1141793 191.375304,88.1944916 190.138119,91.371103 C189.477083,93.0687441 188.920686,94.7987652 188.356725,96.5300479 C188.258389,96.8319816 188.166776,97.1789109 187.949513,97.4202897 C187.701992,97.6957306 187.325457,97.7276901 186.976659,97.7512393 C186.114748,97.8096916 185.238969,97.765537 184.376638,97.7424083 C180.791576,97.6465297 177.206515,97.4804241 173.622714,97.3488012 C170.082198,97.2188604 166.541261,97.066632 162.999905,96.9593993 C159.132022,96.8424946 155.262458,96.7710061 151.393735,96.67723 C148.552497,96.6082647 145.710419,96.5060782 142.86876,96.4720161 C140.76168,96.4467848 138.655021,96.4265999 136.547941,96.4034712 C132.256457,96.357214 127.964973,96.3105362 123.673489,96.264279 C118.368388,96.2070882 113.062867,96.1494769 107.757765,96.0922861 C102.609414,96.0367774 97.4610617,95.9808482 92.3127099,95.9253395 C88.4776059,95.883708 84.6429221,95.842497 80.8078181,95.8008654 C79.16048,95.7832036 77.5072585,95.8017065 75.8611811,95.7289564 C75.167366,95.6982584 74.2890658,95.7150793 73.6637497,95.3652062 C73.0649087,95.0296309 72.974137,94.1444354 72.8383997,93.5367833 C72.4269854,91.6936422 72.0487701,89.8433523 71.5932306,88.0103036 C70.7863711,84.7634653 69.6908072,81.6284854 67.3164551,79.1802153 C65.0143841,76.8063774 62.0189183,75.0755152 58.8507341,74.1592012 C55.7766835,73.2698004 52.5152062,73.1861169 49.3911471,73.8618932 C46.2128771,74.5494442 43.0913395,75.9064636 40.5669619,77.9783679 C37.8883565,80.1768488 36.1292347,83.1570772 34.9824016,86.3942436 C33.8771722,89.5136642 33.3758267,92.7457844 33.0951069,96.0313106 C32.9929887,97.2251682 32.8912908,98.4190257 32.7891726,99.6128833 C32.7492499,100.07882 32.716051,100.546018 32.6698247,101.011534 C32.6450306,101.260903 32.589559,101.401357 32.3353142,101.490928 C32.0529134,101.59017 31.7473994,101.64652 31.4574343,101.721793 C31.2943814,101.764266 31.0981296,101.853416 30.926672,101.853416 C30.5942627,101.853416 30.543834,101.582601 30.555045,101.319776 C30.6081306,100.292444 30.6976416,99.2634308 30.777487,98.2377814 C31.0439188,94.8067551 31.3645614,91.338723 32.1411636,87.9804467 C32.8946527,84.7222543 34.1112455,81.5023292 35.864484,78.648257 C36.7192507,77.2567548 37.7194203,75.954403 38.9376941,74.8614703 C40.1874858,73.7407833 41.6234436,72.8530647 43.1102503,72.0839328 C45.9182894,70.6314552 48.9620827,69.4624083 52.147917,69.3160672 C55.3896431,69.167203 58.7128956,69.7273362 61.697015,71.0107646 C64.6487759,72.2803158 67.4542936,74.2084021 69.4067255,76.7895566 C71.4016015,79.4274813 72.621136,82.6860943 73.535997,85.8374745 C74.4735509,89.0670715 75.0354109,92.3824547 75.4913705,95.7096125" id="Path"></path>
                    <path d="M5.88335043,75.143219 C4.80963897,74.432119 5.04455275,72.9523075 5.06052185,71.8349847 C5.08111357,70.4127845 5.13868636,68.9914254 5.18869484,67.5700663 C5.27904629,65.0259176 5.39040971,62.4821894 5.5303494,59.9401433 C5.6917213,57.0082748 5.86023726,54.0793499 6.10187487,51.1529481 C6.31997908,48.5125002 6.58557032,45.874996 6.86040684,43.2400149 C7.17348513,40.2404425 7.51261826,37.2454959 7.85805497,34.2492877 C8.16819159,31.559639 8.52791644,28.875457 8.88217819,26.1912749 C9.22677443,23.5802635 9.64197087,20.9759804 10.0924674,18.3813692 C10.5417032,15.7939069 11.064481,13.2102293 11.7179531,10.6660806 C12.36218,8.15641457 13.0887737,5.58955777 14.2793117,3.2762748 C14.8752111,2.11858201 15.6383657,1.27712059 16.9251385,0.919257695 C18.1152562,0.588308104 19.3339502,0.51892223 20.5618895,0.468459777 C22.3605138,0.394868699 24.1587178,0.38645829 25.9581826,0.382673606 C29.3566579,0.374683717 32.7555535,0.367114349 36.1540289,0.359124461 C40.0983951,0.350293532 44.0427613,0.341042082 47.9875478,0.332211152 C50.0156227,0.327585428 52.0436976,0.316231375 54.0717726,0.318076993 C55.029498,0.319175019 55.9872234,0.327585428 56.9449488,0.332631673 C59.6105268,0.346088327 62.276525,0.359124461 64.942103,0.372581115 C68.6582792,0.391084015 72.3740353,0.409586914 76.0902116,0.428089814 C80.2173819,0.448695316 84.344132,0.469300818 88.4713023,0.489485799 C92.3635588,0.50882974 96.2558154,0.52817368 100.147652,0.547517621 C103.159087,0.562656357 106.170522,0.577374572 109.182377,0.592513309 C110.667502,0.600082677 112.152208,0.604708401 113.637334,0.614800892 C115.936883,0.629939628 118.238114,0.718669442 120.537243,0.772075539 C122.988499,0.82926632 125.438074,0.885195539 127.888069,0.977710037 C130.665431,1.08241963 133.444053,1.16694424 136.219314,1.31707004 C139.290843,1.48317561 142.357749,1.65853264 145.425917,1.87552119 C148.028459,2.05970914 150.635203,2.24431762 153.222196,2.58872387 C155.762543,2.9268223 158.234811,3.52564342 160.584789,4.56264684 C163.008309,5.63203033 165.286427,7.01301948 167.483858,8.48526156 C169.670363,9.94993428 171.784587,11.5323527 173.835775,13.1812134 C176.069768,14.9764152 178.247868,16.8367976 180.390248,18.7404937 C182.368314,20.4978486 184.316544,22.2934709 186.244602,24.105073 C188.522299,26.2455221 190.768478,28.4208743 193.029786,30.5785648 C194.308154,31.7980741 195.576856,33.0234706 196.836734,34.2623239 C199.561566,36.9423007 202.286397,39.6222775 205.011229,42.3022543 C206.704793,43.9679358 208.386171,45.6466534 210.092763,47.2992987 C210.52771,47.7206602 210.979888,48.260188 211.593437,48.3930724 C212.185555,48.5213312 212.934001,48.4813817 213.443751,48.8560654 C213.632439,48.9944167 213.890045,49.2652318 213.615209,49.4338605 C213.419377,49.5537088 213.061333,49.5276366 212.841128,49.5385701 C212.281369,49.5663245 211.689252,49.5944993 211.132855,49.5087132 C210.489469,49.4094703 210.086879,48.9161999 209.637644,48.4839048 C209.160672,48.025117 208.693786,47.5558162 208.222698,47.0911411 C207.660838,46.5368952 207.096036,45.9860134 206.54006,45.4258801 C204.827584,43.7013258 203.114689,41.977192 201.402214,40.2526376 C198.601739,37.433048 195.801264,34.6130379 193.000789,31.7934483 C190.447835,29.2228068 187.894461,26.6521654 185.341508,24.0815239 C184.618696,23.3540235 183.896305,22.6261026 183.173493,21.8986022 C182.997833,21.7219836 182.813348,21.5508318 182.645252,21.3670644 C182.422105,21.1231625 182.559944,21.019294 182.915046,21.0197145" id="Path"></path>
                    <line x1="6.18298106" y1="50.1975257" x2="12.4243754" y2="50.1975257" id="Path"></line>
                    <line x1="5.67617244" y1="57.1726983" x2="12.0339731" y2="57.1726983" id="Path"></line>
                    <line x1="5.4063788" y1="62.3232327" x2="11.8805857" y2="62.3232327" id="Path"></line>
                    <line x1="5.20424369" y1="67.0662828" x2="11.8591535" y2="67.0662828" id="Path"></line>
                    <line x1="5.06556472" y1="71.4750192" x2="11.9436216" y2="71.4750192" id="Path"></line>
                    <path d="M85.4586066,95.8378712 C85.4413768,92.3176946 85.4237268,88.7975179 85.406497,85.2773413 C85.3934695,82.6713761 85.4182637,80.0662519 85.4384351,77.4598662 C85.4594471,74.6932622 85.455665,71.9258171 85.5056734,69.1596336 C85.5666081,65.7824339 85.6279631,62.4056547 85.6888978,59.028455 C85.7632801,54.9229139 85.8376625,50.8177933 85.9116246,46.7122522 C85.9359985,45.36112 85.9683569,44.0112494 86.0086999,42.6605377 C86.1204836,38.9284187 86.231847,35.1958793 86.3436306,31.4637603 C86.4772667,26.9919459 86.6109028,22.520552 86.7449592,18.0487375 C86.8142987,15.7299878 86.86935,13.4099765 86.9529776,11.0916473 C87.0588779,8.16398394 87.155533,5.21823822 87.4421362,2.3015084 C87.5055923,1.65727108 87.5661068,1.00041814 87.7220156,0.370478513" id="Path"></path>
                    <path d="M150.088052,96.614993 C150.143523,94.0464541 150.198574,91.4774947 150.254046,88.9089558 C150.347339,84.5784363 150.440632,80.2474962 150.533505,75.9169767 C150.570066,74.2205972 150.615872,72.5246382 150.635203,70.8282587 C150.676387,67.2416399 150.71757,63.6546004 150.758754,60.0679816 C150.803719,56.1731212 150.848264,52.2778403 150.89323,48.3829799 C150.912141,46.7555658 150.912981,45.1289927 150.915923,43.5015786 C150.923487,39.1828336 150.931052,34.8636681 150.938616,30.5449231 C150.942398,28.4221359 150.96341,26.2985077 150.947021,24.1757204 C150.920546,20.762356 150.894071,17.3489915 150.867595,13.9356271 C150.839019,10.2712119 150.810863,6.60679673 150.782287,2.94196104 C150.780606,2.7312803 150.778925,2.52017903 150.777244,2.30949829" id="Path"></path>
                    <path d="M243.939258,75.8080619 C241.892692,75.5376672 240.116341,74.3568458 238.568599,73.0561761 C236.865369,71.6247245 235.313846,69.9952077 233.858557,68.314808 C233.123979,67.4670388 232.399906,66.5965615 231.790559,65.6529136 C231.502695,65.2071619 231.24761,64.7387022 231.008074,64.2647756 C230.818966,63.8909329 230.646248,63.4788229 231.000089,63.1432476 C231.654402,62.5229799 233.053378,62.5612473 233.885872,62.5032155 C234.955381,62.4287833 236.069436,62.2971604 237.141046,62.3926186 C238.211396,62.4880767 239.014893,63.0881594 239.808305,63.7672999 C240.676099,64.509939 241.508173,65.240383 242.595752,65.6415596 C242.83739,65.7307099 243.08281,65.8076651 243.32907,65.8829383" id="Path"></path>
                    <path d="M230.784086,63.5730195 C233.30174,64.273186 235.826538,64.9800809 238.275692,65.898077 C239.280064,66.2744428 240.629032,66.6499676 241.126596,67.696643 C241.604828,68.7025279 241.759056,69.8942828 241.898996,70.9872155 C242.086002,72.4438983 242.176354,73.9106736 242.256619,75.3766079" id="Path"></path>
                    <path d="M222.781048,79.0082225 C225.213814,78.5317728 227.663809,78.082657 230.142801,77.9422031 C231.464453,77.8673505 232.790309,77.8883765 234.112381,77.8240369 C235.291993,77.7668461 236.282497,77.610833 237.220892,76.8454858 C238.208874,76.0397686 238.99178,74.9947753 239.737285,73.970808" id="Path"></path>
                    <path d="M245.756793,82.3030001 C244.712918,82.3046822 243.622817,82.4077097 242.666773,82.8576666 C241.560283,83.3786914 240.880756,84.3925662 240.231486,85.385415 C239.891512,85.9051783 239.570029,86.4371367 239.271659,86.9817106 C239.007749,87.4632065 238.584568,88.0822126 238.588325,88.6482332 C238.595074,89.6679952 240.777377,89.4892741 241.440094,89.5002076 C242.870169,89.5237567 244.301504,89.5107206 245.731578,89.5145053" id="Path"></path>
                    <line x1="245.402531" y1="80.1718025" x2="228.552195" y2="80.1718025" id="Path"></line>
                    <path d="M210.641595,49.3733056 C212.52931,50.143699 214.40694,50.9321749 216.278265,51.7420972 C218.240783,52.591128 220.194896,53.4595028 222.140184,54.3480625 C223.968225,55.1827955 225.783658,56.0473856 227.593209,56.9216476 C229.423771,57.8060021 231.236264,58.7261008 233.037829,59.6668051 C234.801574,60.5877448 236.549349,61.5507367 238.233668,62.6108687 C238.424037,62.730717 238.612724,62.853509 238.800991,62.9767215" id="Path"></path>
                    <line x1="154.438789" y1="63.5027926" x2="156.016368" y2="66.3127102" id="Path"></line>
                    <path d="M156.576539,56.9830436 C156.595878,57.8060021 157.430473,57.9023013 158.088147,57.927112 C158.808858,57.9540253 159.62076,58.0070109 160.317517,57.7845555 C160.749523,57.6466248 161.121015,57.5301407 161.580336,57.5103762 C161.93838,57.4952375 162.297264,57.4969196 162.655729,57.496499 C163.528986,57.4960785 164.543023,57.3535221 165.399471,57.577239 C165.809204,57.6840512 166.144976,57.7416625 166.570258,57.6647072 C166.875772,57.6091985 167.353164,57.5179456 167.516637,57.2164324 C167.917545,56.4763164 166.545464,56.2496559 166.095387,56.2538611 C165.701203,56.2576458 165.342318,56.4401517 164.950235,56.4653829 C164.552269,56.4910346 164.147578,56.4712702 163.749191,56.4712702 C162.865428,56.4708497 161.881648,56.570513 161.006709,56.4031459 C160.556213,56.3169392 160.158246,56.1020532 159.693882,56.0604217 C159.25179,56.0208928 158.802134,56.0305648 158.358782,56.03477 C157.674632,56.0398162 156.573185,56.0541139 156.576539,56.9830436 Z" id="Path"></path>
                    <path d="M160.433923,57.7441856 C161.006709,59.6630204 163.457125,60.364028 164.932165,58.9843004 C165.311641,58.6289606 165.583116,58.1689112 165.71423,57.6659688" id="Path"></path>
                    <path d="M165.71423,56.3005389 C165.198597,54.3657243 162.769613,53.5919667 161.254651,54.9279601 C160.864669,55.2719459 160.580167,55.7235848 160.433923,56.2223221" id="Path"></path>
                    <path d="M150.916763,17.5289743 C154.435848,17.5529439 157.97048,17.8611854 161.475697,18.1479804 C164.92292,18.4301496 168.379388,18.7657249 171.791311,19.3439405 C175.047746,19.8956633 178.542035,20.4751405 181.330323,22.366221 C182.690638,23.2888428 183.849238,24.4726079 185.001534,25.6349264 C186.211823,26.8556972 187.397739,28.1000172 188.591638,29.3367679 C191.134927,31.971749 193.677795,34.6054686 196.169814,37.28923 C196.439187,37.5793891 196.708561,37.8695483 196.977934,38.1597074" id="Path"></path>
                    <path d="M154.438789,63.5027926 C154.354741,61.1596526 154.271114,58.8169332 154.187066,56.4737933 C154.032838,52.1664024 153.87861,47.8590114 153.723962,43.5512 C153.644957,41.3514575 153.552504,39.1517151 153.487788,36.9515521 C153.398697,33.9242254 153.341124,30.8956372 153.268002,27.86789 C153.186476,24.5045674 153.10537,21.1412449 153.023843,17.7783429 C153.022162,17.7161059 153.020902,17.6538688 153.019221,17.5916318" id="Path"></path>
                    <path d="M204.24093,49.7063578 C206.381629,49.6979474 208.619824,49.7942465 210.735309,49.4111524" id="Path"></path>
                    <path d="M194.725031,38.5394373 C193.180232,36.8258165 191.634591,35.1151393 190.064157,33.4246471 C188.584074,31.8312952 187.08508,30.253923 185.531876,28.731639 C184.026158,27.2560327 182.46665,25.8233196 180.716354,24.6403955 C178.97236,23.4620972 177.119946,22.7955723 175.05615,22.4200476 C173.031858,22.0516717 170.979829,21.8090314 168.938306,21.5600833 C166.633714,21.2787551 164.330802,20.9776625 162.017385,20.77371 C160.099413,20.6046608 157.721699,20.0323325 156.549651,22.0419997 C156.191607,22.6559596 156.086548,23.3477157 156.176899,24.0462001 C156.291624,24.9339188 156.416015,25.8203759 156.535783,26.7072535 C156.958964,29.8439155 157.382145,32.980157 157.805326,36.116819 C158.033096,37.8056291 158.189845,39.5348092 158.60126,41.1920803 C159.097142,43.1903935 160.061171,44.9675129 161.908543,46.009983 C163.156654,46.7139343 164.562354,47.0545558 165.953346,47.345556 C167.436791,47.6559001 168.920656,47.9658236 170.404101,48.2761677 C173.093633,48.8384036 175.783585,49.4010599 178.473116,49.9632958 C181.720305,50.6424363 184.967074,51.3211563 188.214264,52.0002968 C191.366899,52.6596729 194.519954,53.3190489 197.67259,53.9780045 C200.079721,54.4813674 202.486431,54.9847304 204.893562,55.4880934 C205.892891,55.697092 206.90945,55.9876717 207.922647,56.1213972 C208.246651,56.1642903 208.562251,56.0255185 208.674455,55.697092 C208.798005,55.335865 208.568135,55.0843938 208.359696,54.8232506 C207.633522,53.9119828 206.911131,52.9973508 206.178654,52.0911292 C204.712019,50.277004 203.223531,48.4826433 201.727899,46.6924877 C201.039547,45.8686882 200.351195,45.0448886 199.662843,44.2210891" id="Path"></path>
                    <line x1="178.863939" y1="24.7333306" x2="181.69299" y2="49.5654834" id="Path"></line>
                    <line x1="181.144578" y1="26.2350091" x2="183.85386" y2="50.0171224" id="Path"></line>
                    <path d="M156.016368,66.3127102 C156.025193,68.1465999 156.035699,69.980069 156.081084,71.8135381 C156.12647,73.650792 156.184463,75.4884663 156.288683,77.323197 C156.398785,79.2580116 156.530741,81.190303 156.715226,83.1196509 C156.886683,84.9135911 157.102686,86.7045877 157.368277,88.4871738 C157.510739,89.4434373 157.667068,90.3975982 157.824237,91.3517591 C157.957033,92.1574763 158.052847,92.9972556 158.301209,93.777321 C158.682786,94.9774864 160.404927,94.7916164 161.440817,94.8315658 C163.359629,94.9059979 165.278862,94.9800095 167.197675,95.0544416 C169.939316,95.1604128 172.680958,95.2668045 175.422599,95.3727756 C177.442689,95.4509924 179.4632,95.5292092 181.48329,95.607426 C182.786032,95.6578885 184.089615,95.7159203 185.393197,95.730218 C185.737793,95.7340027 186.176523,95.7899319 186.507672,95.6717657 C186.87286,95.5414043 186.973717,95.1208839 187.063228,94.7853086 C187.301504,93.890441 187.458253,92.9732859 187.667952,92.0716901 C188.073063,90.331156 188.552136,88.6053401 189.101389,86.9051759 C189.658206,85.1814626 190.278899,83.4766727 191.036591,81.8303352 C191.771169,80.233619 192.621733,78.6743292 193.660985,77.2546522 C194.648127,75.9060431 195.831942,74.720596 197.177548,73.7294293 C197.899099,73.1978914 198.675281,72.746673 199.400614,72.2218635 C199.734284,71.9804848 200.054506,71.71808 200.169652,71.3072315 C200.257062,70.9947848 200.25454,70.6545838 200.259163,70.3328857 C200.275132,69.2243938 200.264206,68.1150608 200.264626,67.0061484 C200.265046,64.59152 200.265466,62.1764711 200.265887,59.7618427 C200.266307,57.0217314 200.266727,54.2820407 200.267147,51.5419295 C200.267988,49.6209921 200.267988,47.6996342 200.267988,45.7786968 C200.267988,45.4973686 200.267988,45.216461 200.267988,44.9351328" id="Path"></path>
                    <path d="M12.0339731,57.1726983 C14.8125954,57.115087 17.5912178,57.0448601 20.3702604,57.0179468 C23.6493878,56.9864077 26.9259937,56.9737921 30.2051211,56.9788384 C32.8391811,56.9830436 35.4749221,57.0074338 38.1085619,57.0604193 C41.5532636,57.1298052 44.997545,57.2366174 48.4414062,57.3245062 C50.595553,57.3795943 52.7475985,57.4481392 54.9009048,57.5284586 C58.6881015,57.670174 62.4752982,57.8118894 66.2624949,57.9536048 C67.9194985,58.0154213 69.5760819,58.1007869 71.2326653,58.1769011 C75.3531118,58.3665558 79.4739785,58.5562106 83.594425,58.7462858 C86.9660051,58.9014578 90.3371649,59.0566299 93.7087449,59.2118019 C95.5741872,59.2975881 97.4383688,59.4111286 99.3033909,59.5158382 C102.898538,59.7185291 106.493686,59.9207994 110.088833,60.1234903 C112.624137,60.2664672 115.15776,60.4548604 117.691803,60.621807 C120.670039,60.8177695 123.650376,60.9964907 126.627351,61.2105356 C129.721994,61.4329909 132.814114,61.6911905 135.907496,61.9313077 C138.433555,62.1272702 140.965076,62.2904321 143.488193,62.5229799 C146.9766,62.8446781 150.465426,63.1663762 153.953833,63.4876538 C156.376933,63.7109502 158.801714,63.9191078 161.221872,64.1735227 C164.18624,64.4855488 167.151449,64.7858004 170.112455,65.127263 C173.099936,65.4716693 176.086997,65.8114498 179.070276,66.1894977 C182.095579,66.5725918 185.11794,66.9624143 188.1382,67.3837758 C189.57752,67.584364 191.01684,67.7853728 192.456159,67.985961" id="Path"></path>
                    <path d="M68.6212982,75.8353957 C69.6294523,75.8345546 70.6376064,75.8341341 71.6457605,75.8332931 C74.1281142,75.831611 76.6104678,75.8299289 79.0928215,75.8286674 C82.2362116,75.8265648 85.3796016,75.8244622 88.5229917,75.8223596 C91.5260219,75.820257 94.5286318,75.8185749 97.5316619,75.8164723 C99.5521726,75.8152107 101.572263,75.8139491 103.592774,75.8126876 C104.156735,75.8122588 104.720696,75.8110055 105.284657,75.8164723 C106.929474,75.8328726 108.574711,75.8488523 110.219527,75.8652526 C113.031349,75.893007 115.84317,75.9207613 118.655411,75.9485157 C121.842506,75.9800547 125.029601,76.0111732 128.216696,76.0427123 C130.987334,76.0700461 133.757972,76.0973799 136.52861,76.1247138 C138.094001,76.140273 139.659393,76.1554117 141.224784,76.170971 C141.899268,76.1776993 142.573752,76.1915765 143.248236,76.2033511 C145.595273,76.243721 147.94231,76.284091 150.288926,76.324461 C153.433997,76.3787081 156.578648,76.4329552 159.723719,76.4872024 C162.533859,76.5355622 165.343579,76.5839221 168.15372,76.6322819 C169.495544,76.6554106 170.838208,76.6722314 172.180032,76.7016678 C174.078253,76.7432993 175.976054,76.807639 177.874275,76.8606245 C180.14819,76.9241231 182.422946,76.9745856 184.69644,77.0515408 C186.776625,77.1217677 188.856809,77.2104975 190.935313,77.3173097 C192.885224,77.4173936 194.840177,77.5309341 196.779161,77.7689487 C197.93566,77.9110846 199.091738,78.0528 200.248237,78.1949359" id="Path"></path>
                    <line x1="73.042636" y1="84.2529535" x2="192.570885" y2="86.1217463" id="Path"></line>
                    <path d="M187.701572,97.6107854 C187.491452,98.8172586 187.289737,100.024993 187.152739,101.242821 C187.092645,101.77604 187.039274,102.315568 187.039274,102.852573 C187.039274,103.434994 187.132568,103.823554 187.738132,103.975362 C188.255867,104.104883 188.82319,104.124647 189.354373,104.133058 C189.811173,104.140206 190.433127,104.180156 190.697458,103.725994 C190.950862,103.289494 190.976497,102.673011 191.040373,102.183525 C191.130304,101.493451 191.208048,100.801274 191.292096,100.110359 C191.584163,97.704982 191.866143,95.288251 192.382617,92.9186183 C192.888165,90.5969249 193.667289,88.3307402 194.614088,86.1528648 C195.576436,83.9396657 196.886742,81.898039 198.249578,79.9140235 C198.430281,79.6507777 198.613926,79.3896345 198.79631,79.1272297" id="Path"></path>
                    <line x1="191.218975" y1="100.735252" x2="194.894808" y2="100.735252" id="Path"></line>
                    <line x1="227.570936" y1="96.2041445" x2="229.713316" y2="96.2041445" id="Path"></line>
                    <rect id="Rectangle" x="22" y="13.44" width="58.8" height="30.24" rx="6.72"></rect>
                    <rect id="Rectangle-Copy-4" x="89.04" y="13.44" width="58.8" height="30.24" rx="6.72"></rect>
                </g>
            </g>
        </g>
    </g>
</svg>