<?xml version="1.0" encoding="UTF-8"?>
<svg width="151px" height="184px" viewBox="0 0 151 184" version="1.1" xmlns="http://www.w3.org/2000/svg" xmlns:xlink="http://www.w3.org/1999/xlink">
    <!-- Generator: Sketch 63.1 (92452) - https://sketch.com -->
    <title>Artboard Copy 46</title>
    <desc>Created with Sketch.</desc>
    <g id="Artboard-Copy-46" stroke="none" stroke-width="1" fill="none" fill-rule="evenodd">
        <path d="M5.1277704,73 L145.87223,73 C147.655267,73 148.30184,73.1856512 148.953691,73.5342654 C149.605543,73.8828796 150.11712,74.3944567 150.465735,75.0463086 C150.814349,75.6981604 151,76.3447329 151,78.1277704 L151,178.87223 C151,180.655267 150.814349,181.30184 150.465735,181.953691 C150.11712,182.605543 149.605543,183.11712 148.953691,183.465735 C148.30184,183.814349 147.655267,184 145.87223,184 L5.1277704,184 C3.34473292,184 2.69816044,183.814349 2.04630859,183.465735 C1.39445674,183.11712 0.882879593,182.605543 0.534265408,181.953691 C0.185651222,181.30184 8.02470732e-17,180.655267 -1.38112041e-16,178.87223 L1.38112041e-16,78.1277704 C-8.02470732e-17,76.3447329 0.185651222,75.6981604 0.534265408,75.0463086 C0.882879593,74.3944567 1.39445674,73.8828796 2.04630859,73.5342654 C2.69816044,73.1856512 3.34473292,73 5.1277704,73 Z" id="Rectangle-Copy-4" stroke="#000000" fill="#FBFBFB"></path>
    </g>
</svg>