<?xml version="1.0" encoding="UTF-8"?>
<svg width="151px" height="111px" viewBox="0 0 151 111" version="1.1" xmlns="http://www.w3.org/2000/svg" xmlns:xlink="http://www.w3.org/1999/xlink">
    <!-- Generator: Sketch 63.1 (92452) - https://sketch.com -->
    <title>engine_repai</title>
    <desc>Created with Sketch.</desc>
    <g id="engine_repai" stroke="none" stroke-width="1" fill="none" fill-rule="evenodd">
        <path d="M145.87223,1 L5.1277704,1 C3.62793014,1 3.06999737,1.12081769 2.51790745,1.41607861 C2.04290172,1.67011445 1.67011445,2.04290172 1.41607861,2.51790745 C1.12081769,3.06999737 1,3.62793014 1,5.1277704 L1,105.87223 C1,107.37207 1.12081769,107.930003 1.41607861,108.482093 C1.67011445,108.957098 2.04290172,109.329886 2.51790745,109.583921 C3.06999737,109.879182 3.62793014,110 5.1277704,110 L145.87223,110 C147.37207,110 147.930003,109.879182 148.482093,109.583921 C148.957098,109.329886 149.329886,108.957098 149.583921,108.482093 C149.879182,107.930003 150,107.37207 150,105.87223 L150,5.1277704 C150,3.62793014 149.879182,3.06999737 149.583921,2.51790745 C149.329886,2.04290172 148.957098,1.67011445 148.482093,1.41607861 C147.930003,1.12081769 147.37207,1 145.87223,1 Z" id="Rectangle-Copy-4" stroke="#000000" stroke-width="2" fill="#95C3B5"></path>
    </g>
</svg>